<svg xmlns="http://www.w3.org/2000/svg" width="572.998" height="115.001" viewBox="0 0 572.998 115.001"><path d="M354.6,104.332a6.922,6.922,0,0,1,.406-2.325h-1.7c-2.693,3.936-9.29,6.718-17,6.718a28.033,28.033,0,0,1-10.484-1.923c-3.954,4.7-18.947,8.2-36.839,8.2-12,0-22.691-1.573-29.628-4.026-3.7,2.454-9.4,4.026-15.8,4.026-7.211,0-13.539-2-17.111-5-3.588,3.056-9.006,5-15.068,5-8.482,0-15.7-3.811-18.414-9.139a31.8,31.8,0,0,1-13.765,2.864,32.441,32.441,0,0,1-13.106-2.553c-3.151,3.724-10.222,6.319-18.441,6.319-7.212,0-13.54-2-17.111-5-3.588,3.056-9.005,5-15.068,5-9.179,0-16.882-4.463-18.989-10.483H0A17.951,17.951,0,0,1,4.325,98.33a24.1,24.1,0,0,1,6.345-3.263,21.508,21.508,0,0,1,6.779-1.088,22.547,22.547,0,0,1,6.562.87,12.851,12.851,0,0,1,4.811,2.612c.869,0,3.812-2.049,8.75-6.091a51.472,51.472,0,0,1,5.9-4.57,7.968,7.968,0,0,1,3.72-1.524,9.527,9.527,0,0,1,3.389.545,5.34,5.34,0,0,1,2.3,1.633,5.471,5.471,0,0,0,2.406,1.3,13.808,13.808,0,0,0,3.718.435,7.035,7.035,0,0,0,2.953-.653,10.451,10.451,0,0,0,4.7-4.676,6.932,6.932,0,0,0,.657-2.936A62.9,62.9,0,0,1,66,70.048a13.672,13.672,0,0,1,.6-4.024,15.149,15.149,0,0,1,1.8-3.807,25.558,25.558,0,0,1,7.218-6.96,36.648,36.648,0,0,1,9.405-4.9,30.575,30.575,0,0,1,9.843-1.633,10.871,10.871,0,0,1,3.964.734,12.32,12.32,0,0,1,3.581,2.2,19.029,19.029,0,0,1,3.2,3.671,33.092,33.092,0,0,1,2.815,5.141,5.718,5.718,0,0,1,.44,1.74c.486-.306.927-.6,1.312-.87a36.635,36.635,0,0,1,9.4-4.894,30.623,30.623,0,0,1,9.844-1.631,12.087,12.087,0,0,1,4.373.761,10.108,10.108,0,0,1,3.5,2.283,29.138,29.138,0,0,1,2.626,4.352h.436a93.082,93.082,0,0,1-1.751-17.4,43.991,43.991,0,0,1,1.012-9.545,38,38,0,0,1,3.036-8.621,38.9,38.9,0,0,1,5.057-7.7,46.8,46.8,0,0,1,7.08-6.772,55.375,55.375,0,0,1,8.04-5.329,54.453,54.453,0,0,1,8.8-3.807A58.77,58.77,0,0,1,181.216.761,68.609,68.609,0,0,1,191.55,0a50.1,50.1,0,0,1,10.663,1.088,38.384,38.384,0,0,1,9.241,3.263,35.249,35.249,0,0,1,7.819,5.439,40.083,40.083,0,0,1,6.4,7.613,50.149,50.149,0,0,1,6,12.595,52.156,52.156,0,0,1,2.309,13.945H235.3a17.768,17.768,0,0,1,7.874,1.523,9.384,9.384,0,0,1,2.624,1.9,8.938,8.938,0,0,1,1.749,2.667c.58,1.436.875,4.363.875,8.7,0,.845-2.06,5.969-6.124,15.229a8.715,8.715,0,0,0-1.312,1.742l1.312-.873a1.24,1.24,0,0,0,0-.869,17.214,17.214,0,0,1,7.439-1.305,6.759,6.759,0,0,1,4.372,1.415,8.541,8.541,0,0,1,2.625,4.241,12.163,12.163,0,0,0,2.407,3.917,4,4,0,0,0,2.842,1.305c1.162,0,3.663-.878,7.436-2.609,3.486-2.022,5.693-3.047,6.564-3.047a22.221,22.221,0,0,1,3.935,1.74,18.03,18.03,0,0,0,6.126,1.308,2.023,2.023,0,0,0,1.5-.925,10.8,10.8,0,0,0,1.448-2.774,64.917,64.917,0,0,0,2.734-11.1,17.074,17.074,0,0,1,2.57-6.663,15.869,15.869,0,0,1,5.086-4.759,24.948,24.948,0,0,1,7.6-2.855,48.7,48.7,0,0,1,10.117-.951,23.634,23.634,0,0,1,8.037,1.251,14.312,14.312,0,0,1,5.741,3.753,16.1,16.1,0,0,1,3.444,6.255,30.178,30.178,0,0,1,1.148,8.756,13.588,13.588,0,0,1-.437,4.348,1.976,1.976,0,0,0,.447.053,1.726,1.726,0,0,0,.427-.053,10.033,10.033,0,0,1,3.064-.869,2.669,2.669,0,0,1,2.09.752,3.39,3.39,0,0,1,.533,2.73V83.1a15.607,15.607,0,0,1,4.266-1.305,34.44,34.44,0,0,1,5.8-.435,12.449,12.449,0,0,1,5.14.868,3.9,3.9,0,0,1,2.3,2.61,7.963,7.963,0,0,1-.436,4.352h3.06a13.561,13.561,0,0,1,4.812-2.066,39.546,39.546,0,0,1,7.435-.977,19.569,19.569,0,0,1,5.934.815,10.767,10.767,0,0,1,4.238,2.447,10.213,10.213,0,0,1,2.542,4.078,17.528,17.528,0,0,1,.848,5.711q0,.634-.033,1.217a7.29,7.29,0,0,1,1.183,3.915c0,5.892-7.627,10.669-17.035,10.669S354.6,110.224,354.6,104.332ZM466.8,109.466a32.733,32.733,0,0,1-6.763,1.174,27.447,27.447,0,0,1-13.086-1.971c-3.457,1.564-8.524,2.167-14.006,1.4-7.505-1.049-13.555-4.354-15.482-8.063H416.1c.1-.935.2-2.172.3-3.676a6.87,6.87,0,0,1,1.093-3.7,11.7,11.7,0,0,1,3.28-3.262,19.353,19.353,0,0,1,7-3.916,21.338,21.338,0,0,1,5.686-1.742c.579,0,2.05,1.318,4.375,3.916a14.8,14.8,0,0,0,3.39,2.612,6.781,6.781,0,0,0,3.171.87,3.171,3.171,0,0,0,2.187-1.088,12.758,12.758,0,0,0,2.188-3.263,11.637,11.637,0,0,1,2.733-3.263,4.825,4.825,0,0,1,2.953-1.088c1.741,0,4.537.733,8.312,2.177h4.372a24.6,24.6,0,0,1-1.2-6.31,12.12,12.12,0,0,1,.765-5,9.543,9.543,0,0,1,2.735-3.615,15.653,15.653,0,0,1,4.7-2.583,32.437,32.437,0,0,1,6.672-1.55,65.371,65.371,0,0,1,8.64-.517,28.7,28.7,0,0,1,5.358.462,16.643,16.643,0,0,1,4.265,1.387,11.224,11.224,0,0,1,3.172,2.311,10.567,10.567,0,0,1,2.078,3.235c.58,1.737.874,6.276.874,13.489A53.753,53.753,0,0,1,504,100.311a4.48,4.48,0,0,1,.333,2.575c-.618,3.485-5.537,5.535-10.986,4.58a13.772,13.772,0,0,1-6.022-2.543,12.465,12.465,0,0,1-1.851-.692c-.908,3.948-5.1,7.125-10.328,7.491q-.5.035-.991.035A12.383,12.383,0,0,1,466.8,109.466Zm60.271-7.654a20.238,20.238,0,0,1,1.4-8.344,17.134,17.134,0,0,1,4.722-6.449,18.477,18.477,0,0,1,4.92-2.938,14.122,14.122,0,0,1,5.141-.978,3.111,3.111,0,0,1,2.078.87,8.667,8.667,0,0,1,1.859,2.611,7.9,7.9,0,0,0,2.406,2.283,5.594,5.594,0,0,0,2.844.76c.3,0,4.532-.752,12.247-2.174a12.218,12.218,0,0,1,3.636.489,6.643,6.643,0,0,1,2.6,1.468,6.115,6.115,0,0,1,1.559,2.447A10.31,10.31,0,0,1,573,95.283a18.245,18.245,0,0,1-1.315,5.222c-15.75.5-30.761.94-44.617,1.308Z" transform="translate(-0.001 0.001)" fill="#d7edf5"/></svg>