<svg xmlns="http://www.w3.org/2000/svg" width="810.01" height="313.502" viewBox="0 0 810.01 313.502"><path d="M0,255.5a58.021,58.021,0,0,1,69.56-56.839c-.08-1.3-.2-2.585-.2-3.9a63.052,63.052,0,0,1,112.566-39.079,62.739,62.739,0,0,1,38.306-13.041c1.239,0,2.448.114,3.668.185A95.8,95.8,0,0,1,344.018,75.338a134.42,134.42,0,0,1,243.588,4.519,93.222,93.222,0,0,1,137.641,79.627c2.49-.241,5.011-.381,7.564-.381a77.2,77.2,0,1,1,0,154.4c-.661,0-1.3-.082-1.958-.1v.1H56.039v-.1A57.955,57.955,0,0,1,0,255.5m575.746-19.466c-.033.218-.064.438-.1.656h.979c-.295-.218-.588-.435-.878-.656" fill="#fafafa"/></svg>