<svg xmlns="http://www.w3.org/2000/svg" width="776.196" height="179.974" viewBox="0 0 776.196 179.974"><g transform="translate(0)"><path d="M683.507,169.629q0,5.263,6.347,6.354l3.626-.91h35.552q7.074-1.271,7.076-6.718,0-13.8-26.3-9.987a73.756,73.756,0,0,0-18.139,4.905q-8.162,3.45-8.162,6.357M532.043,74.112q0-17.612-5.629-29.6-11.243-23.787-41.9-23.247-21.763.552-41.719,15.257Q431,45.06,425.2,55.589q-12.331-11.62-33.557-11.075-14.877.182-33.015,10.168c-.965.608-1.874,1.209-2.721,1.817a84.454,84.454,0,0,0-10.886-25.245Q323.8-.88,275.006.025,244.352.749,214.965,20q-33.741,22.151-34.1,52.3-7.438-3.444-18.5-3.269-23.767.547-41.542,21.611a120.677,120.677,0,0,0-17.233,26.144q-7.8-14.7-21.585-13.8-13.789.729-23.764,18.158-9.432,16.159-7.8,31.053-9.25-1.819-30.114,5.086T.014,179.974q50.065-.36,134.234-2.175,83.982-1.636,207.511-.188,123.345,1.641,195,.549t126.794-2q9.068-16.164-7.621-22.156-16.683-6.17-22.126-3.63-5.08,2.361-5.261,2.359a2.554,2.554,0,0,1-1.086-.177v-.365a52.658,52.658,0,0,0-3.63-16.344q-5.44-13.621-21.585-13.253-10.707.182-17.236,5.628a60.581,60.581,0,0,0-6.163-19.975q-11.608-21.786-40.636-21.243a34.323,34.323,0,0,0-7.072.361,84.529,84.529,0,0,0,.909-13.256M774.926,173.62a5.476,5.476,0,0,0,1.27-3.991q0-6-10.7-6.9t-10.7,6.9a5.83,5.83,0,0,0,.906,3.446q2.363,2.908,9.8,2.908c4.713,0,7.864-.785,9.432-2.362" transform="translate(0 0)" fill="#d7edf5"/></g></svg>