<svg xmlns="http://www.w3.org/2000/svg" width="345" height="177.999" viewBox="0 0 345 177.999"><g transform="translate(-234.5 -2260.5)"><path d="M143.665,117.941a44.03,44.03,0,0,1-41.07-14.007A36.38,36.38,0,0,1,37.69,84.024,31.074,31.074,0,0,1,15.3,26.89c6.917-6.867,18.818-11.4,32.34-11.4A56.491,56.491,0,0,1,63.3,17.648C70.337,11.326,81.744,7.215,94.62,7.215c10.377,0,19.8,2.669,26.748,7.015a53.656,53.656,0,0,1,22.535,2.5q1.768.573,3.458,1.24C152.905,10.542,162.845,4.295,175,1.495c15.393-3.547,30.025-.568,37.88,6.724a43.854,43.854,0,0,1,4.4-.454C230,7.1,241.339,11.977,247.315,19.7c5.729-5.216,15.536-8.949,26.832-9.543,15.426-.81,28.7,4.493,32.826,12.4h5.569v.135c.886-.081,1.779-.135,2.687-.135a28.7,28.7,0,0,1,1.065,57.38A56.1,56.1,0,0,1,254.4,147.152a59.28,59.28,0,0,1-110.738-29.21Z" transform="translate(579 2438) rotate(180)" fill="#d7edf5"/><path d="M202.928,177.5a59.559,59.559,0,0,1-33.387-10.17,59.84,59.84,0,0,1-21.653-26.2,59.14,59.14,0,0,1-4.718-22.591,44.3,44.3,0,0,1-26.149-3.371,45.019,45.019,0,0,1-7.981-4.706,45.527,45.527,0,0,1-6.42-5.757,37.142,37.142,0,0,1-12.252,9.809A36.876,36.876,0,0,1,37.234,84.628,31.662,31.662,0,0,1,1.987,65.936a31.581,31.581,0,0,1,1.8-28.166A31.8,31.8,0,0,1,14.992,26.491c7.287-7.2,19.485-11.5,32.648-11.5a56.876,56.876,0,0,1,15.538,2.1,39.748,39.748,0,0,1,13.432-7.5A53.063,53.063,0,0,1,85.2,7.463a59.091,59.091,0,0,1,9.416-.747c10.04,0,19.572,2.484,26.864,7a47.153,47.153,0,0,1,5.276-.291,56.1,56.1,0,0,1,17.3,2.827c1.053.341,2.105.715,3.134,1.112a40.747,40.747,0,0,1,11.252-9.794,55.977,55.977,0,0,1,16.444-6.561A57.9,57.9,0,0,1,187.86-.5,46.133,46.133,0,0,1,202.3,1.682a29.514,29.514,0,0,1,10.743,6.007c1.386-.207,2.8-.349,4.215-.423.779-.041,1.568-.062,2.344-.062a40.945,40.945,0,0,1,16.369,3.321,30.3,30.3,0,0,1,11.409,8.448,35.31,35.31,0,0,1,11.095-6.249A55.027,55.027,0,0,1,274.12,9.656c1.039-.055,2.089-.082,3.121-.082a48.962,48.962,0,0,1,18.9,3.516A28.476,28.476,0,0,1,303,17.108a17.059,17.059,0,0,1,4.271,4.951h5.77v.091c.79-.061,1.51-.091,2.187-.091A29.2,29.2,0,0,1,316.9,80.411a56.857,56.857,0,0,1,1.1,11.1,56.247,56.247,0,0,1-9.682,31.635,56.838,56.838,0,0,1-24.94,20.5,56.424,56.424,0,0,1-22.065,4.446,57.209,57.209,0,0,1-6.64-.4,60.079,60.079,0,0,1-21.312,21.5,59.523,59.523,0,0,1-30.431,8.309Zm-58.763-60.159v.6a58.3,58.3,0,0,0,10.065,32.744A58.92,58.92,0,0,0,180.074,171.9a58.811,58.811,0,0,0,73.895-25l.165-.288.33.04a56.475,56.475,0,0,0,6.847.434,55.494,55.494,0,0,0,31.135-9.492,55.757,55.757,0,0,0,20.176-24.454A55.137,55.137,0,0,0,317,91.51,55.843,55.843,0,0,0,315.8,80.042l-.122-.581.593-.022a28.2,28.2,0,0,0-1.047-56.38c-.8,0-1.663.044-2.641.133l-.546.05v-.183h-5.373l-.14-.269a15.867,15.867,0,0,0-4.159-4.906,27.484,27.484,0,0,0-6.619-3.874,47.959,47.959,0,0,0-18.51-3.437c-1.014,0-2.047.027-3.068.081a54.015,54.015,0,0,0-15.359,3.009,33.755,33.755,0,0,0-11.162,6.4l-.4.365L246.919,20a29.059,29.059,0,0,0-11.353-8.564A39.938,39.938,0,0,0,219.6,8.2c-.759,0-1.53.02-2.292.06a43.512,43.512,0,0,0-4.352.449l-.239.037-.177-.165C207,3.448,198.01.5,187.86.5a56.9,56.9,0,0,0-12.749,1.481A54.982,54.982,0,0,0,158.96,8.424a39.463,39.463,0,0,0-11.2,9.84l-.228.306-.355-.14c-1.121-.441-2.274-.855-3.429-1.229a55.1,55.1,0,0,0-16.988-2.779,46.048,46.048,0,0,0-5.334.3l-.174.02-.149-.093c-7.154-4.475-16.559-6.939-26.483-6.939a58.09,58.09,0,0,0-9.256.735,52.064,52.064,0,0,0-8.432,2.084A38.538,38.538,0,0,0,63.639,18.02l-.207.186-.267-.077A55.788,55.788,0,0,0,47.639,15.99a55.148,55.148,0,0,0-18.477,3.1,36.964,36.964,0,0,0-13.51,8.16l-.044.044-.054.032A30.535,30.535,0,0,0,.5,53.642,30.6,30.6,0,0,0,31.144,84.225a30.855,30.855,0,0,0,6.441-.69l.564-.121.04.575a35.871,35.871,0,0,0,51.734,29.628,36.347,36.347,0,0,0,12.28-9.992l.368-.467.4.442a44.523,44.523,0,0,0,6.666,6.056,44.016,44.016,0,0,0,7.8,4.6,43.357,43.357,0,0,0,26.139,3.192Z" transform="translate(579 2438) rotate(180)" fill="rgba(0,0,0,0)"/></g></svg>