<svg xmlns="http://www.w3.org/2000/svg" width="1354.511" height="314.225" viewBox="0 0 1354.511 314.225"><g transform="translate(24 -2115.275)"><path d="M810.011,255.5a58.021,58.021,0,0,0-69.56-56.839c.08-1.3.2-2.585.2-3.9a63.052,63.052,0,0,0-112.566-39.079,62.739,62.739,0,0,0-38.306-13.041c-1.239,0-2.448.114-3.667.185A95.8,95.8,0,0,0,465.992,75.338,134.42,134.42,0,0,0,222.4,79.857,93.222,93.222,0,0,0,84.764,159.484c-2.49-.241-5.011-.382-7.564-.382a77.2,77.2,0,1,0,0,154.4c.661,0,1.3-.082,1.958-.1v.1H753.972v-.1a57.955,57.955,0,0,0,56.039-57.9M234.265,236.038c.033.218.064.438.1.656h-.978c.294-.218.588-.435.878-.656" transform="translate(-24 2115.275)" fill="#fafafa"/><g transform="translate(126.818 2277.973)"><path d="M573.155,142.092q0,4.409,5.322,5.322l3.041-.762h29.812q5.932-1.065,5.933-5.628,0-11.563-22.054-8.366A61.9,61.9,0,0,0,580,136.767q-6.844,2.89-6.844,5.325M446.145,62.081q0-14.753-4.72-24.793Q432,17.362,406.288,17.815q-18.25.463-34.983,12.78-9.887,7.15-14.753,15.97-10.34-9.734-28.139-9.277-12.475.153-27.685,8.517c-.809.509-1.571,1.013-2.281,1.522a70.7,70.7,0,0,0-9.128-21.146Q271.526-.737,230.607.021,204.9.627,180.259,16.753q-28.293,18.555-28.6,43.806-6.237-2.885-15.513-2.738-19.93.458-34.835,18.1a101.078,101.078,0,0,0-14.451,21.9q-6.539-12.313-18.1-11.558-11.563.611-19.927,15.21-7.909,13.536-6.539,26.012-7.756-1.523-25.252,4.26T.012,150.758q41.982-.3,112.562-1.822,70.423-1.371,174.008-.157,103.431,1.375,163.515.46t106.323-1.673q7.6-13.54-6.39-18.56-13.99-5.168-18.554-3.041-4.26,1.977-4.411,1.976a2.145,2.145,0,0,1-.911-.148v-.306A44.068,44.068,0,0,0,523.11,113.8q-4.561-11.41-18.1-11.1-8.978.153-14.454,4.714a50.711,50.711,0,0,0-5.168-16.732q-9.734-18.25-34.075-17.794a28.812,28.812,0,0,0-5.93.3,70.735,70.735,0,0,0,.762-11.1m203.669,83.355a4.583,4.583,0,0,0,1.065-3.344q0-5.024-8.974-5.782t-8.974,5.782a4.88,4.88,0,0,0,.76,2.887q1.982,2.436,8.215,2.436c3.952,0,6.594-.658,7.909-1.979" transform="translate(552.813 0)" fill="#fafafa"/><path d="M657.418,133.9H543.273c.132-1.227.263-2.85.388-4.826a9.05,9.05,0,0,1,1.426-4.855,15.294,15.294,0,0,1,4.282-4.282c1.894-1.894,4.969-3.624,9.141-5.141,3.792-1.518,6.29-2.287,7.425-2.287.755,0,2.677,1.73,5.712,5.141a19.322,19.322,0,0,0,4.426,3.428,8.822,8.822,0,0,0,4.14,1.143,4.131,4.131,0,0,0,2.856-1.428,16.729,16.729,0,0,0,2.856-4.284,15.257,15.257,0,0,1,3.569-4.284,6.276,6.276,0,0,1,3.855-1.428c2.272,0,5.924.962,10.853,2.858h5.708a32.451,32.451,0,0,1-1.57-8.283,15.982,15.982,0,0,1,1-6.57,12.527,12.527,0,0,1,3.57-4.746,20.432,20.432,0,0,1,6.14-3.391,42.158,42.158,0,0,1,8.71-2.035,84.92,84.92,0,0,1,11.281-.678,37.191,37.191,0,0,1,7,.607,21.658,21.658,0,0,1,5.569,1.82,14.634,14.634,0,0,1,4.141,3.034,13.858,13.858,0,0,1,2.713,4.247c.758,2.28,1.142,8.238,1.142,17.707,0,7.79-.735,14.025-2.184,18.532Zm-151.714,0H0a23.45,23.45,0,0,1,5.645-4.826,31.427,31.427,0,0,1,8.285-4.284,27.931,27.931,0,0,1,8.851-1.428,29.305,29.305,0,0,1,8.567,1.143,16.763,16.763,0,0,1,6.282,3.428c1.134,0,4.978-2.69,11.424-7.995a67.266,67.266,0,0,1,7.709-6c2.084-1.327,3.718-2,4.857-2a12.373,12.373,0,0,1,4.425.715,6.974,6.974,0,0,1,3,2.144,7.133,7.133,0,0,0,3.141,1.713,17.969,17.969,0,0,0,4.854.57,9.149,9.149,0,0,0,3.856-.856,13.674,13.674,0,0,0,6.139-6.139,9.129,9.129,0,0,0,.858-3.854,82.957,82.957,0,0,1-1.716-14.282,18.054,18.054,0,0,1,.785-5.282,19.972,19.972,0,0,1,2.356-5,33.466,33.466,0,0,1,9.424-9.136,47.762,47.762,0,0,1,12.279-6.427,39.74,39.74,0,0,1,12.852-2.143,14.136,14.136,0,0,1,5.175.964,16.075,16.075,0,0,1,4.676,2.892,24.958,24.958,0,0,1,4.176,4.82,43.522,43.522,0,0,1,3.676,6.748,7.579,7.579,0,0,1,.575,2.283c.634-.4,1.21-.786,1.712-1.142a47.725,47.725,0,0,1,12.279-6.425,39.766,39.766,0,0,1,12.852-2.141,15.716,15.716,0,0,1,5.71,1,13.19,13.19,0,0,1,4.568,3,38.221,38.221,0,0,1,3.429,5.712h.571a122.74,122.74,0,0,1-2.287-22.844A58.058,58.058,0,0,1,182.307,46.3a50.084,50.084,0,0,1,3.963-11.316,51.081,51.081,0,0,1,6.6-10.1,61.242,61.242,0,0,1,9.244-8.889,72.244,72.244,0,0,1,10.5-7,70.882,70.882,0,0,1,11.494-5A76.327,76.327,0,0,1,236.6,1a89.067,89.067,0,0,1,13.492-1,65.072,65.072,0,0,1,13.922,1.428,49.923,49.923,0,0,1,12.066,4.284,46.03,46.03,0,0,1,10.209,7.139,52.561,52.561,0,0,1,8.353,9.993,66.029,66.029,0,0,1,7.839,16.533A68.821,68.821,0,0,1,305.5,57.683h1.712a23.089,23.089,0,0,1,10.28,2,12.284,12.284,0,0,1,3.426,2.5,11.765,11.765,0,0,1,2.284,3.5c.758,1.886,1.142,5.728,1.142,11.42,0,1.109-2.69,7.835-8,19.99a11.458,11.458,0,0,0-1.712,2.287l1.712-1.146a1.634,1.634,0,0,0,0-1.142c2.286-1.137,5.554-1.712,9.712-1.712a8.8,8.8,0,0,1,5.709,1.857,11.223,11.223,0,0,1,3.427,5.567,16,16,0,0,0,3.142,5.141,5.206,5.206,0,0,0,3.712,1.713c1.516,0,4.783-1.152,9.708-3.425,4.551-2.654,7.434-4,8.57-4a28.966,28.966,0,0,1,5.137,2.283,23.433,23.433,0,0,0,8,1.716,2.636,2.636,0,0,0,1.962-1.214,14.159,14.159,0,0,0,1.891-3.642,85.518,85.518,0,0,0,3.57-14.564,22.479,22.479,0,0,1,3.355-8.747,20.754,20.754,0,0,1,6.639-6.247,32.455,32.455,0,0,1,9.924-3.748,63.216,63.216,0,0,1,13.208-1.249,30.694,30.694,0,0,1,10.494,1.642,18.677,18.677,0,0,1,7.5,4.926,21.164,21.164,0,0,1,4.5,8.21A39.793,39.793,0,0,1,438,93.1a17.923,17.923,0,0,1-.571,5.708,2.589,2.589,0,0,0,.584.069,2.254,2.254,0,0,0,.557-.069,13.038,13.038,0,0,1,4-1.142,3.472,3.472,0,0,1,2.728.987,4.47,4.47,0,0,1,.7,3.583v6.854a20.311,20.311,0,0,1,5.569-1.713,44.837,44.837,0,0,1,7.568-.57,16.162,16.162,0,0,1,6.711,1.141,5.108,5.108,0,0,1,3,3.426,10.509,10.509,0,0,1-.571,5.712h4a17.657,17.657,0,0,1,6.283-2.712,51.333,51.333,0,0,1,9.707-1.283,25.419,25.419,0,0,1,7.748,1.07,14.049,14.049,0,0,1,5.533,3.212,13.424,13.424,0,0,1,3.32,5.354,23.131,23.131,0,0,1,1.107,7.5,23.525,23.525,0,0,1-.26,3.683Zm182.453-.255h0a26.692,26.692,0,0,1,1.83-10.953,22.488,22.488,0,0,1,6.165-8.466,24.1,24.1,0,0,1,6.425-3.857,18.357,18.357,0,0,1,6.712-1.285A4.055,4.055,0,0,1,712,110.23a11.4,11.4,0,0,1,2.427,3.428,10.347,10.347,0,0,0,3.14,3,7.281,7.281,0,0,0,3.713,1c.389,0,5.918-.987,15.99-2.854a15.89,15.89,0,0,1,4.748.642,8.656,8.656,0,0,1,3.392,1.927,8.031,8.031,0,0,1,2.035,3.212,13.606,13.606,0,0,1,.678,4.5,24.083,24.083,0,0,1-1.716,6.854C725.848,132.588,706.248,133.165,688.157,133.648Z" transform="translate(0 17.124)" fill="#fafafa"/><path d="M657.418,134.4h-114.7l.059-.553c.131-1.222.261-2.833.385-4.789a9.544,9.544,0,0,1,1.5-5.1,15.749,15.749,0,0,1,4.383-4.4c1.948-1.933,5.071-3.691,9.285-5.224,3.9-1.561,6.388-2.32,7.6-2.32.673,0,1.922.63,6.076,5.3a18.815,18.815,0,0,0,4.3,3.33,8.331,8.331,0,0,0,3.9,1.084,3.662,3.662,0,0,0,2.5-1.282,16.254,16.254,0,0,0,2.763-4.154l.018-.033a15.741,15.741,0,0,1,3.693-4.423,6.762,6.762,0,0,1,4.16-1.532c2.32,0,6,.962,10.946,2.858h4.941a32.088,32.088,0,0,1-1.395-7.763,16.476,16.476,0,0,1,1.034-6.775l0-.008a13.022,13.022,0,0,1,3.71-4.935,20.924,20.924,0,0,1,6.29-3.477,42.656,42.656,0,0,1,8.815-2.06,85.411,85.411,0,0,1,11.348-.683,37.687,37.687,0,0,1,7.09.616,22.151,22.151,0,0,1,5.7,1.864,15.128,15.128,0,0,1,4.282,3.138,14.356,14.356,0,0,1,2.812,4.4l.012.033c.775,2.331,1.167,8.342,1.167,17.864,0,7.842-.743,14.129-2.208,18.685l-.012.033-.126.314Zm-113.591-1H657.051c1.361-4.43,2.051-10.493,2.051-18.033,0-9.392-.374-15.291-1.111-17.533a13.357,13.357,0,0,0-2.608-4.079,14.136,14.136,0,0,0-4-2.929,21.16,21.16,0,0,0-5.44-1.777,36.7,36.7,0,0,0-6.9-.6,84.412,84.412,0,0,0-11.214.674,41.662,41.662,0,0,0-8.606,2.009,19.938,19.938,0,0,0-5.991,3.3,12.032,12.032,0,0,0-3.428,4.551,15.489,15.489,0,0,0-.963,6.363,31.958,31.958,0,0,0,1.547,8.153l.2.649h-6.481l-.087-.033c-4.872-1.874-8.463-2.825-10.674-2.825a5.789,5.789,0,0,0-3.55,1.325,14.745,14.745,0,0,0-3.436,4.129,17.174,17.174,0,0,1-2.941,4.4,4.6,4.6,0,0,1-3.21,1.575,9.313,9.313,0,0,1-4.375-1.2,19.813,19.813,0,0,1-4.544-3.515l-.02-.021a51.116,51.116,0,0,0-3.668-3.808c-1.256-1.131-1.631-1.166-1.67-1.166-.736,0-2.59.391-7.239,2.252l-.015.006c-4.1,1.492-7.116,3.183-8.958,5.025l-.031.031-.036.025a14.8,14.8,0,0,0-4.145,4.137,8.558,8.558,0,0,0-1.35,4.59v.032C544.052,130.8,543.94,132.245,543.827,133.4Zm-38.123,1H-1.042l.652-.813a23.925,23.925,0,0,1,5.755-4.927,31.919,31.919,0,0,1,8.408-4.344,28.428,28.428,0,0,1,9.009-1.454A29.8,29.8,0,0,1,31.5,124.03a17.355,17.355,0,0,1,6.3,3.382,12.37,12.37,0,0,0,3.272-1.894c1.893-1.324,4.472-3.33,7.668-5.959a67.694,67.694,0,0,1,7.763-6.04c2.166-1.379,3.89-2.078,5.125-2.078a12.865,12.865,0,0,1,4.6.748,7.471,7.471,0,0,1,3.191,2.275,6.67,6.67,0,0,0,2.907,1.568,17.483,17.483,0,0,0,4.717.551,8.653,8.653,0,0,0,3.646-.81,13.18,13.18,0,0,0,5.895-5.9,8.633,8.633,0,0,0,.812-3.6,83.252,83.252,0,0,1-1.716-14.328,18.558,18.558,0,0,1,.807-5.428A20.475,20.475,0,0,1,88.9,81.4a33.953,33.953,0,0,1,9.56-9.276,48.254,48.254,0,0,1,12.4-6.489,40.237,40.237,0,0,1,13.014-2.17,14.634,14.634,0,0,1,5.357,1,16.571,16.571,0,0,1,4.822,2.981,25.447,25.447,0,0,1,4.262,4.916,44.023,44.023,0,0,1,3.719,6.825l0,.006a7.943,7.943,0,0,1,.5,1.638c.376-.247.723-.483,1.039-.707a48.218,48.218,0,0,1,12.407-6.49,40.268,40.268,0,0,1,13.013-2.168,16.211,16.211,0,0,1,5.892,1.032,13.686,13.686,0,0,1,4.74,3.11l.025.025.021.029a35.6,35.6,0,0,1,2.814,4.509,121.826,121.826,0,0,1-2-21.342,58.564,58.564,0,0,1,1.333-12.639,50.588,50.588,0,0,1,4-11.429,51.582,51.582,0,0,1,6.668-10.2,61.746,61.746,0,0,1,9.319-8.962,72.723,72.723,0,0,1,10.565-7.041A71.383,71.383,0,0,1,223.95,3.523,76.838,76.838,0,0,1,236.525.505,89.573,89.573,0,0,1,250.093-.5,65.562,65.562,0,0,1,264.122.94a50.421,50.421,0,0,1,12.187,4.327,46.529,46.529,0,0,1,10.32,7.216,53.065,53.065,0,0,1,8.433,10.088,66.531,66.531,0,0,1,7.9,16.657,69.192,69.192,0,0,1,3.021,17.954h1.229a23.573,23.573,0,0,1,10.5,2.052,12.782,12.782,0,0,1,3.565,2.6,12.264,12.264,0,0,1,2.381,3.648l0,.01c.781,1.945,1.178,5.85,1.178,11.607,0,.744-.794,3.548-7.533,19.032a25.641,25.641,0,0,1,8.749-1.255,9.282,9.282,0,0,1,6.025,1.969,11.691,11.691,0,0,1,3.582,5.785,15.489,15.489,0,0,0,3.025,4.957,4.726,4.726,0,0,0,3.358,1.567c.991,0,3.44-.585,9.477-3.369,4.681-2.729,7.56-4.056,8.8-4.056.221,0,.682,0,5.337,2.324a22.915,22.915,0,0,0,7.8,1.675,2.187,2.187,0,0,0,1.571-1.025,13.692,13.692,0,0,0,1.816-3.509,85.062,85.062,0,0,0,3.545-14.472,22.971,22.971,0,0,1,3.431-8.937,21.25,21.25,0,0,1,6.8-6.4A32.95,32.95,0,0,1,400.7,67.584a63.713,63.713,0,0,1,13.314-1.26A31.187,31.187,0,0,1,424.678,68a19.17,19.17,0,0,1,7.693,5.059,21.657,21.657,0,0,1,4.606,8.4A40.288,40.288,0,0,1,438.5,93.1a23.881,23.881,0,0,1-.406,5.276,1.745,1.745,0,0,0,.325-.045,13.085,13.085,0,0,1,4.152-1.164,3.942,3.942,0,0,1,3.1,1.156,4.9,4.9,0,0,1,.822,3.945V108.3a22.073,22.073,0,0,1,4.983-1.421,45.33,45.33,0,0,1,7.654-.578,16.635,16.635,0,0,1,6.924,1.188,5.586,5.586,0,0,1,3.273,3.757,10.349,10.349,0,0,1-.375,5.334H472.1a18.422,18.422,0,0,1,6.326-2.7,51.814,51.814,0,0,1,9.8-1.3h.025a25.911,25.911,0,0,1,7.9,1.094,14.545,14.545,0,0,1,5.728,3.328,13.916,13.916,0,0,1,3.445,5.55,23.625,23.625,0,0,1,1.134,7.659,24.032,24.032,0,0,1-.266,3.763l-.068.421Zm-504.611-1H505.272a24.139,24.139,0,0,0,.192-3.184,22.64,22.64,0,0,0-1.079-7.334,12.929,12.929,0,0,0-3.195-5.157,13.555,13.555,0,0,0-5.339-3.1,24.911,24.911,0,0,0-7.582-1.046,50.811,50.811,0,0,0-9.6,1.268,17.173,17.173,0,0,0-6.1,2.627l-.133.1h-4.856l.219-.658a10.037,10.037,0,0,0,.56-5.434,4.631,4.631,0,0,0-2.728-3.094,15.691,15.691,0,0,0-6.5-1.093,44.34,44.34,0,0,0-7.482.563,19.82,19.82,0,0,0-5.431,1.668l-.724.362V102.2l0-.031a4.022,4.022,0,0,0-.575-3.19,3.007,3.007,0,0,0-2.353-.818,12.916,12.916,0,0,0-3.814,1.106l-.03.012-.031.008a2.892,2.892,0,0,1-1.378,0l-.579-.134.232-.548c.242-.571.531-1.992.531-5.513a39.3,39.3,0,0,0-1.477-11.348,20.669,20.669,0,0,0-4.388-8.019,18.179,18.179,0,0,0-7.3-4.794,30.2,30.2,0,0,0-10.322-1.612,62.724,62.724,0,0,0-13.1,1.238,31.961,31.961,0,0,0-9.771,3.687,20.261,20.261,0,0,0-6.482,6.1,21.985,21.985,0,0,0-3.278,8.554,85.985,85.985,0,0,1-3.6,14.658,14.63,14.63,0,0,1-1.966,3.774,3.1,3.1,0,0,1-2.354,1.4,23.918,23.918,0,0,1-8.175-1.748l-.025-.009-.023-.012c-3.993-1.994-4.775-2.213-4.922-2.231-.6,0-2.47.526-8.31,3.932l-.042.022c-5.062,2.336-8.306,3.471-9.917,3.471a5.685,5.685,0,0,1-4.065-1.859,16.479,16.479,0,0,1-3.25-5.3l-.016-.045a10.739,10.739,0,0,0-3.264-5.326,8.311,8.311,0,0,0-5.394-1.745,22.809,22.809,0,0,0-9.134,1.492,1.944,1.944,0,0,1-.117,1.056l-.058.138-3.6,2.407,1.048-1.84a11.955,11.955,0,0,1,1.582-2.169l-.04-.128.22-.109c2.6-5.965,4.59-10.66,5.909-13.956,1.78-4.451,1.973-5.446,1.973-5.667,0-5.622-.371-9.4-1.1-11.228a11.263,11.263,0,0,0-2.184-3.348,11.782,11.782,0,0,0-3.288-2.4,22.605,22.605,0,0,0-10.057-1.947h-2.2L305,57.7A68.315,68.315,0,0,0,302,39.526a65.529,65.529,0,0,0-7.779-16.408,52.072,52.072,0,0,0-8.274-9.9,45.531,45.531,0,0,0-10.1-7.061,49.423,49.423,0,0,0-11.945-4.24A64.572,64.572,0,0,0,250.093.5a88.57,88.57,0,0,0-13.416.994,75.84,75.84,0,0,0-12.411,2.978,70.378,70.378,0,0,0-11.413,4.962,71.728,71.728,0,0,0-10.423,6.947,60.749,60.749,0,0,0-9.172,8.819,50.574,50.574,0,0,0-6.539,10,49.576,49.576,0,0,0-3.923,11.2,57.554,57.554,0,0,0-1.309,12.423,122.237,122.237,0,0,0,2.279,22.751l.113.594h-1.484l-.138-.276a37.864,37.864,0,0,0-3.361-5.607,12.689,12.689,0,0,0-4.37-2.86,15.221,15.221,0,0,0-5.529-.964A39.267,39.267,0,0,0,156.3,74.579a47.221,47.221,0,0,0-12.15,6.358c-.507.359-1.09.748-1.736,1.157l-.689.437-.076-.812a7.078,7.078,0,0,0-.535-2.128,43.017,43.017,0,0,0-3.632-6.669A24.454,24.454,0,0,0,133.4,68.2a15.578,15.578,0,0,0-4.53-2.8,13.636,13.636,0,0,0-4.992-.93,39.241,39.241,0,0,0-12.691,2.116,47.267,47.267,0,0,0-12.15,6.361l-.009.006a32.976,32.976,0,0,0-9.286,8.994,19.469,19.469,0,0,0-2.3,4.872,17.556,17.556,0,0,0-.764,5.136,82.5,82.5,0,0,0,1.708,14.189l.009.046v.047a9.625,9.625,0,0,1-.9,4.064A14.17,14.17,0,0,1,81.1,116.68a9.644,9.644,0,0,1-4.065.9,18.461,18.461,0,0,1-4.991-.59,7.623,7.623,0,0,1-3.358-1.84l-.02-.02-.017-.022a6.481,6.481,0,0,0-2.788-1.989,11.884,11.884,0,0,0-4.245-.681c-.716,0-2.094.333-4.588,1.921a66.784,66.784,0,0,0-7.648,5.954l-.012.01c-8.831,7.268-10.931,8.109-11.741,8.109h-.19l-.142-.126a16.268,16.268,0,0,0-6.1-3.324,28.81,28.81,0,0,0-8.42-1.121,27.432,27.432,0,0,0-8.693,1.4,30.929,30.929,0,0,0-8.153,4.216l-.02.014A24.966,24.966,0,0,0,1.093,133.4Zm687.071.745h-1.075l.563-.676a27.087,27.087,0,0,1,1.872-10.967,22.982,22.982,0,0,1,6.3-8.653l.011-.009a24.593,24.593,0,0,1,6.56-3.935,18.853,18.853,0,0,1,6.894-1.319,4.538,4.538,0,0,1,3.046,1.269,11.828,11.828,0,0,1,2.524,3.542,9.827,9.827,0,0,0,2.963,2.825,6.787,6.787,0,0,0,3.457.93c.282-.014,2.731-.4,15.9-2.846l.045-.008h.046a16.386,16.386,0,0,1,4.9.665,9.15,9.15,0,0,1,3.585,2.041,8.525,8.525,0,0,1,2.163,3.409,14.1,14.1,0,0,1,.707,4.663,24.461,24.461,0,0,1-1.746,7.022l-.115.32-.34.011c-20.55.656-40.151,1.234-58.257,1.717Zm8.311-19.537a21.992,21.992,0,0,0-6.025,8.274,25.931,25.931,0,0,0-1.8,10.25c17.863-.477,37.174-1.047,57.407-1.692a22.689,22.689,0,0,0,1.574-6.365,13.113,13.113,0,0,0-.65-4.331,7.537,7.537,0,0,0-1.907-3.015,8.161,8.161,0,0,0-3.2-1.813,15.349,15.349,0,0,0-4.552-.619c-15.4,2.854-15.877,2.854-16.036,2.854a7.775,7.775,0,0,1-3.965-1.066,10.84,10.84,0,0,1-3.3-3.139l-.023-.032-.017-.035a10.916,10.916,0,0,0-2.312-3.278,3.573,3.573,0,0,0-2.381-1.016,17.859,17.859,0,0,0-6.529,1.25A23.6,23.6,0,0,0,696.475,114.611Z" transform="translate(0 17.124)" fill="rgba(0,0,0,0)"/></g></g></svg>