<svg xmlns="http://www.w3.org/2000/svg" width="35" height="35" viewBox="0 0 35 35"><path d="M25.993,13.007a1.75,1.75,0,0,0-2.485,0L19.5,17.032l-4.007-4.025a1.757,1.757,0,0,0-2.485,2.485L17.032,19.5l-4.025,4.007a1.757,1.757,0,1,0,2.485,2.485L19.5,21.967l4.007,4.025a1.757,1.757,0,1,0,2.485-2.485L21.967,19.5l4.025-4.007a1.75,1.75,0,0,0,0-2.485ZM31.75,2H7.25A5.25,5.25,0,0,0,2,7.25v24.5A5.25,5.25,0,0,0,7.25,37h24.5A5.25,5.25,0,0,0,37,31.75V7.25A5.25,5.25,0,0,0,31.75,2ZM33.5,31.75a1.75,1.75,0,0,1-1.75,1.75H7.25A1.75,1.75,0,0,1,5.5,31.75V7.25A1.75,1.75,0,0,1,7.25,5.5h24.5A1.75,1.75,0,0,1,33.5,7.25Z" transform="translate(-2 -2)" fill="#000000"/></svg>
