<svg xmlns="http://www.w3.org/2000/svg" width="1215.712" height="254.174" viewBox="0 0 1215.712 254.174"><g transform="translate(116.712 -133.56)"><g opacity="0.44"><path d="M281,83.123a5.542,5.542,0,0,1,.321-1.853h-1.349c-2.135,3.136-7.363,5.353-13.474,5.353a22.108,22.108,0,0,1-8.308-1.533c-3.132,3.746-15.013,6.532-29.192,6.532-9.508,0-17.981-1.253-23.478-3.208-2.932,1.955-7.451,3.208-12.521,3.208-5.714,0-10.729-1.591-13.561-3.985A18.506,18.506,0,0,1,167.5,91.622c-6.722,0-12.443-3.036-14.591-7.281A25.073,25.073,0,0,1,142,86.623a25.579,25.579,0,0,1-10.386-2.035c-2.5,2.968-8.1,5.035-14.614,5.035-5.715,0-10.729-1.592-13.56-3.986A18.5,18.5,0,0,1,91.5,89.624c-7.276,0-13.379-3.557-15.049-8.353H0a14.264,14.264,0,0,1,3.427-2.93,19.082,19.082,0,0,1,5.029-2.6,16.99,16.99,0,0,1,5.372-.866,17.706,17.706,0,0,1,5.2.694,10.176,10.176,0,0,1,3.814,2.08c.688,0,3.02-1.634,6.935-4.854a40.814,40.814,0,0,1,4.678-3.64A6.293,6.293,0,0,1,37.4,67.942a7.519,7.519,0,0,1,2.687.432,4.223,4.223,0,0,1,1.819,1.3,4.355,4.355,0,0,0,1.908,1.04,10.936,10.936,0,0,0,2.946.346,5.547,5.547,0,0,0,2.34-.519,8.3,8.3,0,0,0,3.727-3.727,5.549,5.549,0,0,0,.521-2.34A50.235,50.235,0,0,1,52.3,55.809,10.979,10.979,0,0,1,52.78,52.6a12.252,12.252,0,0,1,1.43-3.034,20.334,20.334,0,0,1,5.722-5.544,28.931,28.931,0,0,1,7.451-3.9,24.093,24.093,0,0,1,7.8-1.3,8.572,8.572,0,0,1,3.141.586,9.751,9.751,0,0,1,2.839,1.756A15.126,15.126,0,0,1,83.7,44.088a26.4,26.4,0,0,1,2.231,4.1,4.608,4.608,0,0,1,.349,1.385c.385-.243.734-.476,1.04-.692a29,29,0,0,1,7.452-3.9,24.141,24.141,0,0,1,7.8-1.3,9.571,9.571,0,0,1,3.466.606,8,8,0,0,1,2.771,1.819,23.315,23.315,0,0,1,2.082,3.466h.347a74.473,74.473,0,0,1-1.389-13.863,35.315,35.315,0,0,1,.8-7.605,30.393,30.393,0,0,1,2.407-6.87,31.028,31.028,0,0,1,4.007-6.129,37.06,37.06,0,0,1,5.611-5.4,43.952,43.952,0,0,1,6.37-4.246,43,43,0,0,1,6.976-3.032A46.152,46.152,0,0,1,143.6.606,53.991,53.991,0,0,1,151.791,0a39.423,39.423,0,0,1,8.45.866,30.315,30.315,0,0,1,7.323,2.6,27.957,27.957,0,0,1,6.2,4.333,31.88,31.88,0,0,1,5.07,6.064A40.108,40.108,0,0,1,183.587,23.9a41.8,41.8,0,0,1,1.831,11.109h1.04a14.013,14.013,0,0,1,6.238,1.213,7.476,7.476,0,0,1,2.079,1.517,7.154,7.154,0,0,1,1.387,2.125c.459,1.146.692,3.478.692,6.933,0,.673-1.631,4.755-4.851,12.133a6.838,6.838,0,0,0-1.04,1.387l1.04-.694a1.018,1.018,0,0,0,0-.692,13.559,13.559,0,0,1,5.893-1.04,5.343,5.343,0,0,1,3.466,1.126,6.807,6.807,0,0,1,2.08,3.379,9.731,9.731,0,0,0,1.908,3.119,3.156,3.156,0,0,0,2.253,1.04c.919,0,2.9-.7,5.891-2.079,2.762-1.61,4.512-2.427,5.2-2.427a17.545,17.545,0,0,1,3.117,1.385,14.2,14.2,0,0,0,4.855,1.042,1.6,1.6,0,0,0,1.191-.736,8.7,8.7,0,0,0,1.148-2.21,52.039,52.039,0,0,0,2.166-8.84,13.665,13.665,0,0,1,2.036-5.309,12.577,12.577,0,0,1,4.031-3.79,19.68,19.68,0,0,1,6.021-2.275,38.382,38.382,0,0,1,8.018-.76,18.583,18.583,0,0,1,6.369,1,11.335,11.335,0,0,1,4.549,2.989,12.86,12.86,0,0,1,2.73,4.983,24.162,24.162,0,0,1,.91,6.976,10.929,10.929,0,0,1-.345,3.464,1.554,1.554,0,0,0,.353.042,1.38,1.38,0,0,0,.339-.042,7.924,7.924,0,0,1,2.427-.692,2.1,2.1,0,0,1,1.655.6,2.715,2.715,0,0,1,.424,2.174v4.159a12.318,12.318,0,0,1,3.379-1.038,27.065,27.065,0,0,1,4.593-.347,9.805,9.805,0,0,1,4.074.692,3.1,3.1,0,0,1,1.821,2.08,6.363,6.363,0,0,1-.347,3.466h2.425a10.7,10.7,0,0,1,3.813-1.646,31.224,31.224,0,0,1,5.893-.779,15.457,15.457,0,0,1,4.7.649,8.519,8.519,0,0,1,3.358,1.949,8.144,8.144,0,0,1,2.016,3.25,14.029,14.029,0,0,1,.671,4.551q0,.5-.026.968a5.835,5.835,0,0,1,.938,3.12c0,4.693-6.043,8.5-13.5,8.5S281,87.816,281,83.123Zm88.911,4.086a25.824,25.824,0,0,1-5.362.933,21.664,21.664,0,0,1-10.361-1.569,20.844,20.844,0,0,1-11.109,1.121c-5.948-.836-10.742-3.469-12.269-6.423h-1.078c.079-.746.16-1.73.235-2.93a5.493,5.493,0,0,1,.866-2.946,9.312,9.312,0,0,1,2.6-2.6,15.33,15.33,0,0,1,5.548-3.119,16.855,16.855,0,0,1,4.506-1.389c.46,0,1.625,1.049,3.468,3.121a11.748,11.748,0,0,0,2.685,2.079,5.346,5.346,0,0,0,2.514.695,2.5,2.5,0,0,0,1.732-.868,10.1,10.1,0,0,0,1.734-2.6,9.261,9.261,0,0,1,2.166-2.6,3.806,3.806,0,0,1,2.34-.868,21.219,21.219,0,0,1,6.587,1.736h3.464a19.782,19.782,0,0,1-.953-5.027,9.716,9.716,0,0,1,.605-3.989A7.634,7.634,0,0,1,372,57.087a12.4,12.4,0,0,1,3.727-2.058,25.645,25.645,0,0,1,5.287-1.235,51.64,51.64,0,0,1,6.846-.413,22.538,22.538,0,0,1,4.246.369,13.168,13.168,0,0,1,3.381,1.1A8.931,8.931,0,0,1,398,56.7a8.449,8.449,0,0,1,1.646,2.579c.46,1.385.692,5,.692,10.746a43.111,43.111,0,0,1-.946,9.9,3.588,3.588,0,0,1,.263,2.051c-.489,2.776-4.388,4.41-8.7,3.648a10.878,10.878,0,0,1-4.78-2.032,9.826,9.826,0,0,1-1.459-.55c-.715,3.146-4.033,5.68-8.183,5.971-.262.019-.522.027-.779.027A9.784,9.784,0,0,1,369.913,87.209Zm48.866-12.741a13.7,13.7,0,0,1,3.743-5.139,14.587,14.587,0,0,1,3.9-2.34,11.108,11.108,0,0,1,4.074-.781,2.463,2.463,0,0,1,1.646.694,6.868,6.868,0,0,1,1.474,2.082,6.329,6.329,0,0,0,1.906,1.819,4.44,4.44,0,0,0,2.255.606c.234,0,3.59-.6,9.7-1.732a9.665,9.665,0,0,1,2.882.389,5.264,5.264,0,0,1,2.058,1.17,4.868,4.868,0,0,1,1.235,1.949,8.232,8.232,0,0,1,.413,2.73,14.648,14.648,0,0,1-1.042,4.159c-12.482.4-24.376.75-35.357,1.042A16.242,16.242,0,0,1,418.779,74.468Z" transform="translate(125.957 281.753)" fill="#fff"/><path d="M294.5,92.122a18.627,18.627,0,0,1-9.811-2.566c-2.7-1.7-4.187-3.985-4.187-6.433a5.987,5.987,0,0,1,.155-1.353h-.424a12.116,12.116,0,0,1-5.317,3.816,23.855,23.855,0,0,1-16.584.1c-3.626,3.805-15.549,6.438-29.331,6.438-9.12,0-17.631-1.148-23.411-3.155-3.133,2.007-7.7,3.155-12.588,3.155-5.457,0-10.482-1.429-13.557-3.838A19.228,19.228,0,0,1,167.5,92.122a20.474,20.474,0,0,1-9.237-2.1A13.061,13.061,0,0,1,152.7,85,26.039,26.039,0,0,1,142,87.123a26.547,26.547,0,0,1-10.253-1.929,14.2,14.2,0,0,1-5.768,3.5A27.439,27.439,0,0,1,117,90.124c-5.458,0-10.482-1.429-13.556-3.839A19.22,19.22,0,0,1,91.5,90.124a20.134,20.134,0,0,1-9.872-2.442,12.182,12.182,0,0,1-5.524-5.911H-1.044l.654-.813a14.74,14.74,0,0,1,3.536-3.031A19.588,19.588,0,0,1,8.3,75.266a17.483,17.483,0,0,1,5.53-.891,18.2,18.2,0,0,1,5.346.717,10.769,10.769,0,0,1,3.809,2.02A9.252,9.252,0,0,0,24.844,76c1.138-.8,2.688-2,4.606-3.582a41.251,41.251,0,0,1,4.733-3.681A6.611,6.611,0,0,1,37.4,67.442a8.014,8.014,0,0,1,2.867.465,4.723,4.723,0,0,1,2.011,1.434,3.9,3.9,0,0,0,1.673.894,10.45,10.45,0,0,0,2.808.326,5.052,5.052,0,0,0,2.13-.473,7.8,7.8,0,0,0,3.482-3.482,5.057,5.057,0,0,0,.475-2.085A50.485,50.485,0,0,1,51.8,55.809a11.475,11.475,0,0,1,.5-3.352A12.755,12.755,0,0,1,53.79,49.3a20.824,20.824,0,0,1,5.855-5.682,29.426,29.426,0,0,1,7.577-3.964,24.6,24.6,0,0,1,7.962-1.329,9.075,9.075,0,0,1,3.323.62,10.251,10.251,0,0,1,2.985,1.845,15.611,15.611,0,0,1,2.619,3.02,26.9,26.9,0,0,1,2.275,4.173l0,.006a5.018,5.018,0,0,1,.253.749q.2-.137.387-.267a29.485,29.485,0,0,1,7.58-3.964,24.643,24.643,0,0,1,7.962-1.327,10.069,10.069,0,0,1,3.647.64,8.5,8.5,0,0,1,2.945,1.932l.025.025.021.029a19.479,19.479,0,0,1,1.165,1.766,73.082,73.082,0,0,1-1.025-11.864,35.815,35.815,0,0,1,.813-7.713,30.886,30.886,0,0,1,2.447-6.983,31.527,31.527,0,0,1,4.072-6.228,37.563,37.563,0,0,1,5.686-5.469A44.446,44.446,0,0,1,128.8,5.02a43.5,43.5,0,0,1,7.057-3.068A46.661,46.661,0,0,1,143.528.112,54.491,54.491,0,0,1,151.791-.5a39.925,39.925,0,0,1,8.558.878,30.814,30.814,0,0,1,7.444,2.644,28.453,28.453,0,0,1,6.308,4.41,32.377,32.377,0,0,1,5.15,6.159,40.6,40.6,0,0,1,4.815,10.16A42.171,42.171,0,0,1,185.9,34.509h.558a14.5,14.5,0,0,1,6.462,1.266,7.977,7.977,0,0,1,2.218,1.62,7.656,7.656,0,0,1,1.484,2.272l0,.011c.49,1.223.728,3.551.728,7.119,0,.324,0,1.067-4.409,11.221a16.713,16.713,0,0,1,4.95-.628,5.831,5.831,0,0,1,3.781,1.238,7.275,7.275,0,0,1,2.235,3.6,9.223,9.223,0,0,0,1.791,2.937,2.674,2.674,0,0,0,1.9.893c.583,0,2.039-.351,5.66-2.023,3.821-2.225,4.931-2.483,5.434-2.483.184,0,.462,0,3.317,1.426a13.674,13.674,0,0,0,4.655,1c.3,0,.6-.3.8-.547a8.234,8.234,0,0,0,1.073-2.078,51.571,51.571,0,0,0,2.14-8.748,14.158,14.158,0,0,1,2.112-5.5,13.078,13.078,0,0,1,4.189-3.941,20.173,20.173,0,0,1,6.173-2.335,38.875,38.875,0,0,1,8.123-.771,19.08,19.08,0,0,1,6.541,1.029,11.827,11.827,0,0,1,4.747,3.121,13.352,13.352,0,0,1,2.84,5.175,24.663,24.663,0,0,1,.931,7.122,17.34,17.34,0,0,1-.186,2.94,7.713,7.713,0,0,1,2.46-.668,2.571,2.571,0,0,1,2.031.77,3.151,3.151,0,0,1,.548,2.534v3.358a14.049,14.049,0,0,1,2.794-.76,27.568,27.568,0,0,1,4.679-.355,10.284,10.284,0,0,1,4.286.74,3.58,3.58,0,0,1,2.093,2.41,6.223,6.223,0,0,1-.159,3.088h1.589a11.475,11.475,0,0,1,3.855-1.631,31.718,31.718,0,0,1,5.989-.794h.025a15.947,15.947,0,0,1,4.854.673,9.016,9.016,0,0,1,3.553,2.066,8.64,8.64,0,0,1,2.141,3.446,14.525,14.525,0,0,1,.7,4.714c0,.286-.006.567-.019.839a6.271,6.271,0,0,1,.93,3.249c0,2.448-1.487,4.733-4.187,6.433A18.633,18.633,0,0,1,294.5,92.122ZM279.71,80.771h2.32l-.235.666a5.057,5.057,0,0,0-.293,1.686c0,2.092,1.321,4.076,3.72,5.586a19.051,19.051,0,0,0,18.559,0c2.4-1.51,3.72-3.494,3.72-5.586a5.327,5.327,0,0,0-.861-2.854l-.084-.135.009-.158c.017-.3.025-.618.025-.941a13.538,13.538,0,0,0-.644-4.388,7.65,7.65,0,0,0-1.891-3.053,8.026,8.026,0,0,0-3.164-1.833,14.944,14.944,0,0,0-4.535-.625,30.709,30.709,0,0,0-5.785.764,10.228,10.228,0,0,0-3.635,1.56l-.133.1h-3.286l.22-.658a5.887,5.887,0,0,0,.336-3.187,2.625,2.625,0,0,0-1.548-1.748,9.341,9.341,0,0,0-3.861-.645,26.585,26.585,0,0,0-4.507.34,11.823,11.823,0,0,0-3.242.992l-.724.362v-5l0-.031a2.3,2.3,0,0,0-.3-1.782,1.639,1.639,0,0,0-1.28-.43,7.3,7.3,0,0,0-2.242.657l-.031.012-.032.008a1.972,1.972,0,0,1-.929,0l-.576-.136.23-.545a9.93,9.93,0,0,0,.306-3.27,23.674,23.674,0,0,0-.888-6.831,12.364,12.364,0,0,0-2.622-4.792,10.838,10.838,0,0,0-4.351-2.856,18.094,18.094,0,0,0-6.2-.968,37.883,37.883,0,0,0-7.912.749,19.184,19.184,0,0,0-5.868,2.214,12.087,12.087,0,0,0-3.873,3.639,13.171,13.171,0,0,0-1.959,5.116,52.487,52.487,0,0,1-2.192,8.934,9.177,9.177,0,0,1-1.223,2.342,2.063,2.063,0,0,1-1.584.926,14.68,14.68,0,0,1-5.031-1.074l-.024-.009-.023-.012a20.543,20.543,0,0,0-2.915-1.332c-.3.012-1.366.282-4.929,2.358l-.042.022c-3.1,1.43-5.091,2.125-6.1,2.125A3.633,3.633,0,0,1,205,65.868a10.213,10.213,0,0,1-2.015-3.279l-.017-.046a6.324,6.324,0,0,0-1.917-3.138A4.859,4.859,0,0,0,197.9,58.39a13.967,13.967,0,0,0-5.335.833,1.37,1.37,0,0,1-.095.588l-.058.142L189.485,61.9l1.044-1.836a7.362,7.362,0,0,1,.911-1.269l-.04-.129.218-.108c4.249-9.744,4.729-11.476,4.737-11.768,0-4.209-.355-5.988-.654-6.739a6.657,6.657,0,0,0-1.288-1.972,6.98,6.98,0,0,0-1.941-1.415,13.53,13.53,0,0,0-6.014-1.16h-1.524l-.015-.484a41.307,41.307,0,0,0-1.809-10.977,39.606,39.606,0,0,0-4.7-9.911,31.381,31.381,0,0,0-4.991-5.971,27.453,27.453,0,0,0-6.086-4.255,29.816,29.816,0,0,0-7.2-2.557A38.931,38.931,0,0,0,151.791.5a53.5,53.5,0,0,0-8.111.6,45.667,45.667,0,0,0-7.5,1.8,42.5,42.5,0,0,0-6.895,3,43.457,43.457,0,0,0-6.3,4.2,36.575,36.575,0,0,0-5.539,5.326,30.529,30.529,0,0,0-3.943,6.03,29.889,29.889,0,0,0-2.367,6.757,34.812,34.812,0,0,0-.789,7.5,73.954,73.954,0,0,0,1.38,13.77l.113.594h-1.26l-.138-.276a22.93,22.93,0,0,0-2.014-3.362,7.5,7.5,0,0,0-2.574-1.681,9.075,9.075,0,0,0-3.285-.572,23.644,23.644,0,0,0-7.64,1.274,28.491,28.491,0,0,0-7.322,3.832c-.319.226-.676.464-1.063.708l-.689.434-.076-.811a4.1,4.1,0,0,0-.31-1.232,25.892,25.892,0,0,0-2.187-4.015,14.614,14.614,0,0,0-2.448-2.828,9.255,9.255,0,0,0-2.693-1.667,8.08,8.08,0,0,0-2.959-.551A23.6,23.6,0,0,0,67.545,40.6a28.43,28.43,0,0,0-7.322,3.833l-.009.006a19.85,19.85,0,0,0-5.584,5.4,11.752,11.752,0,0,0-1.372,2.909,10.474,10.474,0,0,0-.454,3.059,49.734,49.734,0,0,0,1.033,8.574l.009.046v.047a6.046,6.046,0,0,1-.567,2.549A8.793,8.793,0,0,1,49.309,71a6.044,6.044,0,0,1-2.549.565,11.429,11.429,0,0,1-3.083-.365,4.848,4.848,0,0,1-2.124-1.166l-.02-.02-.018-.022a3.73,3.73,0,0,0-1.608-1.147,7.032,7.032,0,0,0-2.507-.4,5.638,5.638,0,0,0-2.679,1.135A40.33,40.33,0,0,0,30.1,73.171l-.012.01c-5.322,4.377-6.652,4.967-7.252,4.967h-.19l-.142-.126a9.676,9.676,0,0,0-3.629-1.975,17.21,17.21,0,0,0-5.051-.672,16.483,16.483,0,0,0-5.214.84,18.592,18.592,0,0,0-4.9,2.533l-.02.014a15.812,15.812,0,0,0-2.57,2.009H76.808l.117.336a11.011,11.011,0,0,0,5.2,5.7A19.134,19.134,0,0,0,91.5,89.124a18.018,18.018,0,0,0,11.614-3.866l.323-.277.325.275a15.52,15.52,0,0,0,5.519,2.794A27.219,27.219,0,0,0,117,89.124c6.163,0,11.749-1.907,14.232-4.857l.244-.29.345.157A25.224,25.224,0,0,0,142,86.123a24.614,24.614,0,0,0,10.686-2.23l.444-.22.224.442c2.12,4.191,7.8,7.007,14.145,7.007a18.025,18.025,0,0,0,11.616-3.865l.323-.277.325.275a15.53,15.53,0,0,0,5.52,2.793A27.227,27.227,0,0,0,193,91.122c4.8,0,9.267-1.139,12.244-3.124l.209-.139.236.084c5.68,2.02,14.176,3.179,23.31,3.179a87.489,87.489,0,0,0,18.628-1.849c5.1-1.158,8.72-2.758,10.181-4.5l.235-.281.339.139a22.8,22.8,0,0,0,16.158.032,10.9,10.9,0,0,0,5.02-3.67Zm96.038,8.765h0a10.359,10.359,0,0,1-5.93-1.779,26.367,26.367,0,0,1-5.231.885c-.649.045-1.3.068-1.944.068a21.281,21.281,0,0,1-8.455-1.588,18.881,18.881,0,0,1-7.4,1.336,27.212,27.212,0,0,1-3.774-.269,24.407,24.407,0,0,1-7.957-2.471,11.19,11.19,0,0,1-4.538-3.948h-1.338l.059-.553c.082-.772.162-1.772.232-2.893a5.986,5.986,0,0,1,.942-3.194,9.77,9.77,0,0,1,2.7-2.72,15.881,15.881,0,0,1,5.692-3.2,16.729,16.729,0,0,1,4.684-1.421c.475,0,1.269.4,3.832,3.278a11.227,11.227,0,0,0,2.557,1.982,4.861,4.861,0,0,0,2.278.636,2.033,2.033,0,0,0,1.378-.721,9.634,9.634,0,0,0,1.642-2.47l.018-.033a9.748,9.748,0,0,1,2.29-2.739,4.293,4.293,0,0,1,2.644-.972,21.376,21.376,0,0,1,6.68,1.736h2.7a19.437,19.437,0,0,1-.781-4.507,10.214,10.214,0,0,1,.641-4.195l0-.009a8.133,8.133,0,0,1,2.308-3.069,12.89,12.89,0,0,1,3.876-2.144,26.146,26.146,0,0,1,5.391-1.261,52.11,52.11,0,0,1,6.914-.417,23.028,23.028,0,0,1,4.341.378,13.666,13.666,0,0,1,3.51,1.148,9.426,9.426,0,0,1,2.653,1.945,8.944,8.944,0,0,1,1.744,2.731l.012.033c.483,1.454.718,5.021.718,10.9a44.2,44.2,0,0,1-.922,9.859,4.026,4.026,0,0,1,.232,2.177,4.616,4.616,0,0,1-2.417,3.133,9.584,9.584,0,0,1-4.675,1.116,12.646,12.646,0,0,1-2.191-.195,11.513,11.513,0,0,1-4.925-2.071c-.308-.093-.609-.2-.9-.315A7.807,7.807,0,0,1,382.2,87.5a10.706,10.706,0,0,1-5.641,2.011C376.3,89.526,376.022,89.535,375.749,89.535Zm-5.736-2.876.2.149a9.286,9.286,0,0,0,5.534,1.727v.5l0-.5c.25,0,.5-.009.744-.026a9.844,9.844,0,0,0,5.117-1.818,6.621,6.621,0,0,0,2.613-3.765l.138-.608.563.267a9.341,9.341,0,0,0,1.385.522l.093.027.076.059a10.447,10.447,0,0,0,4.559,1.933,11.641,11.641,0,0,0,2.017.179c3.241,0,5.753-1.407,6.108-3.422a3.084,3.084,0,0,0-.231-1.768l-.065-.153.039-.161a42.691,42.691,0,0,0,.932-9.781c0-7.051-.358-9.642-.662-10.572a7.944,7.944,0,0,0-1.541-2.41,8.428,8.428,0,0,0-2.373-1.736,12.669,12.669,0,0,0-3.252-1.061,22.035,22.035,0,0,0-4.151-.36,51.114,51.114,0,0,0-6.779.408A25.152,25.152,0,0,0,375.9,55.5a11.9,11.9,0,0,0-3.577,1.971,7.146,7.146,0,0,0-2.027,2.686,9.228,9.228,0,0,0-.569,3.782,19.291,19.291,0,0,0,.93,4.9l.2.649H366.62l-.087-.033a20.814,20.814,0,0,0-6.408-1.7,3.32,3.32,0,0,0-2.035.764,8.756,8.756,0,0,0-2.033,2.445,10.556,10.556,0,0,1-1.82,2.712,2.971,2.971,0,0,1-2.085,1.014,5.843,5.843,0,0,1-2.749-.754,12.228,12.228,0,0,1-2.8-2.167l-.02-.021c-2.345-2.636-2.989-2.923-3.11-2.953a15.883,15.883,0,0,0-4.3,1.353l-.015.006a14.854,14.854,0,0,0-5.365,3l-.031.03-.035.025a8.826,8.826,0,0,0-2.461,2.456,5,5,0,0,0-.79,2.681v.031c-.056.891-.118,1.708-.182,2.4h.83l.14.27a9.993,9.993,0,0,0,4.267,3.794A23.4,23.4,0,0,0,343.15,87.2a26.211,26.211,0,0,0,3.635.259,17.876,17.876,0,0,0,7.2-1.339l.21-.1.209.1a20.017,20.017,0,0,0,8.241,1.589c.618,0,1.249-.022,1.874-.066a25.243,25.243,0,0,0,5.258-.915Zm47.17-5.032-.014-.5a16.738,16.738,0,0,1,1.148-6.851,14.2,14.2,0,0,1,3.877-5.327l.011-.009a15.083,15.083,0,0,1,4.035-2.419,11.6,11.6,0,0,1,4.256-.816,2.943,2.943,0,0,1,1.978.821,7.3,7.3,0,0,1,1.571,2.2,5.809,5.809,0,0,0,1.729,1.647,3.946,3.946,0,0,0,1.993.537c.209-.017,1.754-.267,9.623-1.724l.045-.008h.046a10.166,10.166,0,0,1,3.032.412,5.754,5.754,0,0,1,2.251,1.284,5.359,5.359,0,0,1,1.363,2.147,8.731,8.731,0,0,1,.441,2.9,14.814,14.814,0,0,1-1.071,4.327l-.115.321-.34.011c-12.671.4-24.568.755-35.36,1.042Zm5.662-11.918a13.208,13.208,0,0,0-3.6,4.948,15.484,15.484,0,0,0-1.08,5.943c10.559-.282,22.163-.624,34.507-1.018a12.678,12.678,0,0,0,.9-3.67,7.746,7.746,0,0,0-.384-2.564,4.371,4.371,0,0,0-1.107-1.753,4.764,4.764,0,0,0-1.864-1.056,9.127,9.127,0,0,0-2.686-.365c-9.354,1.732-9.622,1.732-9.75,1.732a4.936,4.936,0,0,1-2.506-.673,6.823,6.823,0,0,1-2.062-1.961l-.023-.032-.018-.036a6.39,6.39,0,0,0-1.358-1.93,1.979,1.979,0,0,0-1.314-.569,10.608,10.608,0,0,0-3.891.747A14.087,14.087,0,0,0,422.845,69.71Z" transform="translate(125.957 281.753)" fill="rgba(0,0,0,0)"/></g><g opacity="0.438"><path d="M189.972,190.893c-13.194-3.045-23.984-9.842-30-17.917q-1.835.724-3.755,1.349a58.172,58.172,0,0,1-24.461,2.714c-7.542,4.727-17.771,7.631-29.037,7.631-13.978,0-26.361-4.47-34-11.347a61.218,61.218,0,0,1-17.005,2.348c-14.677,0-27.6-4.93-35.1-12.4a33.8,33.8,0,0,1,24.3-62.145,39.475,39.475,0,0,1,70.46-21.657,47.74,47.74,0,0,1,44.583-15.234A64.329,64.329,0,0,1,276.168,32.464a61.735,61.735,0,0,1,7.5-.475,61.021,61.021,0,0,1,59.688,73.581,31.215,31.215,0,0,1-1.158,62.41c-.984,0-1.955-.059-2.915-.148v.148h-6.058c-4.484,8.595-18.892,14.357-35.627,13.481-12.27-.643-22.92-4.7-29.135-10.378-6.489,8.395-18.791,13.7-32.6,12.979a47.491,47.491,0,0,1-4.765-.49c-6.091,5.67-15.942,8.944-27.167,8.945A62.218,62.218,0,0,1,189.972,190.893Z" transform="translate(725.067 194.717)" fill="#fffcfc"/><path d="M203.935,193.018a62.692,62.692,0,0,1-14.075-1.637,60.649,60.649,0,0,1-17.839-7.132A44.2,44.2,0,0,1,159.8,173.58c-1.125.437-2.277.847-3.43,1.221a60.755,60.755,0,0,1-18.767,3.072,51.079,51.079,0,0,1-5.732-.317c-7.911,4.911-18.256,7.614-29.153,7.614a63.986,63.986,0,0,1-10.215-.812,57.479,57.479,0,0,1-9.323-2.309,43.062,43.062,0,0,1-14.585-8.169,61.584,61.584,0,0,1-16.878,2.291c-14.278,0-27.51-4.672-35.413-12.5a34.266,34.266,0,0,1-16.8-29.5A34.279,34.279,0,0,1,33.808,99.865a34.457,34.457,0,0,1,6.65.658,39.947,39.947,0,0,1,65.1-27.687A40.508,40.508,0,0,1,111.4,78.7a49.393,49.393,0,0,1,7-6.291,48.8,48.8,0,0,1,8.656-5.114,47.991,47.991,0,0,1,28.41-3.655,64.531,64.531,0,0,1,11.1-35.6A65.022,65.022,0,0,1,195.076,4.586,64.76,64.76,0,0,1,253.3,8.532a65.227,65.227,0,0,1,23.134,23.4,61.506,61.506,0,0,1,67.526,73.17,31.715,31.715,0,0,1-1.765,63.383c-.754,0-1.549-.034-2.415-.1v.1h-6.259a18.508,18.508,0,0,1-4.644,5.39,30.905,30.905,0,0,1-7.439,4.361,53.06,53.06,0,0,1-20.5,3.818c-1.114,0-2.249-.03-3.371-.089a59.589,59.589,0,0,1-16.983-3.331,38.163,38.163,0,0,1-12.063-6.819,32.856,32.856,0,0,1-12.4,9.209,44.356,44.356,0,0,1-17.755,3.609c-.837,0-1.687-.022-2.529-.066-1.534-.08-3.072-.235-4.577-.459a31.949,31.949,0,0,1-11.664,6.543A49.952,49.952,0,0,1,203.935,193.018Zm-43.793-20.647.229.307a42.919,42.919,0,0,0,12.169,10.716,59.651,59.651,0,0,0,17.545,7.013,61.689,61.689,0,0,0,13.85,1.612c11.034,0,20.812-3.212,26.826-8.811l.177-.165.24.037a47.2,47.2,0,0,0,4.715.485c.824.043,1.657.065,2.477.065a43.348,43.348,0,0,0,17.352-3.524,31.619,31.619,0,0,0,12.347-9.327l.332-.429.4.366a36.611,36.611,0,0,0,12.13,6.976,58.578,58.578,0,0,0,16.694,3.273c1.105.058,2.222.087,3.319.087a52.057,52.057,0,0,0,20.109-3.739,29.914,29.914,0,0,0,7.2-4.216,17.315,17.315,0,0,0,4.531-5.345l.14-.269h5.861v-.2l.547.051c1.052.1,1.99.146,2.868.146a30.715,30.715,0,0,0,1.139-61.41l-.593-.022.122-.58a60.989,60.989,0,0,0,1.3-12.484,60.209,60.209,0,0,0-10.332-33.823,60.674,60.674,0,0,0-26.617-21.918,60.114,60.114,0,0,0-23.547-4.754,60.776,60.776,0,0,0-7.439.471l-.33.04-.165-.289A64.224,64.224,0,0,0,252.793,9.392a63.731,63.731,0,0,0-68.164,1.991A64.027,64.027,0,0,0,161.5,39.424a63.434,63.434,0,0,0-5.044,24.813v.6l-.59-.108a47.27,47.27,0,0,0-36.878,8.484,48.394,48.394,0,0,0-7.242,6.592l-.4.443-.368-.468A39.3,39.3,0,0,0,97.635,68.9a38.994,38.994,0,0,0-56.222,32.261l-.04.575-.564-.121a33.554,33.554,0,0,0-7-.751,33.311,33.311,0,0,0-28.8,50.047,33.5,33.5,0,0,0,11.856,11.93l.054.032.044.044A40.159,40.159,0,0,0,31.645,171.8a59.8,59.8,0,0,0,20.07,3.369,60.494,60.494,0,0,0,16.866-2.328l.267-.078.207.186A41.856,41.856,0,0,0,83.5,181.1a56.468,56.468,0,0,0,9.16,2.268,62.987,62.987,0,0,0,10.055.8c10.78,0,21-2.683,28.771-7.555l.149-.093.175.02a49.962,49.962,0,0,0,5.791.331,59.756,59.756,0,0,0,18.458-3.024c1.254-.407,2.507-.858,3.726-1.339Z" transform="translate(725.067 194.717)" fill="rgba(0,0,0,0)"/></g><g opacity="0.44"><path d="M297.255,108.157c-9.067-.158-16.98-3.082-21.427-7.355a51.023,51.023,0,0,1-12.967,1.365,48.657,48.657,0,0,1-15.413-2.62c-1.955,3.45-8.884,5.91-17.086,5.768-6.637-.116-12.382-1.907-15.3-4.448a35.688,35.688,0,0,1-7.168,2.027c-7.28,1.283-13.868.317-16.908-2.154-2.88,1.376-8.042.3-13.386-2.756l-2.55-.025c-2.955,2.492-8.641,4.24-15.2,4.355-5.856.1-11.064-1.123-14.275-3.088-2.036,3.382-8.733,5.949-16.725,6.089-9.549.165-17.373-3.2-17.63-7.539q-19.961.1-36.987.433-46.544,1-74.224,1.2-.3-8.726,11.231-12.535T27.89,84.066q-.9-8.221,4.313-17.151,5.514-9.628,13.139-10.03,7.623-.5,11.936,7.621a66.741,66.741,0,0,1,9.53-14.441q9.829-11.637,22.97-11.937a23.423,23.423,0,0,1,10.229,1.806q.2-16.649,18.856-28.886Q135.114.415,152.063.014q26.98-.5,38.715,17.251a46.66,46.66,0,0,1,6.02,13.943c.468-.336.969-.668,1.5-1q10.03-5.517,18.254-5.617,11.732-.3,18.555,6.116a32.633,32.633,0,0,1,9.729-10.529q11.033-8.127,23.069-8.429,16.956-.294,23.17,12.842,3.106,6.623,3.111,16.349a46.824,46.824,0,0,1-.5,7.322,18.932,18.932,0,0,1,3.91-.2q16.053-.307,22.471,11.733a33.473,33.473,0,0,1,3.406,11.033,14.843,14.843,0,0,1,9.532-3.109q8.923-.2,11.936,7.322a29.108,29.108,0,0,1,2.006,9.027v.2a1.426,1.426,0,0,0,.6.1q.1,0,2.909-1.3,3.006-1.4,12.234,2.006,8.005,2.874,5.291,9.972c-.231,4.511-7.521,8.018-16.414,7.864a31.4,31.4,0,0,1-3.88-.306c-3.435,2.424-8.638,3.919-14.437,3.818-6-.1-11.307-1.9-14.64-4.589-4.5,3.844-12.043,6.336-20.594,6.336C297.766,108.163,297.512,108.161,297.255,108.157ZM417.861,95.6a3.21,3.21,0,0,1-.5-1.9q0-4.316,5.916-3.813T429.2,93.7a3.023,3.023,0,0,1-.7,2.2q-1.3,1.307-5.217,1.3Q419.164,97.207,417.861,95.6Zm-39.917-1.9q0-1.608,4.511-3.513a40.893,40.893,0,0,1,10.03-2.71q14.543-2.106,14.543,5.519,0,3.006-3.912,3.711H383.458l-2.006.5Q377.942,96.6,377.944,93.7Z" transform="translate(-116.212 134.06)" fill="#fff"/><path d="M298.02,108.663c-.263,0-.523,0-.773-.006a40.75,40.75,0,0,1-12.6-2.162,25.609,25.609,0,0,1-8.962-5.143,51.559,51.559,0,0,1-11.829,1.323c-.332,0-.668,0-1-.009a49.421,49.421,0,0,1-15.191-2.513c-1.078,1.611-3.141,2.992-6,4.01a32.179,32.179,0,0,1-10.624,1.658c-.226,0-.456,0-.683-.006-6.365-.111-12.217-1.78-15.389-4.372a36.226,36.226,0,0,1-6.988,1.944,36.892,36.892,0,0,1-6.377.575c-4.564,0-8.432-.96-10.688-2.643a7.777,7.777,0,0,1-2.945.513c-2.973,0-6.7-1.188-10.5-3.348l-2.237-.022a18.148,18.148,0,0,1-6.286,3.047,35.082,35.082,0,0,1-9.081,1.306c-.229,0-.461.006-.69.006-5.287,0-10.147-1.061-13.438-2.922a12.891,12.891,0,0,1-6.111,4.058,33.17,33.17,0,0,1-10.76,1.86c-.226,0-.456.006-.682.006a30.548,30.548,0,0,1-12.053-2.225c-3.115-1.384-4.992-3.257-5.349-5.317-13.065.068-25.354.213-36.533.431-30.941.667-55.916,1.071-74.23,1.2l-.487,0-.017-.486a10.815,10.815,0,0,1,2.785-7.847c1.922-2.145,4.879-3.888,8.789-5.18,6.112-2.02,10.957-3.045,14.4-3.045a14.339,14.339,0,0,1,1.849.112,24.427,24.427,0,0,1,.7-7.925,34.353,34.353,0,0,1,3.739-8.881A24.71,24.71,0,0,1,37.942,59.2a13.149,13.149,0,0,1,7.372-2.81c.3-.02.6-.03.9-.03,4.58,0,8.289,2.378,11.036,7.072A68.08,68.08,0,0,1,66.428,49.74a36.143,36.143,0,0,1,10.806-8.921,28.367,28.367,0,0,1,12.532-3.192c.2,0,.405,0,.6,0a24.339,24.339,0,0,1,9.156,1.556,28.771,28.771,0,0,1,1.258-7.443,30.473,30.473,0,0,1,3.619-7.623c3.166-4.85,7.938-9.387,14.185-13.485A71.7,71.7,0,0,1,135.13,2.5,57.954,57.954,0,0,1,152.052-.486c.5-.009.994-.014,1.481-.014A63.859,63.859,0,0,1,165.644.588a44.951,44.951,0,0,1,10.328,3.274,36.62,36.62,0,0,1,8.526,5.47,37.088,37.088,0,0,1,6.7,7.657l0,.007a47.524,47.524,0,0,1,5.9,13.389c.29-.2.6-.4.933-.6l.024-.014a52.116,52.116,0,0,1,9.672-4.2,31.447,31.447,0,0,1,8.812-1.476c.355-.009.713-.014,1.062-.014a30.389,30.389,0,0,1,10.038,1.561,21.884,21.884,0,0,1,7.341,4.277,33.723,33.723,0,0,1,9.561-10.143,45.908,45.908,0,0,1,11.406-6.234,37.546,37.546,0,0,1,11.943-2.29c.254,0,.505-.007.751-.007a27.964,27.964,0,0,1,14.032,3.278,21.746,21.746,0,0,1,8.851,9.857c2.1,4.47,3.159,10.042,3.159,16.562a49.661,49.661,0,0,1-.408,6.735,19.451,19.451,0,0,1,2.314-.138c.334,0,.674.009,1.011.026.262,0,.525-.007.784-.007a27.842,27.842,0,0,1,13.368,3,21.466,21.466,0,0,1,8.752,9.009,33.513,33.513,0,0,1,3.331,10.353A15.851,15.851,0,0,1,333,67.217c.155,0,.314-.005.469-.005,5.893,0,9.909,2.569,11.937,7.636a29.592,29.592,0,0,1,2.03,9.016l.042,0c.177-.069.787-.335,2.773-1.256a5.944,5.944,0,0,1,2.491-.455c2.327,0,5.734.823,10.127,2.445,2.932,1.053,4.867,2.558,5.747,4.474a7.749,7.749,0,0,1-.135,6.073c-.156,2.291-1.944,4.395-5.045,5.932a26.057,26.057,0,0,1-11.3,2.331c-.189,0-.381,0-.571,0a32.06,32.06,0,0,1-3.747-.283c-3.52,2.417-8.61,3.8-14.007,3.8-.187,0-.376,0-.564,0a29.436,29.436,0,0,1-8.465-1.348,20.551,20.551,0,0,1-6.157-3.1,26.14,26.14,0,0,1-8.64,4.444A40.5,40.5,0,0,1,298.02,108.663Zm-22.044-8.413.2.191a24.346,24.346,0,0,0,8.8,5.109,39.739,39.739,0,0,0,12.289,2.106c.245,0,.5.006.756.006,8.13,0,15.708-2.324,20.27-6.217l.316-.27.323.261a19.173,19.173,0,0,0,6.157,3.178,28.435,28.435,0,0,0,8.177,1.3c.182,0,.366,0,.546,0,5.279,0,10.234-1.36,13.594-3.731l.162-.115.2.028a30.963,30.963,0,0,0,3.818.3c.184,0,.37,0,.554,0a25.048,25.048,0,0,0,10.857-2.227c2.8-1.387,4.4-3.223,4.495-5.168l0-.079.028-.074a6.845,6.845,0,0,0,.188-5.371c-.763-1.662-2.506-2.991-5.18-3.951-4.285-1.583-7.576-2.385-9.784-2.385a4.981,4.981,0,0,0-2.07.361c-2.912,1.351-2.964,1.351-3.12,1.351a1.88,1.88,0,0,1-.82-.148l-.282-.137v-.5a28.741,28.741,0,0,0-1.967-8.853l0-.008a10.775,10.775,0,0,0-4.14-5.26,12.873,12.873,0,0,0-7.32-1.747,14.433,14.433,0,0,0-9.224,2.994l-.688.573-.126-.886a33.117,33.117,0,0,0-3.353-10.869,20.484,20.484,0,0,0-8.346-8.6,26.863,26.863,0,0,0-12.892-2.876c-.258,0-.521,0-.782.008h-.035c-.325-.017-.654-.025-.977-.025a18.365,18.365,0,0,0-2.83.219l-.68.106.109-.68a46.53,46.53,0,0,0,.5-7.243c0-6.372-1.031-11.8-3.064-16.136a22.836,22.836,0,0,0-3.6-5.5,19.553,19.553,0,0,0-4.842-3.915,26.987,26.987,0,0,0-13.535-3.145c-.24,0-.486,0-.73.006A36.539,36.539,0,0,0,256.3,14.476a44.919,44.919,0,0,0-11.16,6.1,32.3,32.3,0,0,0-9.588,10.368l-.311.564-.469-.442a20.821,20.821,0,0,0-7.454-4.489,29.4,29.4,0,0,0-9.707-1.5c-.341,0-.69,0-1.038.014h-.007a30.45,30.45,0,0,0-8.535,1.432,51.1,51.1,0,0,0-9.472,4.116c-.551.345-1.031.665-1.466.978l-.6.432-.177-.718a46.385,46.385,0,0,0-5.953-13.79,36.087,36.087,0,0,0-6.515-7.449,35.619,35.619,0,0,0-8.294-5.32,43.954,43.954,0,0,0-10.1-3.2A62.86,62.86,0,0,0,153.533.5c-.481,0-.972,0-1.46.014a56.952,56.952,0,0,0-16.627,2.933,70.7,70.7,0,0,0-16.309,8.019c-6.131,4.021-10.806,8.461-13.9,13.195a29.474,29.474,0,0,0-3.5,7.372,27.861,27.861,0,0,0-1.232,7.907l-.009.772-.7-.324a22.508,22.508,0,0,0-9.428-1.764c-.192,0-.388,0-.583,0A27.371,27.371,0,0,0,77.7,41.706,35.158,35.158,0,0,0,67.19,50.387a66.57,66.57,0,0,0-9.462,14.335l-.428.891-.464-.874A15.351,15.351,0,0,0,52.2,59.18a10.317,10.317,0,0,0-5.983-1.824c-.275,0-.557.009-.838.028h-.006a12.167,12.167,0,0,0-6.82,2.606,23.743,23.743,0,0,0-5.912,7.173A33.369,33.369,0,0,0,29,75.788a23.251,23.251,0,0,0-.615,8.223l.074.676-.667-.131a12.141,12.141,0,0,0-2.312-.2c-3.336,0-8.076,1.007-14.086,2.994a19.091,19.091,0,0,0-8.358,4.9A9.777,9.777,0,0,0,.5,98.908c18.263-.134,43.063-.537,73.721-1.2,11.312-.22,23.758-.366,37-.433l.474,0,.028.473c.11,1.853,1.819,3.605,4.811,4.935a29.54,29.54,0,0,0,11.647,2.139c.221,0,.444,0,.665-.006a32.164,32.164,0,0,0,10.431-1.8c2.85-1.053,4.936-2.491,5.874-4.049l.26-.432.43.263a19.664,19.664,0,0,0,5.715,2.195,33.792,33.792,0,0,0,7.618.826c.223,0,.449,0,.672-.006,6.211-.109,11.914-1.732,14.884-4.237l.142-.12,2.866.028.113.065c3.7,2.116,7.29,3.281,10.121,3.281a6.5,6.5,0,0,0,2.8-.542l.285-.136.245.2c2.04,1.658,5.795,2.609,10.3,2.609a35.892,35.892,0,0,0,6.2-.56,35.031,35.031,0,0,0,7.067-2l.284-.115.232.2c2.942,2.558,8.684,4.215,14.985,4.325.222,0,.446.006.666.006a31.175,31.175,0,0,0,10.289-1.6c2.8-1,4.819-2.389,5.687-3.92l.208-.367.4.143a48.036,48.036,0,0,0,15.251,2.59c.327.006.658.009.984.009a50.307,50.307,0,0,0,11.855-1.359Zm105.5-2.533-.1-.018a5.266,5.266,0,0,1-2.9-1.318,3.645,3.645,0,0,1-1.023-2.684c0-1.322,1.531-2.585,4.817-3.973a41.586,41.586,0,0,1,10.152-2.744,40.313,40.313,0,0,1,5.688-.461c3.063,0,5.41.531,6.975,1.578a5.526,5.526,0,0,1,2.454,4.9,3.691,3.691,0,0,1-1.134,2.793,6.139,6.139,0,0,1-3.189,1.41l-.044.008H383.52ZM398.1,87.52a39.319,39.319,0,0,0-5.544.451,40.587,40.587,0,0,0-9.907,2.676c-3.659,1.546-4.206,2.576-4.206,3.052a2.649,2.649,0,0,0,.73,1.977,4.224,4.224,0,0,0,2.261,1.021l1.962-.491h19.675a5.147,5.147,0,0,0,2.635-1.143,2.694,2.694,0,0,0,.822-2.068,4.524,4.524,0,0,0-2.01-4.066C403.122,87.994,400.962,87.52,398.1,87.52Zm25.176,10.187c-2.926,0-4.824-.586-5.8-1.792l-.018-.024a3.7,3.7,0,0,1-.593-2.193c0-1.992.91-4.366,5.243-4.366.382,0,.79.018,1.215.055a10.269,10.269,0,0,1,4.669,1.283A3.441,3.441,0,0,1,429.7,93.7a3.505,3.505,0,0,1-.847,2.557C427.874,97.232,426.052,97.707,423.277,97.707Zm-5.018-2.41c.772.936,2.46,1.41,5.018,1.41,2.461,0,4.1-.389,4.863-1.157A2.576,2.576,0,0,0,428.7,93.7a2.465,2.465,0,0,0-1.25-2.188,9.489,9.489,0,0,0-4.212-1.127c-.4-.034-.776-.051-1.13-.051a5.1,5.1,0,0,0-3.241.854,3.025,3.025,0,0,0-1,2.512A2.762,2.762,0,0,0,418.259,95.3Z" transform="translate(-116.212 134.06)" fill="rgba(0,0,0,0)"/></g></g></svg>