<svg xmlns="http://www.w3.org/2000/svg" width="729.342" height="285.177" viewBox="0 0 729.342 285.177"><path d="M0,232.419c0-29.137,23.381-52.758,52.222-52.758a51.929,51.929,0,0,1,10.41,1.054c-.072-1.18-.177-2.351-.177-3.549,0-31.7,25.434-57.392,56.809-57.392a56.459,56.459,0,0,1,44.546,21.844A56.123,56.123,0,0,1,198.3,129.756c1.116,0,2.2.1,3.3.168C211.371,92.507,245,64.877,285.1,64.877a85.514,85.514,0,0,1,24.655,3.654C329.448,27.949,370.728,0,418.482,0c49.345,0,91.766,29.853,110.605,72.642a82.931,82.931,0,0,1,40.062-10.259c45.662,0,82.733,36.838,83.872,82.691,2.242-.219,4.512-.347,6.81-.347,38.39,0,69.512,31.441,69.512,70.225s-31.122,70.225-69.512,70.225c-.6,0-1.172-.074-1.763-.09v.09H50.458v-.09A52.474,52.474,0,0,1,0,232.419m518.407-17.707c-.03.2-.058.4-.09.6h.881c-.265-.2-.529-.4-.791-.6" fill="#fafafa"/></svg>