<svg xmlns="http://www.w3.org/2000/svg" xmlns:xlink="http://www.w3.org/1999/xlink" width="463.428" height="513.659" viewBox="0 0 463.428 513.659"><defs><clipPath id="a"><path d="M10.415,0C9.575,9.759,1.743,27.1.378,32.146c-.461,1.711-1,5.378,1.73,6.849,3.2,1.723,7.676-.842,9.658-6.743,2.122,5.9,6.5,7.966,10.217,6.34,6.52-2.857,5.566-11.5,5.273-13.611C26.085,16.49,20.3,6.921,10.415,0Z" fill="none"/></clipPath><linearGradient id="b" x1="-7.493" y1="12.638" x2="-7.447" y2="12.638" gradientUnits="objectBoundingBox"><stop offset="0" stop-color="#e2ba4f"/><stop offset="0.51" stop-color="#ffe6a1"/><stop offset="1" stop-color="#ce8918"/></linearGradient><clipPath id="c"><path d="M2.209,2.074C1.526,4.565-.221,6.787.023,9.479c.142,1.571-.164,3.486,2.1,4.187,2.452.761,2.876-.893,3.33-2.542C6.069,8.873,6.612,6.6,6.978,5.164,6.99,2.366,6.232.826,4.437.137A1.819,1.819,0,0,0,3.786,0C2.7,0,2.405,1.351,2.209,2.074" fill="none"/></clipPath><radialGradient id="d" cx="0.514" cy="0.48" r="0.38" gradientTransform="matrix(-2.001, 0, 0, 1, -71.21, 0)" xlink:href="#b"/><clipPath id="e"><path d="M96.918,166.005c-1.054-.338-1.2-1.455-1.067-2.44,1.021-7.751,4.1-15.148,7.233-22.335,5.065-11.618,12.7-26.847,20.287-38.231q-.724,3.082-1.49,6.156c-1.038,4.144-2.4,9.02-4.011,14.1a298.273,298.273,0,0,1-14.463,35.509c-1.015,2.078-3.79,7.305-6.062,7.305a1.387,1.387,0,0,1-.428-.066M28.443,113.186c-1.332-1.051.082-3.514.923-4.706,2.473-3.51,5.16-7.257,8.039-10.9.064.326.13.651.18.98.714,4.667-.025,9.98-3.029,13.206-.277.247-.563.489-.875.718a6.24,6.24,0,0,1-3.513,1.212,2.757,2.757,0,0,1-1.726-.508m46.64-20.5c1.572-5.16,10.356-13.933,20.173-16.046-.107.343-.216.688-.33,1.019a37.775,37.775,0,0,1-4.354,8.758,31.851,31.851,0,0,1-3.92,4.688c-.13.123-.26.248-.39.37s-.26.241-.392.359c-2.6,2.358-5.26,4.12-7.252,4.472a5.845,5.845,0,0,1-1.111.109h0c-2.277,0-3.09-1.536-2.422-3.73M281.689,85.3c-1.144-.3-1.479-1.278-1.479-2.679,0-3.449,2.76-7.546,5.868-11.2a23.722,23.722,0,0,1,1.266,6.343,9.033,9.033,0,0,1-2.695,6.286,3.926,3.926,0,0,1-2.5,1.306,1.8,1.8,0,0,1-.457-.057M54.258,51.308c3.053-2.871,6.828-4.871,10.343-4.962,2.061-.05,4.169.4,4.908,2.41.746,2.031-.565,3.814-2.26,4.958A209.3,209.3,0,0,1,48.035,64.487a25.516,25.516,0,0,1,6.223-13.18M298.932,6.129c1.983-1.585,4.866-2.769,6.589-1.754,2.186,1.287,2.736,3.873,2.888,6.237.411,6.455-1.959,12.207-4.784,17.783-2.994,5.911-7.334,10.794-12.119,15.321a3.653,3.653,0,0,1-.513.412c-.342-1.172-.656-2.354-.928-3.546a62.235,62.235,0,0,1-1.171-6.62,43.436,43.436,0,0,1,.806-11.775c.009-.038-.013.009-.056.113,1.3-6.189,3.892-11.857,9.287-16.172m.215-5.586C283.5,4.435,272.9,20.865,273.264,36.959c0,.007-.009.009-.009.017a30,30,0,0,0,.73,6.27c.066.307.141.612.215.919.081.335.164.671.253,1l.062.228a60.408,60.408,0,0,0,3.1,8.582c-2.3,1.5-8.856,5.73-9.928,6.394.033-.99.082-2.648.166-5.569a125.648,125.648,0,0,0-4.036-35.071c-1.381-5.355-2.5-10.9-6.025-15.441-1.047-1.348-2.593-2.318-4.2-1.792-1.791.586-1.609,2.424-1.334,3.99a23.923,23.923,0,0,1,.134,6.831,121.692,121.692,0,0,1-6.287,27.13c-3.118,8.828-7.822,18.962-14.1,23.824-2.337,1.812-5.126,1.481-5.854-1.217-.7-2.6-.468-5.531-.239-8.259.972-11.585,3.286-23.03,3.648-34.676.076-2.463.386-5.07-1.231-7.2-1.41-1.862-3.3-2.89-5.757-2.155a2.315,2.315,0,0,0-1.955,2.4,62.386,62.386,0,0,1-3.212,19.773c-2.724,8.254-5.968,15.531-12.632,21.433-1.111.984-3.34,2.676-4.844,1.889-1.453-.762-1-2.761-.878-4.141.5-5.358,1.348-10.692,1.605-16.058.376-7.906,1.67-16.3-1.288-23.971-3.246-8.422-10.836-9.3-16.572-2.467a35.661,35.661,0,0,0-3.024,4.272c-3.924,6.39-7.053,16.04-9.789,23.487-1.621-3.873-4.6-7.2-8.7-8.225-5.733-1.434-10.314,1.862-13.078,5.979a29.938,29.938,0,0,0-3.836,7.076,69.753,69.753,0,0,0-2.709,7.476c-.494-2.138-1.184-7.171-4.82-11.634-3.551-4.358-8.991-5.574-12.77-1.5a40.854,40.854,0,0,0-5.3,7.581c-3.107,5.5-5.468,11.4-8.194,17.094a9.349,9.349,0,0,1-.624.976c-.02-.042-.044-.084-.066-.126a23.014,23.014,0,0,0-.66-3.016c-.008-.028-.019-.054-.025-.08a21.158,21.158,0,0,0-4.014-7.56,14.129,14.129,0,0,0-4.787-3.945c-.065-.034-.129-.074-.194-.106v.009A16.105,16.105,0,0,0,88.4,46.365c-9.761,3.091-15.142,9.625-21.4,16.1C61.362,68.31,53.69,77.222,47.937,83.555c-.139-1.877-.274-3.754-.347-5.635A81.6,81.6,0,0,1,47.637,67.6c6.746-3.385,15.71-7.7,21.1-11.731,2.536-1.894,4.474-4.3,3.836-7.5-.455-2.277-2.892-3.979-5.266-4.756-13.311-4.35-28.111.838-33.661,14l-.008.012c-.021.05-.036.1-.057.15-.243.587-.464,1.193-.669,1.812-.012.034-.023.07-.033.1-.131.4-.26.8-.375,1.219a33.05,33.05,0,0,0-1.387,10.417C19.781,75.157,9.152,75.44,1.206,76.49a1.385,1.385,0,0,1-.44-.042C.4,76.374.048,76.3,0,76.921c-.009.114.866.376,1.347.433,8.376,1,20.078-.335,29.917-3.6a63.534,63.534,0,0,0,2.817,12.8c.819,2.672,1.828,5.306,2.6,8-3.332,3.949-7.895,9.2-9.916,12.864-1.4,2.546-1.683,5.139-.293,6.767,1.054,1.235,4.289,2.23,7.078,1.605a17.672,17.672,0,0,0,13.072-10.968,9.783,9.783,0,0,0,.545-1.528,26.588,26.588,0,0,0,1.17-8.013c.087-1.418.118-2.766.084-3.876-.041-1.307-.117-2.614-.2-3.917C57,77.551,69.587,62.837,79.538,55.2c5.877-4.512,11.337-4.095,14.747.828,3.248,5.273,3.041,12.357,1.62,18.253-11.131,2.6-18.227,7.639-22.661,15.766-3.086,5.66-.04,10.639,6.271,10.659a21.432,21.432,0,0,0,10.72-2.777l-.008.012a35.123,35.123,0,0,0,7.18-5.346,43.265,43.265,0,0,0,4.79-5.281,40.455,40.455,0,0,0,6.787-13.208,31.294,31.294,0,0,0,.733-3.142c.724-2.044,1.466-4.076,2.325-6.056,3.3-7.6,6.214-14.82,11.052-22.111.74-1.117,1.963-2.6,3.715-2.244,1.645.329,2.476,2.247,2.918,3.631.264.827.37,1.709.575,2.552.994,4.055.819,13.517-.008,20.185-.945,7.617-1.82,12.76-2.633,16.9-.828,4.215-1.812,8.4-2.768,12.586l-.02.09c-7.48,9.9-15.623,22.508-19.818,31.764-5.335,11.767-10.848,23.975-11.911,36.643-.233,2.788.007,5.375,2.635,7.125,2.073,1.38,5.241.384,7.756-.969,3.714-2,8.352-6.744,11.112-11.3,17.957-29.632,26-62.176,27.759-96.481.383-7.485,1.644-14.778,4.851-21.516,1.09-2.289,2.407-5.631,5.562-7.874,2.387-1.7,5.455-1.351,7.151,2.173,1.789,3.715,1.228,10.2.768,15.108a184.692,184.692,0,0,1-4.8,26.79c-.728,2.957.054,5.664,2.656,6.891a4.9,4.9,0,0,0,6.7-2.184,47.943,47.943,0,0,0,5.1-16.625v0h0a161.014,161.014,0,0,0,1.335-17.087,33.515,33.515,0,0,0-.761-8.519c3.674-10.026,8.823-23.156,13.418-28.213,2.57-2.827,6.01-3.509,7.2,1.188.5,1.978.355,9.01.069,12.13-.882,9.633-1.365,16.488-1.945,26.141-.494,8.21,4.61,11.93,12.517,7.786,5.313-2.785,11.026-10.159,14.293-17.117a13.027,13.027,0,0,1,.8-1.29,14.684,14.684,0,0,1,.057,1.524c-.452,7.09-1.116,14.175.16,21.262,1.113,6.194,7.076,8.886,12.575,6.211,4.032-1.962,7.982-6.042,10.515-10.309,6.626-11.16,10.835-23.308,13.751-35.923a9.394,9.394,0,0,1,.484-1.25c.08.452.164.905.24,1.359A147.056,147.056,0,0,1,257.026,53.8c0,3.693-.008,7.389.011,11.082.007,1.4-.215,3.018,1.229,3.815s2.761-.257,3.924-.957c5.077-3.054,11.655-7.367,16.877-10.668.44.891.871,1.726,1.274,2.476,1.656,3.09,3.43,6.166,4.786,9.37a3.8,3.8,0,0,1-.5.782,31.6,31.6,0,0,0-5.358,8.489c-1.105,2.927-2,6.6.505,8.6,2.314,1.845,5.946.969,8.658-.614,3.67-2.141,6.564-6.071,8.185-10.53.007,0,.017,0,.021-.016.065-.176.118-.358.179-.536.044-.127.087-.253.129-.38A26.924,26.924,0,0,0,298.074,63.8a19.455,19.455,0,0,0-.592-3.138c7.446-5.632,18.059-9.533,26.62-9.629.178,0,.371.005.571.011,1.09.034,2.381.07,2.332-1.242-.052-1.38-1.86-1.212-3.042-1.161A51.717,51.717,0,0,0,296.7,58.268c-.664-1.748-1.49-3.442-2.33-5.209a59.225,59.225,0,0,1-2.28-5.541,36.678,36.678,0,0,0,6.295-5.672c8.131-8.9,14.063-19.088,13.562-31.737C311.682,3.352,308.493,0,303.184,0a16.815,16.815,0,0,0-4.038.543" fill="none"/></clipPath><radialGradient id="f" cx="0.5" cy="0.498" r="0.754" gradientTransform="matrix(0, 1, 0.53, 0, -0.852, 1.562)" xlink:href="#b"/><clipPath id="g"><path d="M10.415,0C9.575,9.759,1.743,27.1.378,32.146c-.461,1.711-1,5.378,1.73,6.849,3.2,1.723,7.676-.842,9.658-6.743,2.122,5.9,6.5,7.966,10.217,6.34,6.52-2.857,5.566-11.5,5.273-13.611C26.085,16.49,20.3,6.921,10.415,0Z" fill="#e53341"/></clipPath><clipPath id="h"><path d="M2.209,2.074C1.526,4.565-.221,6.787.023,9.479c.142,1.571-.164,3.486,2.1,4.187,2.452.761,2.876-.893,3.33-2.542C6.069,8.873,6.612,6.6,6.978,5.164,6.99,2.366,6.232.826,4.437.137A1.819,1.819,0,0,0,3.786,0C2.7,0,2.405,1.351,2.209,2.074" fill="#e53341"/></clipPath><clipPath id="i"><path d="M96.918,166.005c-1.054-.338-1.2-1.455-1.067-2.44,1.021-7.751,4.1-15.148,7.233-22.335,5.065-11.618,12.7-26.847,20.287-38.231q-.724,3.082-1.49,6.156c-1.038,4.144-2.4,9.02-4.011,14.1a298.273,298.273,0,0,1-14.463,35.509c-1.015,2.078-3.79,7.305-6.062,7.305a1.387,1.387,0,0,1-.428-.066M28.443,113.186c-1.332-1.051.082-3.514.923-4.706,2.473-3.51,5.16-7.257,8.039-10.9.064.326.13.651.18.98.714,4.667-.025,9.98-3.029,13.206-.277.247-.563.489-.875.718a6.24,6.24,0,0,1-3.513,1.212,2.757,2.757,0,0,1-1.726-.508m46.64-20.5c1.572-5.16,10.356-13.933,20.173-16.046-.107.343-.216.688-.33,1.019a37.775,37.775,0,0,1-4.354,8.758,31.851,31.851,0,0,1-3.92,4.688c-.13.123-.26.248-.39.37s-.26.241-.392.359c-2.6,2.358-5.26,4.12-7.252,4.472a5.845,5.845,0,0,1-1.111.109h0c-2.277,0-3.09-1.536-2.422-3.73M281.689,85.3c-1.144-.3-1.479-1.278-1.479-2.679,0-3.449,2.76-7.546,5.868-11.2a23.722,23.722,0,0,1,1.266,6.343,9.033,9.033,0,0,1-2.695,6.286,3.926,3.926,0,0,1-2.5,1.306,1.8,1.8,0,0,1-.457-.057M54.258,51.308c3.053-2.871,6.828-4.871,10.343-4.962,2.061-.05,4.169.4,4.908,2.41.746,2.031-.565,3.814-2.26,4.958A209.3,209.3,0,0,1,48.035,64.487a25.516,25.516,0,0,1,6.223-13.18M298.932,6.129c1.983-1.585,4.866-2.769,6.589-1.754,2.186,1.287,2.736,3.873,2.888,6.237.411,6.455-1.959,12.207-4.784,17.783-2.994,5.911-7.334,10.794-12.119,15.321a3.653,3.653,0,0,1-.513.412c-.342-1.172-.656-2.354-.928-3.546a62.235,62.235,0,0,1-1.171-6.62,43.436,43.436,0,0,1,.806-11.775c.009-.038-.013.009-.056.113,1.3-6.189,3.892-11.857,9.287-16.172m.215-5.586C283.5,4.435,272.9,20.865,273.264,36.959c0,.007-.009.009-.009.017a30,30,0,0,0,.73,6.27c.066.307.141.612.215.919.081.335.164.671.253,1l.062.228a60.408,60.408,0,0,0,3.1,8.582c-2.3,1.5-8.856,5.73-9.928,6.394.033-.99.082-2.648.166-5.569a125.648,125.648,0,0,0-4.036-35.071c-1.381-5.355-2.5-10.9-6.025-15.441-1.047-1.348-2.593-2.318-4.2-1.792-1.791.586-1.609,2.424-1.334,3.99a23.923,23.923,0,0,1,.134,6.831,121.692,121.692,0,0,1-6.287,27.13c-3.118,8.828-7.822,18.962-14.1,23.824-2.337,1.812-5.126,1.481-5.854-1.217-.7-2.6-.468-5.531-.239-8.259.972-11.585,3.286-23.03,3.648-34.676.076-2.463.386-5.07-1.231-7.2-1.41-1.862-3.3-2.89-5.757-2.155a2.315,2.315,0,0,0-1.955,2.4,62.386,62.386,0,0,1-3.212,19.773c-2.724,8.254-5.968,15.531-12.632,21.433-1.111.984-3.34,2.676-4.844,1.889-1.453-.762-1-2.761-.878-4.141.5-5.358,1.348-10.692,1.605-16.058.376-7.906,1.67-16.3-1.288-23.971-3.246-8.422-10.836-9.3-16.572-2.467a35.661,35.661,0,0,0-3.024,4.272c-3.924,6.39-7.053,16.04-9.789,23.487-1.621-3.873-4.6-7.2-8.7-8.225-5.733-1.434-10.314,1.862-13.078,5.979a29.938,29.938,0,0,0-3.836,7.076,69.753,69.753,0,0,0-2.709,7.476c-.494-2.138-1.184-7.171-4.82-11.634-3.551-4.358-8.991-5.574-12.77-1.5a40.854,40.854,0,0,0-5.3,7.581c-3.107,5.5-5.468,11.4-8.194,17.094a9.349,9.349,0,0,1-.624.976c-.02-.042-.044-.084-.066-.126a23.014,23.014,0,0,0-.66-3.016c-.008-.028-.019-.054-.025-.08a21.158,21.158,0,0,0-4.014-7.56,14.129,14.129,0,0,0-4.787-3.945c-.065-.034-.129-.074-.194-.106v.009A16.105,16.105,0,0,0,88.4,46.365c-9.761,3.091-15.142,9.625-21.4,16.1C61.362,68.31,53.69,77.222,47.937,83.555c-.139-1.877-.274-3.754-.347-5.635A81.6,81.6,0,0,1,47.637,67.6c6.746-3.385,15.71-7.7,21.1-11.731,2.536-1.894,4.474-4.3,3.836-7.5-.455-2.277-2.892-3.979-5.266-4.756-13.311-4.35-28.111.838-33.661,14l-.008.012c-.021.05-.036.1-.057.15-.243.587-.464,1.193-.669,1.812-.012.034-.023.07-.033.1-.131.4-.26.8-.375,1.219a33.05,33.05,0,0,0-1.387,10.417C19.781,75.157,9.152,75.44,1.206,76.49a1.385,1.385,0,0,1-.44-.042C.4,76.374.048,76.3,0,76.921c-.009.114.866.376,1.347.433,8.376,1,20.078-.335,29.917-3.6a63.534,63.534,0,0,0,2.817,12.8c.819,2.672,1.828,5.306,2.6,8-3.332,3.949-7.895,9.2-9.916,12.864-1.4,2.546-1.683,5.139-.293,6.767,1.054,1.235,4.289,2.23,7.078,1.605a17.672,17.672,0,0,0,13.072-10.968,9.783,9.783,0,0,0,.545-1.528,26.588,26.588,0,0,0,1.17-8.013c.087-1.418.118-2.766.084-3.876-.041-1.307-.117-2.614-.2-3.917C57,77.551,69.587,62.837,79.538,55.2c5.877-4.512,11.337-4.095,14.747.828,3.248,5.273,3.041,12.357,1.62,18.253-11.131,2.6-18.227,7.639-22.661,15.766-3.086,5.66-.04,10.639,6.271,10.659a21.432,21.432,0,0,0,10.72-2.777l-.008.012a35.123,35.123,0,0,0,7.18-5.346,43.265,43.265,0,0,0,4.79-5.281,40.455,40.455,0,0,0,6.787-13.208,31.294,31.294,0,0,0,.733-3.142c.724-2.044,1.466-4.076,2.325-6.056,3.3-7.6,6.214-14.82,11.052-22.111.74-1.117,1.963-2.6,3.715-2.244,1.645.329,2.476,2.247,2.918,3.631.264.827.37,1.709.575,2.552.994,4.055.819,13.517-.008,20.185-.945,7.617-1.82,12.76-2.633,16.9-.828,4.215-1.812,8.4-2.768,12.586l-.02.09c-7.48,9.9-15.623,22.508-19.818,31.764-5.335,11.767-10.848,23.975-11.911,36.643-.233,2.788.007,5.375,2.635,7.125,2.073,1.38,5.241.384,7.756-.969,3.714-2,8.352-6.744,11.112-11.3,17.957-29.632,26-62.176,27.759-96.481.383-7.485,1.644-14.778,4.851-21.516,1.09-2.289,2.407-5.631,5.562-7.874,2.387-1.7,5.455-1.351,7.151,2.173,1.789,3.715,1.228,10.2.768,15.108a184.692,184.692,0,0,1-4.8,26.79c-.728,2.957.054,5.664,2.656,6.891a4.9,4.9,0,0,0,6.7-2.184,47.943,47.943,0,0,0,5.1-16.625v0h0a161.014,161.014,0,0,0,1.335-17.087,33.515,33.515,0,0,0-.761-8.519c3.674-10.026,8.823-23.156,13.418-28.213,2.57-2.827,6.01-3.509,7.2,1.188.5,1.978.355,9.01.069,12.13-.882,9.633-1.365,16.488-1.945,26.141-.494,8.21,4.61,11.93,12.517,7.786,5.313-2.785,11.026-10.159,14.293-17.117a13.027,13.027,0,0,1,.8-1.29,14.684,14.684,0,0,1,.057,1.524c-.452,7.09-1.116,14.175.16,21.262,1.113,6.194,7.076,8.886,12.575,6.211,4.032-1.962,7.982-6.042,10.515-10.309,6.626-11.16,10.835-23.308,13.751-35.923a9.394,9.394,0,0,1,.484-1.25c.08.452.164.905.24,1.359A147.056,147.056,0,0,1,257.026,53.8c0,3.693-.008,7.389.011,11.082.007,1.4-.215,3.018,1.229,3.815s2.761-.257,3.924-.957c5.077-3.054,11.655-7.367,16.877-10.668.44.891.871,1.726,1.274,2.476,1.656,3.09,3.43,6.166,4.786,9.37a3.8,3.8,0,0,1-.5.782,31.6,31.6,0,0,0-5.358,8.489c-1.105,2.927-2,6.6.505,8.6,2.314,1.845,5.946.969,8.658-.614,3.67-2.141,6.564-6.071,8.185-10.53.007,0,.017,0,.021-.016.065-.176.118-.358.179-.536.044-.127.087-.253.129-.38A26.924,26.924,0,0,0,298.074,63.8a19.455,19.455,0,0,0-.592-3.138c7.446-5.632,18.059-9.533,26.62-9.629.178,0,.371.005.571.011,1.09.034,2.381.07,2.332-1.242-.052-1.38-1.86-1.212-3.042-1.161A51.717,51.717,0,0,0,296.7,58.268c-.664-1.748-1.49-3.442-2.33-5.209a59.225,59.225,0,0,1-2.28-5.541,36.678,36.678,0,0,0,6.295-5.672c8.131-8.9,14.063-19.088,13.562-31.737C311.682,3.352,308.493,0,303.184,0a16.815,16.815,0,0,0-4.038.543" fill="#e53341"/></clipPath></defs><g transform="translate(245.454 513.659) rotate(180)"><g transform="translate(0)" clip-path="url(#a)"><rect width="29.13" height="40.718" transform="translate(-0.627)" fill="url(#b)"/></g></g><g transform="translate(292.77 169.326) rotate(180)"><g transform="translate(0)" clip-path="url(#c)"><rect width="7.211" height="14.427" transform="translate(-0.221)" fill="url(#d)"/></g></g><g transform="translate(446.792 261.778) rotate(180)"><g transform="translate(0)" clip-path="url(#e)"><rect width="327.062" height="173.411" transform="translate(-0.009 0)" fill="url(#f)"/></g></g><g transform="translate(245.454 513.659) rotate(180)"><g transform="translate(0)" clip-path="url(#g)"><rect width="29.13" height="40.718" transform="translate(-0.627)" fill="#e53341"/></g></g><path d="M272.4,52.27c-3.164.058-3.09,2.525-3.555,4.844-3.148,15.7-6.5,31.345-14.733,45.392-2.94,5.015-6.365,9.723-10.751,12.74-1.552,1.068-2.937,1.526-3.929,1.295-1.607-.374-1.609-2.33-1.422-3.731.457-3.453,1.009-6.9,1.681-10.318,2.17-11.051,4.942-22.019,4.568-33.409-.084-2.5-1.147-4.474-4.032-4.549-2.565-.066-3.035,2-3.619,3.869-3.555,11.4-6.96,22.872-13.442,33.058-3.171,4.981-6.091,10.229-11.174,13.607-1.283.854-2.972,1.587-4.548.717-1.511-.831-1.515-2.731-1.393-4.083a27.113,27.113,0,0,1,1.286-5.273c3.377-11.519,8.078-22.652,9.867-34.628,1.1-7.39,1.617-14.7-3.6-20.909-3.859-4.6-10.146-4.231-13.978.365-2.9,3.474-5.7,9.348-7.507,14.414a13.935,13.935,0,0,0-5.591-4.252,12.443,12.443,0,0,0-3.938-1.058c-.05-.007-.1-.017-.151-.024a.14.14,0,0,0-.072.005,14.792,14.792,0,0,0-8.672,2.22c-4.153,2.43-6.567,5.656-9.582,9.26-.315.376-.982,1.355-1.918,2.705.141-1.168.3-2.123.353-2.579a37.291,37.291,0,0,0,.089-10.209c-.575-3.534-2.169-6.51-5.28-7.823-3.733-1.579-6.435.1-9.032,2.157-4.686,3.706-7.526,8.818-10.4,13.894-.141.249-.652,1.406-1.208,2.648a21.315,21.315,0,0,0-2.578-7.916,3.564,3.564,0,0,0-3.693-1.909,3.671,3.671,0,0,0-3.236,2.582c-.916,2.1-.612,4.319-1.066,6.43-2.063,9.586-6.2,18.388-10.738,26.983-3.651,6.91-7.224,13.918-13.279,19.2-1.174,1.025-2.916,2.338-4.289,1.657-1.33-.66-1.058-2.789-.949-4.231a244.58,244.58,0,0,1,3.643-24.667c1.487-8.311,2.407-19.532-1.169-26.342-1.885-3.591-4-5.867-8.465-6.071-4.5-.208-8.034,1.962-10.8,5.811-3.962,5.506-6.47,11.746-9.433,17.762-.239.485-.909,2.633-1.217,3.086-.011-.528.229-2.788.281-3.307.72-7.214.162-14.234-4.369-20.217a10.263,10.263,0,0,0-11-3.958c-6.522,1.823-9.095,6.287-12.99,10.972C36.942,73.789,31.571,85.57,28.1,94.413a24.2,24.2,0,0,1-1.25,2.906c-.049-.448.2-2.609.213-3.057.209-9.552,3.708-34.516,4.093-35.827,10.17-9.345,19.91-20.757,25.662-33.447,2.969-6.55,5.52-15.665,2.785-21.028C58.184,1.171,56.03-.473,52.544.121A19.836,19.836,0,0,0,43.87,4.165C36.728,9.61,31.745,16.71,28,24.719c-5.632,12.04-8.672,27.926-9.4,41.143-.736.368-12.077,7.318-17,10.179-1.038.6-2.1,1.09-1.349,2.427.811,1.451,1.89.471,2.747-.042,4.6-2.76,14.387-8.937,15.686-9.684.1,7.534.354,17.339.585,27.326.208,2.452.635,7.338,1.035,12.224a2.5,2.5,0,0,0,2.406,2.629c1.595.1,2.951-.441,3.24-2.285a47.467,47.467,0,0,1,2.579-10.079C33.411,86.273,42.043,70.319,48.037,64.4c2.507-2.473,5.714-5.462,9.683-3.739,3.464,1.506,3.743,6.137,3.69,9.735-.122,8.177-3.986,19.816-6.625,29.587-1.261,4.666-3.621,9.178-2.369,14.262a4.787,4.787,0,0,0,4.052,3.91c1.721.155,4.121.386,5.022-1.933a67,67,0,0,0,3.263-9.513,129.909,129.909,0,0,1,14.8-37.3c1.373-2.358,3.368-5.448,6.392-4.767,4.333.981,4.039,8.245,4.044,8.983a134.337,134.337,0,0,1-1.706,20.692c-1.375,9.228-3.758,18.353-3.157,27.781.371,5.851,4.812,8.346,9.963,5.52,10.217-5.6,15.928-15.242,21.4-24.943a162.431,162.431,0,0,0,9.256-20.205c.608-1.5,1.815-5.163,2-5.416a21.4,21.4,0,0,1,.152,2.68c-.1,6.276-.288,12.552-.317,18.827-.011,2.574-.224,5.585,3.4,6.035,3.367.418,5.2-1.383,5.858-4.667a56.026,56.026,0,0,0,.88-12.187c0-.122-.013-.235-.02-.351a63.8,63.8,0,0,0-.539-9.817c-.028-.292-.052-.6-.076-.9,2.074-5.136,6.7-12.606,9.745-15.6,1.485-1.458,3.47-3.628,5.522-2.786,2.069.848,1.752,4.443,1.454,6.7-.823,6.23-3.908,14.43-5.39,21.047-.85,3.8.453,5.965,4.11,7.162,3.55,1.16,4.61-1.079,5.774-3.6,3.648-7.9,6.3-16.734,13.19-22.685,2.247-1.939,4.712-3.89,8.1-2.5,2.837,1.165,3.126,5.306,2.91,8.368-.484,6.862-2.74,13.232-5.724,19.369-4.357,8.961-8.992,17.426-17.378,23.3-4.576,3.205-9.378,2.2-10.673-3.1a23.816,23.816,0,0,1,.313-13.133c.354-1.046.661-2.015-.8-2.367-1.326-.321-2.031.351-2.31,1.6a32.742,32.742,0,0,0-.616,9.826c.683,8.493,4.776,13.434,11.451,13.69,6.156.236,11.579-2.306,16.218-6.119a61.462,61.462,0,0,0,14.635-17.457,56.528,56.528,0,0,0,5.989-15.582,24.937,24.937,0,0,0,.786-5.343,30.127,30.127,0,0,0-.522-8.149,7.65,7.65,0,0,0-.376-1.214c-.061-.217-.106-.44-.174-.656,1.3-3.319,2.67-7.613,5.74-11.563,1.148-1.478,2.658-2.546,4.37-2.047,1.5.437,2.048,1.95,2.3,3.409,1,5.783-3.081,20.872-5.334,31.008-1.539,6.919-4.381,13.546-5.046,20.673-.342,3.66-.343,7.525,3.169,9.853,3.782,2.5,7.9,2.375,11.877.272a33.3,33.3,0,0,0,4.513-3.024c7.578-5.754,11.294-14.182,15.383-22.349.565-1.127,1.226-2.2,1.843-3.3-.207,1.331-.372,2.67-.628,3.99-1.25,6.447-2.834,12.875-1.807,19.517.823,5.327,4.224,7.366,9.352,5.9,6.168-1.756,11.687-7.165,15.533-13.049C261.657,95.9,266.306,79.29,268.78,69.056c.893,6.311.777,11.731,1,16.364a4.338,4.338,0,0,0,4.425,4.348c2.348.044,4.784-1.155,5.02-4.015a80.221,80.221,0,0,0-2.432-28.91c-.575-2.008-1.434-4.627-4.392-4.572M32.824,50.941c3.395-14.179,7.117-28.406,15.367-40.572,2.528-3.727,5.986-6.416,7.786-5.148,1.42,1,1.624,2.813,1.717,4.364.387,6.469-3.094,14.235-6.9,20.635-5.7,9.6-13.275,19.33-18.955,24.167.046-.514.863-2.948.982-3.445M191.676,66.932l0,.007-.009.027.005-.033" transform="translate(430.629 142.694) rotate(180)"/><path d="M120.2.266C94.465,4.056,78.153,19.722,69.039,43.22,64.625,54.6,65.4,66.364,67.382,78.065c.338,2,1.021,6.889,2.443,13.094-.122.057-8.286,4.108-8.714,4.172.115-.366.7-1.433.807-1.8,2.211-7.286,3.191-14.594,1.606-22.22C62.3,65.428,58.359,60.064,52.785,58.118c-6.469-2.257-11.25.072-16.038,4.26C30.438,67.9,26.309,76.352,23.194,83.762c-1.214.358-4.5,1.65-5.819,2.227A36.439,36.439,0,0,0,.784,99.549c-.406.624-1.332,1.668-.343,2.252.823.489,1.478-.59,1.988-1.3,4.691-6.5,11.178-10.529,18.489-13.418a6.037,6.037,0,0,1,1.316-.418c-.082.374-.366,1.07-.473,1.434A38.775,38.775,0,0,0,20.13,99.01c-.049,8.294,2.8,16.178,8.318,21.669a16.747,16.747,0,0,0,16.661,4.274c5.673-1.771,8.914-5.871,10.077-11.958,2.622-13.722-10.236-28.9-26.9-29.636,1.1-5.836,4.873-12.77,8.306-17.117,3.841-4.862,7.6-7.361,11.886-6.755,5.574.789,8.361,5.257,8.018,11.27-.386,6.767-2.528,13.108-4.165,19.578-.917,3.62,1.254,5.856,3.307,8.141,1.717,1.907,3.556.357,5.189-.255,2.891-1.08,7.166-2.886,9.961-4.2,1.8,5.254,4,17.961,5.219,23.328-2.975,3.226-8.151,9.736-9.985,14.739-1.6,4.374.09,7.385,4.635,7.776A12.124,12.124,0,0,0,80.79,135.82c5.48-5.893,7.854-12.206,9.133-19.991a54.909,54.909,0,0,0,.649-7.573c12.646-11.506,27.721-22.449,41.291-32.771.4-.308.753-.683,1.127-1.025a9.108,9.108,0,0,0-1.482.439c-14.655,7.171-27,17.591-39.345,28.006-.428.362-1.163.742-1.624,1.066-.07-.383-.964-18.316-1.664-22.383,8.623-7.628,18.327-16.166,25.8-24.925,9.317-10.921,18.307-22.187,22.653-36.185C141.342,7.551,133.614-1.71,120.2.266M32.723,85.8C43.645,87.831,51.365,96.621,50.4,106.928c-.358,3.831-1.945,7.043-5.778,8.173-3.978,1.17-7.218-.6-9.663-3.506-5.26-6.243-7.834-18.247-6.888-25.924a13.742,13.742,0,0,1,4.651.127m41.53,47.786c-1,1.466-2.456,2.9-4.37,1.848-1.966-1.076-1-2.859-.436-4.456,1.287-3.65,3.9-6.079,7.154-9.671.494,6-.308,9.293-2.348,12.28M133.972,14.834c-1.05,9.075-5.329,16.873-10.04,24.414C116.717,50.8,107.119,60.34,97.379,69.724c-2.22,2.138-8.153,7.913-8.784,8.217-.115-.651-.221-7.664-.221-10.018a105.8,105.8,0,0,1,5.241-31.329c4.173-12.127,10.451-22.862,21.557-30.045a19.122,19.122,0,0,1,9.578-2.817c6.113-.315,10,4.354,9.222,11.1" transform="translate(152.888 139.906) rotate(180)"/><path d="M126.411,72.9c1.059,9.264,7.174,13.11,14.609,8.982a39.138,39.138,0,0,0,9.582-7.561c7.617-8.136,12.547-17.839,16.478-28.131a4.395,4.395,0,0,1,.581-.851,9.4,9.4,0,0,1,.281.925c.985,4.967.7,10.021,1.07,15.03.166,2.28.2,4.743,3.7,4.912,3.437.168,5.325-1.58,5.97-4.466,1.79-8.009.424-15.9-1.532-23.7a12.336,12.336,0,0,0-4.361-7.273c-2.655-1.992-5.8-.954-5.958,2.261-.488,10.114-4.789,18.9-9.5,27.47-3.428,6.238-7.419,12.206-13.271,16.561-1.827,1.36-4.445,2.77-6.6,2.082-2.629-.842-1.947-4.136-1.812-6.4.048-.8.125-1.607.232-2.4,1.168-8.686,4.149-16.95,5.97-25.482a7.735,7.735,0,0,0-1.227-6.664,6.584,6.584,0,0,0-5.508-2.43,2.9,2.9,0,0,0-2.647,2.173c-1.01,2.843-2.084,5.664-3.074,8.513a71.154,71.154,0,0,1-18.234,28.044c-1.5,1.452-4.659,3.7-6.406,2.967-2-.842.147-4.707.864-6.657,3.128-8.51,6.785-16.838,9.173-25.6,1.893-6.948,3.574-13.986,1.787-21.263-1.536-6.262-5.92-9.825-11.882-11-5.524-1.086-9.7,1.376-13.254,6-5.932,7.723-8.179,15.526-10.676,23.994-.205.695-.432,1.383-.648,2.072-4.073-9.4-12.2-10.679-18.8-6.88-6.942,4-16.406,12.936-23.925,38.064a31.46,31.46,0,0,1-.895,3.477c-.052-.642-.26-2.922-.209-3.554A227.725,227.725,0,0,1,40.64,45.348c.669-3.124,1.649-6.091,1.823-6.872,8.486-6.766,19.076-16.394,22.107-27.433.8-2.92.39-6.917-.665-8.623C62.448.066,59.357-.48,56.7.39a20.49,20.49,0,0,0-9.252,5.816c-8.692,9.833-12.64,21.726-15.179,34.261-.239,1.181-.3,1.779-.447,2.366-8.719,6.422-19.935,10.743-29.9,14.556-.852.325-2.233.579-1.864,1.672.35,1.037,1.625.465,2.493.209a108.71,108.71,0,0,0,26.9-11.644,16.244,16.244,0,0,1,1.656-.771s-.28,2.006-.343,2.517a140.1,140.1,0,0,0-1.416,18.482c.163,3.56.208,7.13.518,10.677a60.7,60.7,0,0,0,3.094,15.785,2.193,2.193,0,0,0,2.861,1.516c1.494-.321,1.015-1.336.946-2.358a22.424,22.424,0,0,1,.074-5.026c2.4-14.977,12.065-34.757,17.561-40.458,2.207-2.288,4.456-4.665,7.65-5.551,2.663-.74,7.887.1,7.721,10.223-.19,11.561-2.565,22.847-5.982,33.9-.836,2.708-.908,5.653,1.5,7.609,1.693,1.376,3.962.782,5.7-.331,1.917-1.226,2.933-3.325,3.8-5.359a89.568,89.568,0,0,0,7.023-31.919A73.981,73.981,0,0,1,93.26,20.695c1.429-2.138,6.869-7.387,10.865-2.866,2.222,2.515,1.441,6.687,1.144,9.239-1.022,8.757-3.371,17.212-5.695,25.685-2.028,7.4-5.756,15.241-5.229,22.392a7.335,7.335,0,0,0,3.89,6.1c5.258,2.418,10.981-1.858,15.205-5.37,5.465-4.543,9.418-10.445,13.14-16.461.312-.5.7-.956,1.054-1.433a14.282,14.282,0,0,1-.164,1.82,40.213,40.213,0,0,0-1.06,13.1M44.525,31.38c2.768-8.943,7.187-19.341,13.363-24.452,2.033-1.683,4-2.1,4.122.771.237,5.37-3.608,10.842-7.167,15.3a40.617,40.617,0,0,1-9.467,8.957c-.268.171-.9.737-1.192.87a7.915,7.915,0,0,1,.341-1.441" transform="translate(310.706 192.844) rotate(180)"/><path d="M94.229,54.575c-.49.091-.993.126-1.489.187a10.663,10.663,0,0,1,.566-1.379,34.4,34.4,0,0,0,4.476-13.122C99.218,29.19,94.531,19.815,85.017,17.92,76.911,16.3,70.774,20.53,65.77,26.346,59.4,33.751,54.06,45.529,52.033,58.4a49.818,49.818,0,0,0-7.284,2.79,12.573,12.573,0,0,1-1.21.451c.408-2.829.708-5.693.84-7.1a11.228,11.228,0,0,1,3.185.086c1.322.086,3.273,1.119,3.713-.717.425-1.783-1.119-1.386-2.707-2.063a11.325,11.325,0,0,1-3.741-2.377,89.841,89.841,0,0,0-1.713-32.4c-1.324-5.347-2.806-10.694-6.951-14.713-3.8-3.686-6.911-3.016-8.928,1.768A47.523,47.523,0,0,0,23.748,24.62c.235,5.665,2.061,14.826,9.081,19.532q-.143,3.961-.5,7.91c-.017.068-.041.127-.058.2a.231.231,0,0,0,.026.163c-.036.4-.077.8-.117,1.193a69.049,69.049,0,0,0-9.743,3.766c-7,3.392-13.77,7.166-18.691,13.453-.582.741-1.565,1.727-.463,2.711,1.217,1.087,1.934-.27,2.5-.937,5.146-6.084,16.006-13.2,25.8-15.766.085-.023.159-.041.24-.064A156.818,156.818,0,0,1,28.36,75.214a11.88,11.88,0,0,1-1.249,1.934A154.657,154.657,0,0,0,3.5,118.434C1.611,123.27-.373,130.066.06,133.627c.342,2.829,1.156,5.684,5.038,5.693,2.642.007,6.485-2.3,9.426-5.8C29.792,115.355,37.23,93.387,42.018,70.465c.62-2.971.88-5.448,1.047-6.259,2.554-1.1,6.507-2.85,8.513-3.428-.2.912-.227,3.161-.335,5.219-.09,9,2.088,14.394,7.444,20.112,6.955,7.424,20.819,4.918,23.617-4.27,4.19-13.759-5.118-26.2-19.574-25.677a17.767,17.767,0,0,0-4.414.411C58.974,45.63,63.873,29.831,73.7,22.847c3.525-2.5,7.786-3.978,11.871-2.243,3.7,1.572,5.11,5.5,5.522,9.475a24.706,24.706,0,0,1-1.046,8.054c-1.425,5.8-5.231,10.375-7.879,15.543-1.128,2.2-1.379,4.438.689,6.392,1.991,1.88,3.75,1.249,5.913.038,6.249-3.5,12.7-6.355,19.993-2.8.6.292,1.515,1.094,1.869.448.463-.843-.623-1.39-1.287-1.854-4.783-3.336-9.953-2.3-15.119-1.32m-68.5,30.2c-.309,1.045-.612,2.09-.932,3.131-1.06,3.462-3.062,10.535-5.083,16.364A148.447,148.447,0,0,1,9.5,126.788c-.822,1.429-3.45,5.44-5.277,5-1.062-.253-1.029-1.565-.875-3.009.675-6.351,3.045-11.4,5.773-17,4.551-9.358,9.315-18.6,15.481-27.03.331-.452,1.251-1.764,1.648-2.169-.076.554-.345,1.559-.517,2.2m7.179-43.743c-.387-.326-.839-.73-1.031-.934-3.466-3.715-5.531-10.787-5.129-18.288a29.534,29.534,0,0,1,1.971-11.9c.435-1.025.931-1.437,1.414.029a24.809,24.809,0,0,1,.708,2.927c.868,7.113,1.805,14.2,2.021,21.37q.1,3.4.045,6.8M61.71,58.55c9.12-.2,15.558,4.737,17.705,11.694,1.615,5.225-1.546,10.02-6.622,10.053-5.266.036-10.5-3.769-12.524-9.44-.929-2.6-2.565-2.886-1.986-11.952a14.582,14.582,0,0,1,3.427-.354" transform="translate(125.647 234.802) rotate(180)"/><g transform="translate(292.77 169.326) rotate(180)"><g transform="translate(0)" clip-path="url(#h)"><rect width="7.211" height="14.427" transform="translate(-0.221)" fill="#e53341"/></g></g><g transform="translate(446.792 261.778) rotate(180)"><g transform="translate(0)" clip-path="url(#i)"><rect width="327.062" height="173.411" transform="translate(-0.009 0)" fill="#e53341"/></g></g><g transform="translate(0 221.709)"><path d="M1.4,17.454a1.744,1.744,0,0,0,2.2-.517C7.456,13.2,10.284,8.9,10.921,3.429A2.922,2.922,0,0,0,9.466.3,2.306,2.306,0,0,0,6.516.871C3.124,4.806,1.324,9.528,0,14.08-.02,15.7.365,16.8,1.4,17.454" transform="translate(210.718 54.558) rotate(180)"/><path d="M108.7,29.733a199.471,199.471,0,0,0-6.763,18.958c-1.6,5.4-2.746,10.093-3.617,13.707-3.979,2.972-9.873,7.056-13.365,9.835-.225.179-.465.342-.7.508.417-1.291.8-2.59,1.147-3.905.579-2.218,1.2-4.584,1.572-6.906a36.33,36.33,0,0,0,.366-11.34c-1.152-7.546-7.294-10.078-13.8-6.213-4.965,2.952-9.855,9.935-14.2,16.956-.248.4-.478.809-.692,1.2a30.661,30.661,0,0,0-2.4-8.639c-.813-1.786-2.009-5-4.679-4.609h0c-.194.111-.461.036-.716.1-1.821.469-2.128,2.231-2.641,3.776-3.087,9.285-5.049,18.953-10,27.6C34.065,88,30.2,95.405,23.248,100.474c-1.387,1.01-3.366,1.7-4.863.933-1.543-.791-1.581-2.982-1.34-4.768,1.451-10.767,6.043-20.605,9.1-30.9,1.9-6.4,4.214-12.81,2.391-19.683-1.711-6.451-8.217-9.608-13.737-6.14C6.82,44.93,3.071,57.534.155,67.814c-.386,1.361-.1,2.666,1.442,2.524,1.263-.117,1.815-1.307,2.064-2.271,2.24-8.649,5.276-18.808,10.8-24.137,1-.96,2.349-1.8,3.579-1.579,1.774.319,2.025,2.33,2,3.93a40.337,40.337,0,0,1-2.169,11.1C14.015,70.075,8.8,82.4,7.493,95.78c-.378,3.849-.339,7.863,3.191,10.246,3.627,2.448,7.481,1.41,11.042-.769a39.816,39.816,0,0,0,9.68-8.572c7.786-9.285,12.8-20.01,16.528-31.426a7.492,7.492,0,0,1,.745-1.318c.007.463.033.925.017,1.388-.372,10.018-2.223,19.855-3.794,29.716-.428,2.691.376,4.724,2.659,5.331,2.324.619,3.827-1.286,4.837-3.4a74.744,74.744,0,0,0,2.895-6.9s0,.008.005,0a60.069,60.069,0,0,0,3.458-16.328A57.28,57.28,0,0,0,59,67.57,106.708,106.708,0,0,1,70.2,50.858c1.059-1.271,3.953-4.3,6.039-3.139,1.364.762,1.372,3.987,1.018,6.527-1.4,10.077-5.563,19.173-9.056,28.528-1.192,3.195-.368,6.154,2.222,7.6a4.053,4.053,0,0,0,3.293.345c.009,0,.019,0,.028,0,4.209-.976,6.565-7.432,8.416-12.215A56.88,56.88,0,0,1,93.2,68.77c1.331-.953,2.794-1.783,4.2-2.659-.162.936-.347,1.976-.543,3.071-.414,2.13-.946,4.878-1.249,7.3h0a54.573,54.573,0,0,0-.885,8.937c.045,1.174.375,2.7,1.762,2.914,1.344.207,1.738-1.222,2.251-2.238,5.078-10.048,11.154-19.332,20.25-26.275,2.712-2.07,6.49-4.552,9.784-2.818,2.683,1.41,2.574,6.308,2.179,9.661-1.237,10.5-5.349,19.961-11.066,28.731-2.992,4.59-6.572,9.9-11.722,12.213-5.506,2.469-7.815-.137-7.692-5.748a21.841,21.841,0,0,1,2.208-9.768c.416-.806,1.275-1.787.05-2.436-1.127-.6-1.983.1-2.609,1.19a22.612,22.612,0,0,0-3.069,10.209c-.4,8.262,4.264,13.961,12.965,11.3,10.618-3.248,19.2-12.5,25.035-23.03,4.474-8.079,3.757-11.3,9.881-18.809,5.142-6.306,14.129-16.7,20.91-20.26a6.97,6.97,0,0,1,2.463-.8c4.505-.549,4.89,6.766,4.759,10.489a61.846,61.846,0,0,1-2.516,13.575c-.138.52-.3,1.178-.493,1.943a12.931,12.931,0,0,1-4.939,2.89c-11.064,3.978-19.619,13.513-21.659,23.311-1.031,4.958.315,7.553,3.592,8.411,3.256.848,10.058-.388,14.849-3.441A55.022,55.022,0,0,0,176.52,92.954c0,.009-.013.029-.008.023.083-.114.174-.241.261-.363a66.663,66.663,0,0,0,6.039-10q.354-.708.669-1.39c.03-.065.062-.126.093-.191.009-.023.013-.041.021-.062.232-.514.447-1.014.632-1.491,4.126-1.52,9.646-3.763,13.193-6.082.793-.479,1.591-.986,2.391-1.507a14.593,14.593,0,0,0,.159,1.613c1.561,9.825,10.778,13.057,19.9,8.493a39.006,39.006,0,0,0,15.392-14.4,90.68,90.68,0,0,0,11.317-25.307,9.549,9.549,0,0,1,.632-1.417,8.572,8.572,0,0,1,.264,1.441c.034,2.23.156,4.468.012,6.689q-.471,7.263-1.243,14.493c-1.181,7.691-2.556,17.419-3.57,22.33-.42,2.041-.871,4.076-1.326,6.109-5.246,6.094-9.59,10.979-13.161,15.519-8.287,10.535-14.621,22.044-16.628,35.5-.455,3.05-.3,7.272,1.524,8.978,1.877,1.758,4.653,1.645,7.265.8,2.289-.737,5.558-2.943,8.558-6.312,5.873-6.6,11.968-18.387,16.6-30.912h0c.472-1.245.924-2.526,1.356-3.81,1.135-3.314,2.154-6.646,3.033-9.92.341-1.2.647-2.281.911-3.2,1.213-4.213,2.237-8.479,3.033-12.791.262-1.43.5-2.864.716-4.3,4.58-4.45,13.181-13.037,14.766-14.626.622-.623,1.124-1.5.477-2.118-.677-.65-1.31.233-1.824.733-2.742,2.664-8.392,8.163-12.939,12.582.18-1.413.347-2.827.484-4.246.391-4.072,1.481-14,1.368-19.394h0c.036-2.211.024-4.574-.054-7.112-.269-8.757-1.629-17.779-3.922-23.907-.7-1.857-2.1-4.114-3.3-3.739-2.483.781-3.279,3.07-3.277,5.5,0,2.223.839,4.6.309,6.645C243.57,43.74,239.392,55.249,231.4,64.922c-4.007,4.851-8.533,9.06-15.032,10.444-3.57.76-6.215-.194-7.8-2.523a11.9,11.9,0,0,1-1.665-5.97,108.32,108.32,0,0,0,13.2-11.535c5.749-6.632,10.641-13.866,12.741-22.562.714-2.957,1.45-8.314-1.3-9.584-2.671-1.234-6.555,1.4-8.934,3.595-11.605,10.7-18.425,24.5-22.367,39.7-.125.744-.231,1.491-.31,2.24-.858.562-1.706,1.088-2.534,1.565a81,81,0,0,1-12.023,5.789,53.034,53.034,0,0,0,2.48-13.653,34.079,34.079,0,0,0,.117-4c-.4-12.8-8.726-18.8-18.466-14.707a32.638,32.638,0,0,0-7.367,4.618,110.256,110.256,0,0,0-18.2,19.3c-.311.412-1.652,2.394-2.024,2.758.777-4.305-.044-10.82-1.975-14.328-2.683-4.869-8.7-6.088-15.405-3-8.049,3.7-13.819,10.052-19.329,16.7-.366.441-.791.832-1.189,1.247.642-1.882,1.478-4.252,2.3-6.556.767-2.131,1.9-5.13,3.21-8.511,9.411-7.293,19.468-16.765,26.2-26.5,4.236-6.125,8.278-12.428,8.145-20.366-.1-6.291-3.613-9.711-9.619-9-7.033.83-11.551,5.6-15.212,10.938a114.04,114.04,0,0,0-10.325,18.7m51.787,68.52a28.842,28.842,0,0,1-5.81,5.5c-1.919,1.406-6.211,3.81-8.234,2.051-1.506-1.31-.072-5.372.6-7.077,2.879-7.318,6.665-12.263,14.937-16.344,1.609-.793,5.535-2.358,6.995-2.845-1.511,5.3-3.831,12.712-8.486,18.711m78.688,2.94c-1.491,5.95-3.1,11.879-4.891,17.745q-1.881,5.45-4.134,10.778c-2.533,5.952-4.939,11.921-8.9,17.16-2.7,3.567-5.33,4-6.08,3.3-1.551-1.44-1.526-3.576-1.206-6.086,1.412-11.08,7.859-22.4,15.218-32.409,2.234-3.041,6.306-8.067,10.712-13.489-.241,1-.468,2-.717,3m-31.459-41.37A70.979,70.979,0,0,1,222.6,30.728c1.564-1.824,4.655-5.1,6.607-5.1,1.482,0,1.709,2.472,1.535,4.153-.714,6.886-4.749,12.811-8.38,18.22-2.387,3.555-8.616,9.993-15.34,15.482a25.838,25.838,0,0,1,.695-3.66M128.4,15.016c5.814-8.269,9.342-9.892,11.341-8.921,1.282.622,1.3,2.7,1.141,4.012-.969,7.818-4.965,13.454-9.4,19.732-4.987,7.06-13.833,15.777-19.732,20.379,3.424-8.707,7.231-18.113,8.8-21.708A108.926,108.926,0,0,1,128.4,15.016" transform="translate(270.112 153.325) rotate(180)"/></g><g transform="translate(265.219 220.715)"><path d="M6.521.1A2.572,2.572,0,0,0,3.556,1.23C1.8,4.106.22,7.109.006,10.672a2.745,2.745,0,0,0,2.077,2.878c1.324.467,2.99,1.7,3.938-.208C7.1,11.178,8.6,9.045,8.283,6.287,8.12,5.038,8,3.778,7.779,2.541,7.611,1.6,7.634.4,6.521.1" transform="translate(107.26 43.549) rotate(180)"/><path d="M2.515,8.521c2.6-3.963,6.671-4.723,10-2.39,6.066,4.242,2.967,21.777,1.681,29.662C12.932,43.559,10.2,51,9.624,58.925,9.082,66.408,12.36,71.111,18.8,70.041c3.338-.555,6.344-3.588,8.523-6.141,7.357-8.617,12.3-18.771,15.73-29.841a9.537,9.537,0,0,1,.631-1.319,9.577,9.577,0,0,1,.11,1.368q-.431,7.3-.9,14.586a315.384,315.384,0,0,1-4.511,35.022c-1.844,10.278-3.883,20.465-7.6,30.241-1.815,4.768,2.594,5.615,5.432,7.1,2.1,1.106,2.57-1,3.13-2.175a41.156,41.156,0,0,0,2.656-7.179A302,302,0,0,0,48.6,78.954c0,.007.008.013.011,0a266.7,266.7,0,0,0,3.063-26.965,169.108,169.108,0,0,1,11.5-21.744c1-1.519,2.212-3.184,4.357-2.748,2.126.435,2.88,2.341,3.195,4.234C73.1,46.053,72,61.84,70.174,75.435c-1.007,6.9-2.822,15.79-4.443,23.86-5.584-1.277-14.444-1.29-17.885.941-.555.361-1.573.806-.929,2,.506.937,1.088.687,1.861.363,3.843-1.611,11.441-1.717,16.447-.774-1.547,7.754-2.8,14.422-2.8,17.3v0a41.194,41.194,0,0,0-.062,4.633c.269,5.11,5.835,7.191,8.615,1.711A45.265,45.265,0,0,0,73.6,118.24c1.026-3.067,2.19-7.085,3.359-11.891,12.7,4.767,29.557,9.907,43.985,9.907,13.792,0,26.544-3.644,38.882-9.4a89.586,89.586,0,0,0,29.231-21.991c2.964-3.34,5.134-5.734,8.7-10.191a1.46,1.46,0,0,0,.089-2c-.484-.486-1.007-.147-1.417.339a136.586,136.586,0,0,1-10.867,11.636,91.136,91.136,0,0,1-28.549,18.9c-12.806,5.3-26.13,7.288-40,7.354-12.835.061-24.839-2.271-39.392-7.341A254.22,254.22,0,0,0,82.506,73.78c.459-4.362.867-8.727,1.067-13.1,2.781-9.38,7.864-23.55,11.458-28.5,1.177-1.624,2.679-2.568,3.6-2.259,3.327,1.108,2.509,9.19,2.142,12.176-1.235,10.016-4.427,19.489-6.868,29.17-.72,2.854-.675,5.55,2,6.724,2.458,1.079,4.722.954,6.25-1.161a14.6,14.6,0,0,0,2.165-4.14,52.122,52.122,0,0,0,1.877-6,15.551,15.551,0,0,1,4.767-2.866,52.172,52.172,0,0,0,5.388,17.887,28.359,28.359,0,0,0,3.249,5.036c.034.044.068.091.1.137.009.012.013.007.019.005a23.537,23.537,0,0,0,7.119,5.836c4.417,2.369,8.662,1.088,8.918-5.224.362-8.918-2.613-16.707-9.113-22.494-.615-.546-2.4.65-.681,2.622a27.6,27.6,0,0,1,7.393,18.121c.042.846-.26,2.243-1.21,2.184-1.642-.1-5.106-4.019-6.418-6.127-5.437-8.719-8.9-18.3-9.193-28.836-.286-10.083,1.287-22.632,8.795-27.612a8.274,8.274,0,0,1,12.388,3.719c1.212,2.717,1.277,5.631,1.341,8.58.143,6.585-2.158,12.965-1.25,19.625.492,3.612,2.028,5.96,5.484,6.333,3.7.4,3.994-2.659,4.523-5.468,1.956-10.4,7.2-19.544,14.173-24.329,5.134-3.523,12.184-1.685,13.179,4.647a22.852,22.852,0,0,1-.044,7.693c-1.972,13.726-8.733,24.541-17.6,34.066-.691.741-2.318,1.135-1.306,2.4.927,1.159,2.338.323,3.273-.6a24.552,24.552,0,0,1,7.291-4.845A34.01,34.01,0,0,1,183.1,74.841c.628.074.567-1.249-.091-1.375a39.017,39.017,0,0,0-12.9.037,5.858,5.858,0,0,1-1.025.017c.211-.289.419-.579.632-.866,5.409-7.186,10.6-14.513,12.524-23.844,1.632-7.915-.5-15.555-5.664-18.809-5.957-3.751-12.615-2.308-18.425,3.4-3.354,3.294-6.846,8.947-8.681,12.666a46.393,46.393,0,0,0-.638-7.642c-1.5-13.18-8.76-19.414-19.472-17.46-6.344,1.156-9.8,4.881-12.66,10.452l-.009.011c-2.684,4.748-4.365,12.329-5.176,17.019a55.2,55.2,0,0,0-.77,12.892c-.921.646-2.4,1.045-3.81,2.024q.263-1.322.481-2.658A105.173,105.173,0,0,0,108.8,48.689c.048-1.034.036-2.293-.019-3.639a44.681,44.681,0,0,0-1.3-11.929c-1.108-3.914-2.784-7.542-6.845-7.628-3.263-.07-5.932,2.939-8,5.82-4,5.57-8.2,19.171-8.962,21.415,0-.06,0-.121,0-.182-.175-6.591-.695-15.542-3.34-22.513,0-.005,0,0-.005,0-.205-.577-.42-1.152-.657-1.722C75.795,18.992,68.2,18.28,62.366,26.5,58.769,31.57,55.578,38.593,52,45.765c.323-8.205.172-16.237-.921-22.09l-.005,0c-.164-1.124-.363-2.244-.612-3.36-.449-2.013-1.216-4.077-3.388-4.092C45.1,16.2,44.318,17.913,44,19.989A96.91,96.91,0,0,1,35.29,47.16C31.829,54.4,28.21,60.72,21.849,65.476c-.956.716-3.018,1.9-4.032,1.075-1.536-1.247-.864-3.433,1.394-11.4,3.552-12.528,6.942-24.969,7.666-38.1C27.406,7.458,22.682.662,15.07.061A14.627,14.627,0,0,0,.557,7.513C-.865,9.936.672,11.325,2.515,8.521" transform="translate(198.209 128.707) rotate(180)"/></g><path d="M2.057,67.758c1.735-5.871,5.093-9.031,8.877-8.507,3.108.428,4.718,2.618,5.606,5.421a23.882,23.882,0,0,1,.83,7.98c-.285,10.55-4.038,20.375-6.234,30.525-.875,4.042-1.731,8.118-.905,12.3a5.327,5.327,0,0,0,5,4.529c2.639.292,3.213-1.873,3.746-3.888q2.135-8.063,4.3-16.116C26.9,86.523,35.124,69.981,43.416,64.864c5.062-3.122,10.427-1.087,11.164,4.8,1.029,8.229-3.472,22.717-6.809,37.3-.895,3.908-.843,7.6,3.416,9.539,3.749,1.7,6.728.517,9.165-2.847A63.09,63.09,0,0,1,72.6,101.46a4.373,4.373,0,0,1,.892-.473,41.932,41.932,0,0,0-.494,6.295c-.379,7.505.864,14.06,5.038,20.412,5.888,8.962,18.613,10.96,26.786,5.934,12.2-7.5,13.035-26.244,2.145-35.681a25.707,25.707,0,0,0-12.377-6.1s0-.007,0-.008a27.538,27.538,0,0,0-13.77.713c3.112-13.544,9.6-26.724,18.882-31.513,2.717-1.4,5.889-2.1,8.563-.312,2.155,1.444,2.841,4.76,2.761,7.721-.2,7.431-4.414,13.437-6.978,20.033-1.461,3.754,1.921,5.118,3.914,7.023,1.561,1.493,3.146.826,4.573-.555q6.3-6.082,12.67-12.089c1.243-1.172,3.405-3.214,4.845-4.472a165.759,165.759,0,0,0,4.321,24.564,33.338,33.338,0,0,0,1.592,5.3,2.745,2.745,0,0,0,2.712,1.919c1.341-.013,1.185-1.494,1.393-2.371,3.444-14.535,8.64-30.665,15.055-42.234,3.091-5.379,6.2-11.252,11.486-14.311,4.454-2.579,8.742-.86,9.6,4.246a23.718,23.718,0,0,1-.472,8.817c-2.147,10.309-7.764,19.3-11.075,29.161-2.167,6.454-5.023,12.769-3.924,19.887a7.781,7.781,0,0,0,5.872,6.482c2.695.714,4.023-2.06,5.024-4.34,1.886-4.3,3.861-8.558,5.64-12.9,5.4-13.175,9.606-28,7.834-41.141-.919-6.815-4.65-12.958-10.15-14.444-6.406-1.73-10.925,1.78-14.987,6.117-5.862,6.258-10.525,16.144-14.224,25.081-2.916,7.04-4.874,13.971-7.7,22.877-.1-1.239-.219-2.587-.338-4.008-.463-6.086-.638-13.727-.593-17.444.041-3.354.227-5.463.518-8.426a5.685,5.685,0,0,1,.87-1.563,279.644,279.644,0,0,0,17.037-23.674c5.916-9.463,10.941-19.961,11.572-30.688.384-6.536-1.58-12.5-5.895-14.307-5.562-2.325-10.96-.5-15.84,4.952-6.747,7.533-9.818,16.773-12.236,26.232q-1.1,4.311-1.9,8.68c-.224,1.186-.418,2.383-.591,3.583-.331,2.174-.594,4.354-.8,6.542-.046.445-.094.891-.141,1.335a110.241,110.241,0,0,0-.3,18.65c.062.94.152,2.162.278,3.608-.1.081-.209.162-.323.248-.28.215-9.239,8.583-9.569,8.729a30.718,30.718,0,0,0,1.964-11.571c-.561-6.51-2.508-12.228-9.333-14.857-6.19-2.383-11.4.114-16.26,3.5-5.044,3.522-9.6,9.433-13.43,16.6,0-.005,0-.012-.007-.005-.078.15-.156.3-.236.447-.021.04-.041.078-.062.117a91.76,91.76,0,0,0-7.542,17.738c-.574.391-1.139.8-1.681,1.223a75.75,75.75,0,0,0-7.4,6.542h0c-1.255,1.2-2.691,2.573-4.338,4.112.582-3.049,1.886-9.21,2.644-13.429,1.487-8.278,2.564-16.415-.045-24.875-3.183-10.325-13.693-12.574-22.494-6.474C33.695,68.077,29.261,76.755,26.62,81.26A36.839,36.839,0,0,0,24.5,64.2c-2.109-5.5-7.365-9.295-13.2-8.861C5.256,55.784,1.366,60.727.056,66.957c-.4,1.917,1.467,2.6,2,.8m136.377-3.653c.262-2,.541-4,.8-6,.246-1.911.444-3.827.671-5.741.158-1.335.419-2.7.529-4.06.7-4.144,1.491-8.2,2.279-11.662,1.756-7.728,3.888-16.491,7.594-23.559,4.08-7.78,7.4-9.491,9.459-9.071,2.192.449,3.525,3.176,3.833,5.616a27.954,27.954,0,0,1,.08,5.042c-.774,12.927-8.453,26.834-16.352,38.113-2.073,2.96-8.306,11.241-8.926,11.833.011-.167.025-.343.037-.513m-58.3,31.642A25.14,25.14,0,0,1,91.26,94.381c9.8,1.261,19.313,8.294,19.6,17.659.308,9.972-6.976,15.533-16.573,12.654a21.806,21.806,0,0,1-11.572-8.137c-3.315-6.3-3.637-13.794-2.585-20.808" transform="translate(330.671 485.753) rotate(180)"/></svg>