<svg xmlns="http://www.w3.org/2000/svg" width="70" height="70" viewBox="0 0 70 70"><path d="M35,2A33.009,33.009,0,0,0,22.156,65.408,33.009,33.009,0,0,0,47.844,4.592,32.792,32.792,0,0,0,35,2m0-2A35,35,0,1,1,0,35,35,35,0,0,1,35,0Z" fill="#fafafa"/><path d="M31.053,40.135a4.844,4.844,0,0,0,4.578-3.308l6.254-18.671L36.9,16.475l.607-1.811a7.3,7.3,0,1,0-13.839-4.67l-.606,1.812-4.985-1.682-6.254,18.67a4.856,4.856,0,0,0,3.042,6.145l14.644,4.94a4.822,4.822,0,0,0,1.545.256ZM25.666,10.669a5.193,5.193,0,1,1,9.842,3.32L34.9,15.8,25.06,12.48l.606-1.811Zm-11.7,20.889a2.729,2.729,0,0,1-.142-2.089L19.4,12.8l2.986,1.008-1,3-1.493-.5-.672,2.005,4.985,1.682.672-2.005-1.493-.5,1-3,9.841,3.321-1,3-1.493-.5-.672,2.005,4.985,1.682.672-2.005-1.493-.5,1-3,2.987,1.008L33.632,36.152a2.722,2.722,0,0,1-3.452,1.721L15.536,32.934a2.713,2.713,0,0,1-1.573-1.375Zm-2.932,8.358h9.488v2.116H11.031Zm-5.8,0H8.4v2.116H5.233Zm1.054-3.7h8.434v2.116H6.287Z" transform="translate(11.691 11.11)" fill="#fff"/></svg>