<svg xmlns="http://www.w3.org/2000/svg" width="70" height="70" viewBox="0 0 70 70"><g transform="translate(-20 -3408)"><path d="M35,2A33.009,33.009,0,0,0,22.156,65.408,33.009,33.009,0,0,0,47.844,4.592,32.792,32.792,0,0,0,35,2m0-2A35,35,0,1,1,0,35,35,35,0,0,1,35,0Z" transform="translate(20 3408)" fill="#fafafa"/><g transform="translate(32.988 3420.988)"><path d="M16.223,37.988,8.781,45.431,6.8,40.683,2,38.65l6.56-6.56.643.5a6.79,6.79,0,0,1,1.832,1.4c.834.959,1.122,2.2,2.954,3.251a5.985,5.985,0,0,0,2.235.748ZM44.2,38.65l-4.8,2.033-2.033,4.8-7.442-7.442a5.985,5.985,0,0,0,2.235-.748c2.5-1.448,1.995-3.079,4.45-4.45a6.119,6.119,0,0,0,.959-.7Z" transform="translate(-1.038 -2.295)" fill="#a1cede"/><path d="M13.469,36.874,7.714,42.628,6.9,40.71,5,39.943l6.033-6.033C12.116,35.051,11.944,35.742,13.469,36.874Zm27.977,3.069-1.918.815-.815,1.918-5.755-5.755c1.554-1.151,1.352-1.822,2.465-2.964Z" transform="translate(-1.16 -2.37)" fill="#fafafa"/><path d="M26.263,2.815a6.109,6.109,0,0,0,3.031.815,6.061,6.061,0,0,1,5.265,3.031,5.9,5.9,0,0,0,2.225,2.225,6.061,6.061,0,0,1,3.031,5.265,6.109,6.109,0,0,0,.815,3.031,6.09,6.09,0,0,1,0,6.081,6.109,6.109,0,0,0-.815,3.031,6.061,6.061,0,0,1-3.031,5.265,5.9,5.9,0,0,0-2.225,2.225,6.061,6.061,0,0,1-5.265,3.031,6.109,6.109,0,0,0-3.031.815,6.09,6.09,0,0,1-6.081,0,6.109,6.109,0,0,0-3.031-.815,6.061,6.061,0,0,1-5.265-3.031,5.9,5.9,0,0,0-2.225-2.225,6.061,6.061,0,0,1-3.031-5.265,6.109,6.109,0,0,0-.815-3.031,6.09,6.09,0,0,1,0-6.081,6.109,6.109,0,0,0,.815-3.031A6.061,6.061,0,0,1,9.661,8.886a5.9,5.9,0,0,0,2.225-2.225,6.061,6.061,0,0,1,5.265-3.031,6.109,6.109,0,0,0,3.031-.815,6.09,6.09,0,0,1,6.081,0Z" transform="translate(-1.16 -1.064)" fill="#fafafa"/><path d="M25.784,6.643a4.8,4.8,0,0,0,2.4.643,4.8,4.8,0,0,1,4.153,2.4,4.8,4.8,0,0,0,1.755,1.755,4.8,4.8,0,0,1,2.4,4.153,4.8,4.8,0,0,0,.642,2.4,4.8,4.8,0,0,1,0,4.8,4.8,4.8,0,0,0-.643,2.4,4.8,4.8,0,0,1-2.4,4.153,4.8,4.8,0,0,0-1.755,1.755,4.8,4.8,0,0,1-4.153,2.4,4.8,4.8,0,0,0-2.4.642,4.8,4.8,0,0,1-4.8,0,4.8,4.8,0,0,0-2.4-.643,4.8,4.8,0,0,1-4.153-2.4,4.8,4.8,0,0,0-1.755-1.755,4.8,4.8,0,0,1-2.4-4.153,4.8,4.8,0,0,0-.642-2.4,4.8,4.8,0,0,1,0-4.8,4.8,4.8,0,0,0,.643-2.4,4.8,4.8,0,0,1,2.4-4.153,4.8,4.8,0,0,0,1.755-1.755,4.8,4.8,0,0,1,4.153-2.4,4.8,4.8,0,0,0,2.4-.642,4.8,4.8,0,0,1,4.8,0Z" transform="translate(-1.324 -1.228)" fill="#a1cede"/><path d="M44.84,36.7l-5.908-5.9a7.03,7.03,0,0,0,1.678-4.546,5.093,5.093,0,0,1,.671-2.551,7.088,7.088,0,0,0,0-7.04,5.093,5.093,0,0,1-.691-2.551,7.039,7.039,0,0,0-3.51-6.09A5.2,5.2,0,0,1,35.162,6.1,7.04,7.04,0,0,0,29.13,2.631a5.093,5.093,0,0,1-2.551-.671,7.088,7.088,0,0,0-7.04,0,5.093,5.093,0,0,1-2.551.691A7.039,7.039,0,0,0,10.9,6.16,5.2,5.2,0,0,1,8.979,8.079a7.04,7.04,0,0,0-3.472,6.033,5.093,5.093,0,0,1-.671,2.551,7.088,7.088,0,0,0,0,7.04,5.093,5.093,0,0,1,.691,2.551A7.03,7.03,0,0,0,7.205,30.8L1.278,36.7a.959.959,0,0,0,.307,1.563L5.978,40.18,7.9,44.572a.959.959,0,0,0,1.563.307l7.126-7.136h.441c2.494,0,2.954,1.63,6.071,1.63s3.549-1.63,6.071-1.63h.441l7.126,7.136a.959.959,0,0,0,1.563-.307l1.918-4.393,4.393-1.918a.959.959,0,0,0,.23-1.563ZM9.066,42.453C7.5,38.8,7.56,38.7,7.08,38.5L3.637,37.053l4.978-4.978A5.975,5.975,0,0,1,10.9,34.224a7.088,7.088,0,0,0,3.434,2.992ZM25.62,36.7a5.141,5.141,0,0,1-5.122,0,6.963,6.963,0,0,0-3.51-.959,5.131,5.131,0,0,1-4.431-2.551,7.011,7.011,0,0,0-2.58-2.455,5.131,5.131,0,0,1-2.551-4.479,6.963,6.963,0,0,0-.959-3.51,5.141,5.141,0,0,1,0-5.122,6.963,6.963,0,0,0,.959-3.51A5.131,5.131,0,0,1,9.977,9.681a7.011,7.011,0,0,0,2.58-2.58A5.131,5.131,0,0,1,16.988,4.55a6.963,6.963,0,0,0,3.51-.959,5.16,5.16,0,0,1,5.122,0,6.963,6.963,0,0,0,3.51.959A5.131,5.131,0,0,1,33.609,7.1a7.011,7.011,0,0,0,2.58,2.58,5.131,5.131,0,0,1,2.551,4.431,6.963,6.963,0,0,0,.959,3.51,5.141,5.141,0,0,1,0,5.122,6.963,6.963,0,0,0-.959,3.51,5.131,5.131,0,0,1-2.6,4.479,7.011,7.011,0,0,0-2.532,2.532,5.131,5.131,0,0,1-4.431,2.551,6.963,6.963,0,0,0-3.558.95Zm13.427,1.765c-.47.2-.384.211-1.985,3.951l-5.275-5.2a7.088,7.088,0,0,0,3.434-2.992A6.013,6.013,0,0,1,37.5,32.075l4.978,4.978Z" transform="translate(-0.996 -1.024)" fill="#fafafa"/></g></g></svg>