<svg xmlns="http://www.w3.org/2000/svg" width="1000.401" height="233.134" viewBox="0 0 1000.401 233.134"><g transform="translate(0.5 0.5)"><path d="M0,188.519a42.81,42.81,0,0,1,51.324-41.938c-.059-.957-.145-1.907-.145-2.879a46.522,46.522,0,0,1,83.054-28.833,46.291,46.291,0,0,1,28.264-9.622c.914,0,1.806.084,2.706.136a70.682,70.682,0,0,1,88.625-49.8,99.179,99.179,0,0,1,179.727,3.334A68.782,68.782,0,0,1,535.11,117.672c1.837-.178,3.7-.281,5.581-.281a56.961,56.961,0,0,1,0,113.921c-.488,0-.96-.06-1.445-.073v.073H41.347v-.073A42.761,42.761,0,0,1,0,188.519m424.8-14.362c-.025.161-.047.323-.074.484h.722c-.217-.161-.433-.321-.648-.484" transform="translate(401.749 0)" fill="#cae7f1"/><path d="M540.691,231.812c-.291,0-.572-.02-.844-.039l-.1-.007v.046H40.847v-.092a43.268,43.268,0,0,1,1.946-86.493,43.615,43.615,0,0,1,7.989.74l0-.032c-.05-.725-.1-1.474-.1-2.232a46.99,46.99,0,0,1,76.652-36.537,47.61,47.61,0,0,1,6.988,7.011,47.165,47.165,0,0,1,12.83-6.844,46.6,46.6,0,0,1,15.347-2.585c.682,0,1.354.046,2,.09l.324.022a71.179,71.179,0,0,1,88.74-49.871,99.711,99.711,0,0,1,180.226,3.237A69.144,69.144,0,0,1,504.6,61.6,69.518,69.518,0,0,1,529.7,91.3a68.9,68.9,0,0,1,5.9,25.826c1.774-.158,3.446-.234,5.1-.234a57.194,57.194,0,0,1,32.127,9.814,57.627,57.627,0,0,1,20.818,25.281,57.386,57.386,0,0,1-5.3,54.493A57.628,57.628,0,0,1,563.057,227.3,57.1,57.1,0,0,1,540.691,231.812Zm-1.945-1.087.513.014c.224.006.445.021.658.036.267.019.519.036.774.036a56.195,56.195,0,0,0,31.567-9.642,56.626,56.626,0,0,0,20.457-24.841,56.386,56.386,0,0,0-5.206-53.544,56.627,56.627,0,0,0-24.842-20.457,56.107,56.107,0,0,0-21.977-4.437c-1.782,0-3.592.091-5.533.279l-.535.052-.013-.537a68.074,68.074,0,0,0-12.2-37.293,68.4,68.4,0,0,0-29.826-24.08,67.812,67.812,0,0,0-26.2-5.212,68.008,68.008,0,0,0-32.589,8.261l-.476.259-.22-.495a98.71,98.71,0,0,0-178.821-3.317l-.186.38-.405-.121a70.31,70.31,0,0,0-88,49.445l-.1.4-.408-.024c-.248-.014-.5-.031-.74-.048-.634-.043-1.289-.088-1.937-.088a45.6,45.6,0,0,0-15.019,2.529,46.2,46.2,0,0,0-12.941,6.989l-.391.3-.305-.386a46.361,46.361,0,0,0-15.725-12.763A46.025,46.025,0,0,0,51.678,143.7c0,.724.05,1.456.1,2.164.016.228.031.456.045.684l.04.65-.638-.129a42.608,42.608,0,0,0-8.432-.845,42.268,42.268,0,0,0-1.429,84.513l.483.016v.057h496.9Zm-111.78-55.585h-2.827l.1-.582c.017-.1.033-.207.048-.311.008-.056.017-.111.025-.167l.127-.831.669.509c.207.157.42.315.627.468Z" transform="translate(401.749 0)" fill="rgba(0,0,0,0)"/><g transform="translate(0 120.702)"><path d="M57.348,104.84q0,3.253-3.927,3.927l-2.244-.563h-22q-4.377-.786-4.378-4.152,0-8.531,16.272-6.173A45.672,45.672,0,0,1,52.3,100.911q5.05,2.132,5.05,3.929M151.06,45.805q0-10.886,3.482-18.293,6.956-14.7,25.926-14.368,13.465.341,25.812,9.43a36.524,36.524,0,0,1,10.885,11.783q7.63-7.182,20.762-6.845,9.2.113,20.427,6.284c.6.376,1.159.747,1.683,1.123a52.169,52.169,0,0,1,6.735-15.6Q279.9-.544,310.091.015q18.966.448,37.148,12.346,20.876,13.691,21.1,32.322a26.209,26.209,0,0,1,11.446-2.02q14.7.338,25.7,13.357a74.574,74.574,0,0,1,10.662,16.159q4.825-9.085,13.355-8.528,8.531.451,14.7,11.223,5.836,9.987,4.824,19.192,5.723-1.124,18.632,3.143t12.569,14.027q-30.975-.222-83.052-1.344-51.961-1.011-128.389-.116-76.314,1.015-120.647.339T69.7,108.879q-5.61-9.99,4.715-13.694,10.322-3.813,13.69-2.244Q91.243,94.4,91.355,94.4a1.583,1.583,0,0,0,.672-.11v-.225a32.514,32.514,0,0,1,2.246-10.1q3.365-8.419,13.355-8.191,6.625.113,10.664,3.478A37.418,37.418,0,0,1,122.1,66.9q7.182-13.465,25.142-13.129a21.257,21.257,0,0,1,4.376.223,52.2,52.2,0,0,1-.562-8.193M.786,107.307A3.381,3.381,0,0,1,0,104.84q0-3.707,6.622-4.266t6.621,4.266a3.6,3.6,0,0,1-.56,2.13q-1.462,1.8-6.061,1.8c-2.916,0-4.865-.485-5.836-1.46" transform="translate(0 0)" fill="#cae7f1"/><path d="M480.714,111.738l-.487,0c-20.506-.147-48.451-.6-83.059-1.344-18.283-.356-39.141-.536-61.993-.536-20.233,0-42.566.141-66.38.42-30.372.4-57.32.609-80.1.609-15.148,0-28.8-.091-40.565-.269-28.823-.438-55.217-.853-78.449-1.235l-.287,0-.141-.25c-1.977-3.52-2.517-6.543-1.606-8.985.875-2.344,3.091-4.169,6.588-5.424,4.9-1.811,8.707-2.73,11.3-2.73a6.6,6.6,0,0,1,2.766.5c2.308,1.071,2.944,1.344,3.117,1.41l.111-.005A33.035,33.035,0,0,1,93.81,83.772c2.318-5.794,6.971-8.656,13.828-8.5a17.593,17.593,0,0,1,10.287,3.058,37.477,37.477,0,0,1,3.738-11.66,23.965,23.965,0,0,1,9.771-10.057,31.1,31.1,0,0,1,14.932-3.346c.288,0,.581,0,.873.008.375-.019.753-.028,1.124-.028a21.726,21.726,0,0,1,2.665.163,55.1,55.1,0,0,1-.468-7.6c0-7.289,1.188-13.515,3.53-18.505a24.269,24.269,0,0,1,9.878-11c4.239-2.428,9.51-3.66,15.668-3.66.277,0,.56,0,.84.007A41.941,41.941,0,0,1,193.825,15.2a51.323,51.323,0,0,1,12.751,6.97A37.625,37.625,0,0,1,217.29,33.564a24.431,24.431,0,0,1,8.252-4.823A33.958,33.958,0,0,1,236.758,27c.388,0,.784.005,1.179.015a35.139,35.139,0,0,1,9.846,1.65,58.3,58.3,0,0,1,10.812,4.7l.026.015c.4.255.772.494,1.11.723a53.055,53.055,0,0,1,6.62-15.048l0-.007a41.433,41.433,0,0,1,7.483-8.554,40.927,40.927,0,0,1,9.527-6.112A50.25,50.25,0,0,1,294.908.716,71.384,71.384,0,0,1,308.447-.5c.544,0,1.1.005,1.653.015a64.813,64.813,0,0,1,18.918,3.336,80.145,80.145,0,0,1,18.494,9.091,65.774,65.774,0,0,1,9.217,7.21,44.476,44.476,0,0,1,6.64,7.861,34.028,34.028,0,0,1,4.043,8.515,32.135,32.135,0,0,1,1.408,8.4,27.078,27.078,0,0,1,10.3-1.769c.221,0,.447,0,.671.005a31.675,31.675,0,0,1,14,3.564,40.4,40.4,0,0,1,12.076,9.97,75.943,75.943,0,0,1,10.308,15.4,17.536,17.536,0,0,1,5.057-5.751,12.584,12.584,0,0,1,7.3-2.229c.328,0,.666.011,1,.033a14.66,14.66,0,0,1,8.216,3.133,27.609,27.609,0,0,1,6.892,8.341,38.375,38.375,0,0,1,4.175,9.919,27.254,27.254,0,0,1,.776,8.922,15.853,15.853,0,0,1,2.138-.135c3.845,0,9.259,1.145,16.09,3.4,4.365,1.442,7.666,3.387,9.81,5.779a12.047,12.047,0,0,1,3.1,8.739Zm-145.538-2.884c22.858,0,43.723.181,62.013.536,34.326.739,62.1,1.19,82.55,1.34a11.584,11.584,0,0,0-.639-3.868,11.05,11.05,0,0,0-2.216-3.684c-2.026-2.261-5.181-4.11-9.379-5.5-6.73-2.224-12.038-3.352-15.777-3.352a13.648,13.648,0,0,0-2.6.225l-.668.131.074-.676a26.077,26.077,0,0,0-.688-9.223,37.392,37.392,0,0,0-4.071-9.662,26.639,26.639,0,0,0-6.633-8.047,13.679,13.679,0,0,0-7.665-2.929h-.006c-.316-.021-.633-.031-.941-.031a11.6,11.6,0,0,0-6.729,2.051,17.243,17.243,0,0,0-5.211,6.243l-.464.874-.428-.892a74.433,74.433,0,0,0-10.592-16.05,39.409,39.409,0,0,0-11.775-9.73,30.679,30.679,0,0,0-13.559-3.452c-.216,0-.436-.005-.652-.005a25.244,25.244,0,0,0-10.573,1.98l-.7.324-.009-.772a31.226,31.226,0,0,0-1.381-8.865,33.027,33.027,0,0,0-3.925-8.264,43.475,43.475,0,0,0-6.491-7.682,64.772,64.772,0,0,0-9.077-7.1A79.146,79.146,0,0,0,328.7,3.8,63.808,63.808,0,0,0,310.079.515C309.535.5,308.985.5,308.447.5A70.387,70.387,0,0,0,295.1,1.7a49.248,49.248,0,0,0-11.313,3.585,39.924,39.924,0,0,0-9.294,5.962,40.434,40.434,0,0,0-7.3,8.344,51.924,51.924,0,0,0-6.669,15.45l-.177.717-.6-.43c-.474-.34-1.012-.7-1.646-1.1a57.294,57.294,0,0,0-10.611-4.61,34.142,34.142,0,0,0-9.568-1.606h-.007c-.387-.01-.776-.015-1.156-.015a32.966,32.966,0,0,0-10.885,1.687,23.368,23.368,0,0,0-8.365,5.037l-.469.442-.311-.564a36.2,36.2,0,0,0-10.741-11.619,50.336,50.336,0,0,0-12.5-6.838,40.937,40.937,0,0,0-13.027-2.5c-.271,0-.548-.007-.819-.007-5.981,0-11.085,1.187-15.171,3.527a21.934,21.934,0,0,0-5.432,4.392,25.6,25.6,0,0,0-4.039,6.17c-2.279,4.855-3.434,10.938-3.434,18.079a51.935,51.935,0,0,0,.556,8.114l.11.68-.681-.107a20.566,20.566,0,0,0-3.182-.245c-.36,0-.727.009-1.091.028h-.035c-.291-.006-.584-.008-.871-.008a30.123,30.123,0,0,0-14.456,3.225,21.965,21.965,0,0,0-5.3,4.014,24.838,24.838,0,0,0-4.061,5.633,37.086,37.086,0,0,0-3.759,12.181l-.126.887-.688-.573c-2.592-2.158-6.075-3.29-10.353-3.363-.172,0-.342-.006-.508-.006a14.147,14.147,0,0,0-7.72,1.97,12.108,12.108,0,0,0-4.654,5.912l0,.008a32.155,32.155,0,0,0-2.207,9.927V94.6l-.279.137a2.031,2.031,0,0,1-.893.161c-.154,0-.224,0-3.465-1.5a5.636,5.636,0,0,0-2.344-.411c-2.478,0-6.166.9-10.962,2.67-3.211,1.153-5.226,2.779-5.993,4.835-.783,2.1-.311,4.753,1.4,7.9,23.161.38,49.456.794,78.159,1.23,11.764.179,25.406.269,40.55.269,22.771,0,49.714-.2,80.083-.608C292.6,109,314.939,108.854,335.176,108.854ZM53.4,109.278l-2.286-.573H29.136l-.044-.008a6.8,6.8,0,0,1-3.539-1.561,4.075,4.075,0,0,1-1.251-3.084,6.125,6.125,0,0,1,2.72-5.428c1.741-1.165,4.355-1.755,7.769-1.755a45.036,45.036,0,0,1,6.356.516,46.383,46.383,0,0,1,11.345,3.066c3.654,1.543,5.355,2.937,5.355,4.39A4.023,4.023,0,0,1,56.72,107.8a5.835,5.835,0,0,1-3.215,1.458ZM29.226,107.7H51.239l2.2.552a4.794,4.794,0,0,0,2.574-1.161,3.022,3.022,0,0,0,.835-2.255c0-.547-.616-1.726-4.744-3.468a45.387,45.387,0,0,0-11.1-3,44.041,44.041,0,0,0-6.212-.505c-3.213,0-5.639.534-7.213,1.586a5.116,5.116,0,0,0-2.276,4.6C25.3,106.025,26.586,107.22,29.226,107.7Zm-22.6,1.563c-3.088,0-5.113-.526-6.19-1.607A3.865,3.865,0,0,1-.5,104.84c0-2.762,2.382-4.365,7.079-4.764.473-.04.928-.061,1.353-.061a6.706,6.706,0,0,1,4.3,1.194,4.428,4.428,0,0,1,1.512,3.631,4.091,4.091,0,0,1-.654,2.421l-.019.024C11.986,108.619,9.876,109.267,6.622,109.267Zm1.311-8.252c-.4,0-.824.019-1.268.057a10.664,10.664,0,0,0-4.739,1.269A2.813,2.813,0,0,0,.5,104.84a2.936,2.936,0,0,0,.641,2.115c.867.87,2.711,1.312,5.481,1.312,2.883,0,4.789-.539,5.664-1.6a3.153,3.153,0,0,0,.458-1.826,3.438,3.438,0,0,0-1.143-2.856A5.774,5.774,0,0,0,7.932,101.015Z" transform="translate(0 0)" fill="rgba(0,0,0,0)"/><path d="M485.064,0h-84.22c.1.905.194,2.1.286,3.561a6.678,6.678,0,0,0,1.052,3.582,11.285,11.285,0,0,0,3.159,3.159,18.619,18.619,0,0,0,6.744,3.793,20.481,20.481,0,0,0,5.478,1.688c.557,0,1.975-1.276,4.214-3.793a14.255,14.255,0,0,1,3.266-2.529,6.508,6.508,0,0,1,3.054-.843,3.048,3.048,0,0,1,2.107,1.054,12.341,12.341,0,0,1,2.107,3.161,11.257,11.257,0,0,0,2.634,3.161,4.63,4.63,0,0,0,2.845,1.054c1.676,0,4.371-.71,8.008-2.109h4.212a23.947,23.947,0,0,0-1.158,6.111,11.793,11.793,0,0,0,.737,4.847,9.244,9.244,0,0,0,2.634,3.5,15.076,15.076,0,0,0,4.531,2.5,31.1,31.1,0,0,0,6.427,1.5,62.657,62.657,0,0,0,8.323.5,27.439,27.439,0,0,0,5.161-.448,15.976,15.976,0,0,0,4.109-1.343,10.8,10.8,0,0,0,3.056-2.238,10.224,10.224,0,0,0,2-3.134c.559-1.683.842-6.078.842-13.065,0-5.748-.542-10.348-1.611-13.674ZM373.124,0H0A17.3,17.3,0,0,0,4.165,3.561a23.188,23.188,0,0,0,6.113,3.161,20.608,20.608,0,0,0,6.531,1.054,21.622,21.622,0,0,0,6.321-.843A12.368,12.368,0,0,0,27.765,4.4c.837,0,3.673,1.985,8.429,5.9a49.628,49.628,0,0,0,5.688,4.427A7.653,7.653,0,0,0,45.465,16.2a9.129,9.129,0,0,0,3.265-.527A5.145,5.145,0,0,0,50.943,14.1a5.263,5.263,0,0,1,2.318-1.264,13.259,13.259,0,0,1,3.581-.421,6.75,6.75,0,0,1,2.845.632,9.254,9.254,0,0,1,2.633,1.9,9.307,9.307,0,0,1,1.9,2.635,6.736,6.736,0,0,1,.633,2.844,61.209,61.209,0,0,0-1.266,10.538,13.321,13.321,0,0,0,.579,3.9A14.736,14.736,0,0,0,65.9,38.538a24.693,24.693,0,0,0,6.954,6.741,35.24,35.24,0,0,0,9.06,4.742A29.32,29.32,0,0,0,91.4,51.6a10.43,10.43,0,0,0,3.818-.711,11.861,11.861,0,0,0,3.45-2.134,18.414,18.414,0,0,0,3.081-3.556,32.108,32.108,0,0,0,2.712-4.979,5.591,5.591,0,0,0,.424-1.685c.468.3.893.58,1.263.842a35.213,35.213,0,0,0,9.06,4.74,29.341,29.341,0,0,0,9.483,1.58,11.6,11.6,0,0,0,4.213-.737,9.732,9.732,0,0,0,3.37-2.212,28.2,28.2,0,0,0,2.53-4.214h.421a90.564,90.564,0,0,0-1.688,16.855,42.837,42.837,0,0,0,.975,9.246,36.953,36.953,0,0,0,2.924,8.35,37.688,37.688,0,0,0,4.872,7.454A45.185,45.185,0,0,0,149.128,87a53.308,53.308,0,0,0,7.744,5.162,52.3,52.3,0,0,0,8.481,3.687,56.317,56.317,0,0,0,9.218,2.212,65.716,65.716,0,0,0,9.955.737A48.012,48.012,0,0,0,194.8,97.744a36.834,36.834,0,0,0,8.9-3.161,33.961,33.961,0,0,0,7.533-5.267,38.783,38.783,0,0,0,6.163-7.373,48.719,48.719,0,0,0,5.784-12.2,50.778,50.778,0,0,0,2.225-13.506h1.263a17.036,17.036,0,0,0,7.585-1.475,9.063,9.063,0,0,0,2.528-1.844,8.681,8.681,0,0,0,1.685-2.583c.559-1.392.842-4.227.842-8.426,0-.819-1.985-5.781-5.9-14.749a8.455,8.455,0,0,1-1.263-1.688l1.263.845a1.205,1.205,0,0,1,0,.842,16.5,16.5,0,0,0,7.166,1.263,6.491,6.491,0,0,0,4.213-1.37,8.281,8.281,0,0,0,2.529-4.108,11.806,11.806,0,0,1,2.318-3.793,3.841,3.841,0,0,1,2.739-1.264c1.119,0,3.529.85,7.163,2.527,3.358,1.958,5.485,2.951,6.323,2.951a21.369,21.369,0,0,0,3.79-1.685,17.29,17.29,0,0,1,5.9-1.266,1.945,1.945,0,0,1,1.448.9A10.448,10.448,0,0,1,278.4,24a63.1,63.1,0,0,1,2.634,10.745,16.585,16.585,0,0,0,2.475,6.454,15.314,15.314,0,0,0,4.9,4.609,23.946,23.946,0,0,0,7.322,2.765,46.643,46.643,0,0,0,9.746.922,22.647,22.647,0,0,0,7.743-1.212,13.78,13.78,0,0,0,5.531-3.635,15.614,15.614,0,0,0,3.318-6.058,29.36,29.36,0,0,0,1.106-8.481,13.222,13.222,0,0,0-.421-4.212,1.911,1.911,0,0,1,.431-.051,1.663,1.663,0,0,1,.411.051,9.619,9.619,0,0,0,2.951.842,2.562,2.562,0,0,0,2.013-.728,3.3,3.3,0,0,0,.514-2.644V18.31a14.986,14.986,0,0,0,4.109,1.264,33.081,33.081,0,0,0,5.584.421,11.926,11.926,0,0,0,4.952-.842,3.769,3.769,0,0,0,2.214-2.528,7.754,7.754,0,0,0-.421-4.215h2.948a13.028,13.028,0,0,0,4.636,2,37.874,37.874,0,0,0,7.162.947,18.755,18.755,0,0,0,5.716-.79,10.366,10.366,0,0,0,4.083-2.37,9.9,9.9,0,0,0,2.449-3.95,17.066,17.066,0,0,0,.816-5.531A17.348,17.348,0,0,0,373.124,0Zm134.62.188h0a19.693,19.693,0,0,0,1.35,8.081,16.592,16.592,0,0,0,4.549,6.246,17.778,17.778,0,0,0,4.741,2.845,13.544,13.544,0,0,0,4.952.948,2.992,2.992,0,0,0,2-.843,8.41,8.41,0,0,0,1.791-2.529,7.635,7.635,0,0,1,2.317-2.212,5.373,5.373,0,0,1,2.74-.737c.287,0,4.366.728,11.8,2.106a11.723,11.723,0,0,0,3.5-.474,6.387,6.387,0,0,0,2.5-1.422,5.925,5.925,0,0,0,1.5-2.37,10.04,10.04,0,0,0,.5-3.318,17.771,17.771,0,0,0-1.266-5.057C535.553.97,521.092.544,507.744.188Z" transform="translate(888.123 111.433) rotate(180)" fill="#cae7f1"/><path d="M-1.042-.5H373.624v.461a17.938,17.938,0,0,1,.192,2.757,17.561,17.561,0,0,1-.844,5.694,10.4,10.4,0,0,1-2.575,4.147,10.86,10.86,0,0,1-4.277,2.486,19.247,19.247,0,0,1-5.87.814h-.025a38.363,38.363,0,0,1-7.259-.961,13.794,13.794,0,0,1-4.678-1.986h-2.108a7.606,7.606,0,0,1,.23,3.835,4.247,4.247,0,0,1-2.486,2.86,12.4,12.4,0,0,1-5.164.889,33.576,33.576,0,0,1-5.669-.428,16.726,16.726,0,0,1-3.523-.98v4.249a3.734,3.734,0,0,1-.639,3.006,3.032,3.032,0,0,1-2.388.9,9.722,9.722,0,0,1-3.1-.865l-.031-.007a19.347,19.347,0,0,1,.262,3.741,29.855,29.855,0,0,1-1.128,8.626,16.109,16.109,0,0,1-3.427,6.249,14.273,14.273,0,0,1-5.728,3.767,23.14,23.14,0,0,1-7.914,1.242,47.137,47.137,0,0,1-9.851-.933,24.442,24.442,0,0,1-7.475-2.826,15.813,15.813,0,0,1-5.057-4.76,17.083,17.083,0,0,1-2.552-6.646,62.631,62.631,0,0,0-2.609-10.651,9.977,9.977,0,0,0-1.32-2.555,1.588,1.588,0,0,0-1.056-.707,16.77,16.77,0,0,0-5.7,1.226c-3.457,1.726-3.791,1.726-3.99,1.726-1.249,0-4.333-1.713-6.554-3.007-4.428-2.042-6.214-2.471-6.932-2.471a3.362,3.362,0,0,0-2.385,1.118,11.3,11.3,0,0,0-2.2,3.61,8.75,8.75,0,0,1-2.684,4.325,6.977,6.977,0,0,1-4.528,1.482,19.708,19.708,0,0,1-6.215-.832c5.448,12.535,5.448,13.463,5.448,13.818,0,4.264-.3,7.162-.878,8.613l0,.01a9.179,9.179,0,0,1-1.783,2.731,9.562,9.562,0,0,1-2.667,1.947,17.52,17.52,0,0,1-7.809,1.528h-.781a51.143,51.143,0,0,1-2.23,13.155,49.22,49.22,0,0,1-5.843,12.324,39.278,39.278,0,0,1-6.242,7.467,34.464,34.464,0,0,1-7.644,5.345,37.336,37.336,0,0,1-9.023,3.2,48.514,48.514,0,0,1-10.38,1.065,66.224,66.224,0,0,1-10.031-.743,56.815,56.815,0,0,1-9.3-2.232,52.8,52.8,0,0,1-8.562-3.722,53.81,53.81,0,0,1-7.817-5.21,45.67,45.67,0,0,1-6.892-6.628,38.188,38.188,0,0,1-4.937-7.553,37.452,37.452,0,0,1-2.964-8.463,43.336,43.336,0,0,1-.987-9.354A89.319,89.319,0,0,1,134.38,40.4a24.689,24.689,0,0,1-1.706,2.651l-.021.029-.025.025a10.229,10.229,0,0,1-3.543,2.324,12.091,12.091,0,0,1-4.394.771,29.841,29.841,0,0,1-9.644-1.606,35.716,35.716,0,0,1-9.189-4.807q-.278-.2-.6-.411a5.952,5.952,0,0,1-.337,1.044l0,.006a32.608,32.608,0,0,1-2.755,5.057,18.917,18.917,0,0,1-3.167,3.652,12.355,12.355,0,0,1-3.6,2.222,10.926,10.926,0,0,1-4,.746,29.82,29.82,0,0,1-9.644-1.608,35.737,35.737,0,0,1-9.185-4.806,25.176,25.176,0,0,1-7.087-6.879A15.234,15.234,0,0,1,63.685,35a13.82,13.82,0,0,1-.6-4.043A61.5,61.5,0,0,1,64.35,20.37a6.241,6.241,0,0,0-.587-2.588,8.811,8.811,0,0,0-1.8-2.491A8.76,8.76,0,0,0,59.478,13.5a6.254,6.254,0,0,0-2.635-.586,12.772,12.772,0,0,0-3.444.4,4.8,4.8,0,0,0-2.083,1.118,5.643,5.643,0,0,1-2.405,1.713,9.622,9.622,0,0,1-3.445.561,7.954,7.954,0,0,1-3.852-1.553,50.077,50.077,0,0,1-5.743-4.468c-2.354-1.937-4.254-3.414-5.647-4.389a10.172,10.172,0,0,0-2.307-1.36A12.962,12.962,0,0,1,23.277,7.41a22.114,22.114,0,0,1-6.468.865A21.108,21.108,0,0,1,10.12,7.2,23.681,23.681,0,0,1,3.885,3.975,17.779,17.779,0,0,1-.39.313ZM372.691.5H1.112A18.863,18.863,0,0,0,4.436,3.14l.02.014a22.685,22.685,0,0,0,5.981,3.093,20.109,20.109,0,0,0,6.372,1.028,21.128,21.128,0,0,0,6.174-.821,11.872,11.872,0,0,0,4.45-2.425l.142-.126h.19c.671,0,2.271.683,8.747,6.013l.012.01a49.159,49.159,0,0,0,5.627,4.381,6.948,6.948,0,0,0,3.315,1.4,8.637,8.637,0,0,0,3.085-.494,4.651,4.651,0,0,0,2-1.427l.017-.022.02-.02a5.751,5.751,0,0,1,2.534-1.391,13.747,13.747,0,0,1,3.719-.44,7.247,7.247,0,0,1,3.054.678,9.751,9.751,0,0,1,2.778,2,9.8,9.8,0,0,1,2,2.778,7.232,7.232,0,0,1,.679,3.053v.047l-.009.046a60.759,60.759,0,0,0-1.258,10.445,12.822,12.822,0,0,0,.558,3.751,14.238,14.238,0,0,0,1.68,3.562,24.2,24.2,0,0,0,6.815,6.6l.009.006a34.741,34.741,0,0,0,8.931,4.676A28.823,28.823,0,0,0,91.4,51.1a9.931,9.931,0,0,0,3.636-.677,11.362,11.362,0,0,0,3.3-2.045,17.92,17.92,0,0,0,3-3.46,31.6,31.6,0,0,0,2.666-4.9,5.091,5.091,0,0,0,.386-1.534l.077-.812.689.437c.477.3.91.591,1.285.857a34.72,34.72,0,0,0,8.932,4.675A28.842,28.842,0,0,0,124.69,45.2a11.1,11.1,0,0,0,4.032-.7,9.231,9.231,0,0,0,3.173-2.074,27.816,27.816,0,0,0,2.462-4.11l.138-.276h1.334l-.113.594a90.063,90.063,0,0,0-1.679,16.762A42.34,42.34,0,0,0,135,64.53a36.45,36.45,0,0,0,2.884,8.237,37.187,37.187,0,0,0,4.808,7.355,44.683,44.683,0,0,0,6.745,6.485,52.818,52.818,0,0,0,7.675,5.116,51.794,51.794,0,0,0,8.4,3.652,55.812,55.812,0,0,0,9.135,2.192,65.214,65.214,0,0,0,9.879.732,47.511,47.511,0,0,0,10.165-1.042,36.333,36.333,0,0,0,8.782-3.117,33.462,33.462,0,0,0,7.422-5.19,38.283,38.283,0,0,0,6.083-7.278A48.225,48.225,0,0,0,222.7,69.6a50.281,50.281,0,0,0,2.2-13.373l.015-.484h1.748a16.553,16.553,0,0,0,7.361-1.422,8.567,8.567,0,0,0,2.39-1.742,8.179,8.179,0,0,0,1.586-2.43c.533-1.334.8-4.1.8-8.234a20.714,20.714,0,0,0-1.446-4.133c-.969-2.423-2.429-5.871-4.339-10.25l-.22-.109.041-.13a8.953,8.953,0,0,1-1.133-1.568l-1.048-1.841,3.148,2.106.058.138a1.532,1.532,0,0,1,.107.749,16.928,16.928,0,0,0,6.6,1.05,6.005,6.005,0,0,0,3.9-1.258,7.8,7.8,0,0,0,2.366-3.867l.016-.045a12.287,12.287,0,0,1,2.426-3.954,4.321,4.321,0,0,1,3.092-1.41c1.208,0,3.62.842,7.372,2.573l.042.022c4.248,2.477,5.616,2.873,6.055,2.883a23.608,23.608,0,0,0,3.583-1.632l.023-.012.025-.009a17.774,17.774,0,0,1,6.078-1.3A2.406,2.406,0,0,1,277.392,21a10.92,10.92,0,0,1,1.471,2.819,63.556,63.556,0,0,1,2.66,10.837,16.1,16.1,0,0,0,2.4,6.263,14.82,14.82,0,0,0,4.741,4.458,23.453,23.453,0,0,0,7.17,2.7,46.148,46.148,0,0,0,9.64.91,22.156,22.156,0,0,0,7.571-1.181,13.285,13.285,0,0,0,5.333-3.5,15.12,15.12,0,0,0,3.209-5.866,28.866,28.866,0,0,0,1.085-8.335,12.177,12.177,0,0,0-.382-4.016l-.232-.548.579-.135a2.266,2.266,0,0,1,1.08,0l.031.008.03.012a9.454,9.454,0,0,0,2.766.807,2.1,2.1,0,0,0,1.638-.559,2.852,2.852,0,0,0,.393-2.251l0-.031V17.5l.724.362a14.5,14.5,0,0,0,3.971,1.218,32.579,32.579,0,0,0,5.5.413A11.456,11.456,0,0,0,343.5,18.7a3.292,3.292,0,0,0,1.941-2.2,7.283,7.283,0,0,0-.411-3.935l-.219-.658h3.808l.133.1a12.547,12.547,0,0,0,4.457,1.916,37.356,37.356,0,0,0,7.053.932,18.248,18.248,0,0,0,5.551-.766A9.873,9.873,0,0,0,369.7,11.84a9.411,9.411,0,0,0,2.324-3.754,16.574,16.574,0,0,0,.789-5.368A17.963,17.963,0,0,0,372.691.5Zm27.6-1h85.277v.423a47.248,47.248,0,0,1,1.611,13.752c0,7.04-.292,11.489-.868,13.222l-.012.033a10.723,10.723,0,0,1-2.1,3.286,11.291,11.291,0,0,1-3.2,2.343,16.474,16.474,0,0,1-4.238,1.387,27.93,27.93,0,0,1-5.256.457,63.15,63.15,0,0,1-8.391-.505,31.6,31.6,0,0,1-6.531-1.527,15.569,15.569,0,0,1-4.68-2.588,9.738,9.738,0,0,1-2.774-3.691l0-.008a12.287,12.287,0,0,1-.773-5.052,23.592,23.592,0,0,1,.985-5.592h-3.446c-3.651,1.4-6.376,2.109-8.1,2.109a5.117,5.117,0,0,1-3.15-1.158,11.745,11.745,0,0,1-2.757-3.3l-.018-.033a11.868,11.868,0,0,0-2.014-3.031,2.58,2.58,0,0,0-1.754-.907,6.017,6.017,0,0,0-2.819.784,13.746,13.746,0,0,0-3.137,2.432c-3.1,3.481-4.053,3.95-4.578,3.95-.913,0-2.764-.563-5.658-1.721a19.183,19.183,0,0,1-6.887-3.876,11.739,11.739,0,0,1-3.261-3.279,7.172,7.172,0,0,1-1.128-3.831c-.092-1.441-.187-2.626-.284-3.524ZM484.7.5H401.4c.079.829.157,1.845.232,3.029v.032a6.185,6.185,0,0,0,.977,3.317,10.8,10.8,0,0,0,3.022,3.015l.036.025.031.031a18.153,18.153,0,0,0,6.561,3.677l.015.006c3.4,1.36,4.75,1.649,5.286,1.652.129-.021.886-.3,3.847-3.626l.02-.021a14.752,14.752,0,0,1,3.384-2.617,7,7,0,0,1,3.29-.9,3.52,3.52,0,0,1,2.461,1.2,12.787,12.787,0,0,1,2.192,3.273,10.751,10.751,0,0,0,2.5,3.005,4.144,4.144,0,0,0,2.54.95c1.615,0,4.249-.7,7.828-2.075l.087-.033h4.984l-.2.649a23.451,23.451,0,0,0-1.136,5.982,11.3,11.3,0,0,0,.7,4.637,8.749,8.749,0,0,0,2.493,3.31,14.583,14.583,0,0,0,4.381,2.415,30.61,30.61,0,0,0,6.322,1.475,62.167,62.167,0,0,0,8.256.5,26.937,26.937,0,0,0,5.066-.439,15.478,15.478,0,0,0,3.98-1.3,10.3,10.3,0,0,0,2.915-2.134,9.723,9.723,0,0,0,1.9-2.966c.538-1.644.811-5.981.811-12.89A47.306,47.306,0,0,0,484.7.5Zm23.048-.812h.014C521.136.045,535.6.471,550.742.955l.34.011.115.321a18.153,18.153,0,0,1,1.3,5.225A10.532,10.532,0,0,1,551.964,10a6.421,6.421,0,0,1-1.629,2.567,6.882,6.882,0,0,1-2.7,1.535,12.217,12.217,0,0,1-3.654.5h-.046l-.045-.008c-9.967-1.848-11.518-2.084-11.714-2.1a4.878,4.878,0,0,0-2.481.669,7.116,7.116,0,0,0-2.14,2.039,8.842,8.842,0,0,1-1.888,2.643,3.475,3.475,0,0,1-2.335.969,14.042,14.042,0,0,1-5.134-.982,18.279,18.279,0,0,1-4.875-2.924l-.011-.009a17.087,17.087,0,0,1-4.684-6.434A20.106,20.106,0,0,1,507.241.334l-.431-.646Zm42.625,2.255c-14.828-.473-29-.891-42.133-1.242a18.934,18.934,0,0,0,1.322,7.378,16.1,16.1,0,0,0,4.408,6.053,17.276,17.276,0,0,0,4.6,2.763,13.044,13.044,0,0,0,4.77.914,2.51,2.51,0,0,0,1.67-.717,7.929,7.929,0,0,0,1.676-2.379l.018-.035.023-.032a8.127,8.127,0,0,1,2.473-2.353,5.867,5.867,0,0,1,2.991-.8c.132,0,.484,0,11.844,2.106a11.181,11.181,0,0,0,3.307-.451,5.894,5.894,0,0,0,2.31-1.308,5.431,5.431,0,0,0,1.374-2.173,9.544,9.544,0,0,0,.472-3.152A15.663,15.663,0,0,0,550.369,1.943Z" transform="translate(888.123 111.433) rotate(180)" fill="rgba(0,0,0,0)"/></g></g></svg>