<svg xmlns="http://www.w3.org/2000/svg" width="1000.401" height="233.134" viewBox="0 0 1000.401 233.134"><g transform="translate(0.5 0.5)"><path d="M597.651,188.519a42.81,42.81,0,0,0-51.324-41.938c.059-.957.145-1.907.145-2.879a46.522,46.522,0,0,0-83.054-28.833,46.291,46.291,0,0,0-28.263-9.622c-.914,0-1.806.084-2.706.136a70.682,70.682,0,0,0-88.625-49.8A99.179,99.179,0,0,0,164.1,58.921,68.782,68.782,0,0,0,62.541,117.672c-1.837-.178-3.7-.281-5.581-.281a56.961,56.961,0,0,0,0,113.921c.488,0,.96-.06,1.445-.073v.073H556.3v-.073a42.761,42.761,0,0,0,41.347-42.72m-424.8-14.362c.025.161.047.323.074.484H172.2c.217-.161.434-.321.648-.484" transform="translate(0 0)" fill="#CAE7F1"/><path d="M556.8,231.812H57.905v-.046l-.1.007c-.272.019-.554.039-.845.039A57.194,57.194,0,0,1,24.834,222,57.627,57.627,0,0,1,4.016,196.718a57.386,57.386,0,0,1,5.3-54.493,57.627,57.627,0,0,1,25.281-20.818,57.1,57.1,0,0,1,22.366-4.516c1.65,0,3.323.077,5.1.234a69.068,69.068,0,0,1,12.364-37.3,69.4,69.4,0,0,1,30.263-24.432A68.808,68.808,0,0,1,131.269,50.1a69.008,69.008,0,0,1,32.592,8.126,99.711,99.711,0,0,1,180.225-3.237,71.311,71.311,0,0,1,88.74,49.871l.326-.022c.65-.044,1.321-.09,2-.09a46.6,46.6,0,0,1,15.347,2.585,47.164,47.164,0,0,1,12.83,6.844,47.356,47.356,0,0,1,15.758-12.656A47.024,47.024,0,0,1,546.973,143.7c0,.759-.051,1.508-.1,2.233l0,.031a43.622,43.622,0,0,1,7.989-.74A43.268,43.268,0,0,1,556.8,231.72Zm-497.9-1H555.8v-.057l.483-.016a42.268,42.268,0,0,0-1.429-84.513,42.615,42.615,0,0,0-8.432.845l-.638.129.04-.65c.014-.228.03-.456.045-.683.049-.708.1-1.44.1-2.165a45.99,45.99,0,0,0-75.021-35.761,46.6,46.6,0,0,0-7.141,7.238l-.305.386-.391-.3a46.2,46.2,0,0,0-12.941-6.989,45.6,45.6,0,0,0-15.018-2.529c-.647,0-1.3.044-1.935.087-.243.016-.494.034-.743.048l-.408.024-.1-.4a70.182,70.182,0,0,0-88-49.445l-.405.121-.186-.38a98.711,98.711,0,0,0-178.821,3.317l-.22.495-.476-.259A68.144,68.144,0,0,0,93.6,62.432,68.518,68.518,0,0,0,68.869,91.7a67.931,67.931,0,0,0-5.828,25.98l-.013.537-.535-.052c-1.941-.188-3.751-.279-5.533-.279a56.195,56.195,0,0,0-31.567,9.642A56.627,56.627,0,0,0,4.937,152.375a56.386,56.386,0,0,0,5.206,53.544,56.627,56.627,0,0,0,24.842,20.457,56.106,56.106,0,0,0,21.977,4.437c.256,0,.508-.018.775-.037.213-.015.433-.03.657-.036l.513-.014Zm114.606-55.671h-2.827l1.243-.921c.2-.151.413-.306.617-.461l.67-.509.127.832q.012.081.024.162c.016.105.031.211.049.316Z" transform="translate(0 0)" fill="rgba(0,0,0,0)"/><g transform="translate(111.278 120.702)"><path d="M422.892,104.84q0,3.253,3.927,3.927l2.244-.563h22q4.377-.786,4.378-4.152,0-8.531-16.272-6.173a45.672,45.672,0,0,0-11.223,3.032q-5.05,2.132-5.05,3.929M329.18,45.805q0-10.886-3.483-18.293-6.956-14.7-25.926-14.368-13.465.341-25.812,9.43a36.524,36.524,0,0,0-10.885,11.783q-7.63-7.182-20.762-6.845-9.2.113-20.427,6.284c-.6.376-1.159.747-1.683,1.123a52.168,52.168,0,0,0-6.735-15.6Q200.34-.544,170.149.015,151.183.463,133,12.361q-20.876,13.691-21.1,32.322a26.209,26.209,0,0,0-11.446-2.02Q85.751,43,74.753,56.019A74.578,74.578,0,0,0,64.091,72.177q-4.824-9.085-13.355-8.528-8.531.451-14.7,11.223Q30.2,84.859,31.209,94.064q-5.723-1.124-18.632,3.143T.009,111.234q30.975-.222,83.052-1.344,51.961-1.011,128.389-.116,76.315,1.015,120.647.339t78.448-1.235q5.61-9.99-4.715-13.694-10.322-3.813-13.69-2.244Q389,94.4,388.885,94.4a1.583,1.583,0,0,1-.672-.11v-.225a32.515,32.515,0,0,0-2.246-10.1q-3.365-8.419-13.355-8.191-6.625.113-10.664,3.478A37.417,37.417,0,0,0,358.135,66.9q-7.182-13.465-25.142-13.129a21.258,21.258,0,0,0-4.376.223,52.188,52.188,0,0,0,.563-8.193m150.274,61.5a3.381,3.381,0,0,0,.786-2.467q0-3.707-6.622-4.266T467,104.84a3.6,3.6,0,0,0,.56,2.13q1.462,1.8,6.061,1.8c2.916,0,4.865-.485,5.836-1.46" transform="translate(407.883 0)" fill="#CAE7F1"/><path d="M-.474,111.738l-.017-.486a12.047,12.047,0,0,1,3.1-8.739c2.144-2.392,5.444-4.337,9.81-5.779,6.832-2.258,12.245-3.4,16.09-3.4a15.855,15.855,0,0,1,2.138.135,27.254,27.254,0,0,1,.776-8.922A38.385,38.385,0,0,1,35.6,74.62a27.6,27.6,0,0,1,6.89-8.337,14.661,14.661,0,0,1,8.216-3.133c.337-.022.674-.033,1-.033a12.584,12.584,0,0,1,7.3,2.229A17.536,17.536,0,0,1,64.063,71.1a75.954,75.954,0,0,1,10.31-15.4,40.39,40.39,0,0,1,12.074-9.968,31.671,31.671,0,0,1,14-3.564c.228,0,.454-.006.675-.006a27.078,27.078,0,0,1,10.3,1.769,32.138,32.138,0,0,1,1.408-8.4,34.028,34.028,0,0,1,4.043-8.515,44.473,44.473,0,0,1,6.64-7.861,65.772,65.772,0,0,1,9.217-7.21,80.147,80.147,0,0,1,18.495-9.091A64.808,64.808,0,0,1,170.137-.485c.555-.01,1.111-.016,1.655-.016A71.385,71.385,0,0,1,185.332.716a50.25,50.25,0,0,1,11.543,3.659,40.926,40.926,0,0,1,9.527,6.112,41.432,41.432,0,0,1,7.483,8.554l0,.007A53.052,53.052,0,0,1,220.51,34.1c.338-.229.706-.469,1.11-.723l.025-.015a58.307,58.307,0,0,1,10.812-4.7,35.141,35.141,0,0,1,9.846-1.65c.395-.01.791-.015,1.179-.015A33.96,33.96,0,0,1,254.7,28.741a24.431,24.431,0,0,1,8.252,4.823,37.631,37.631,0,0,1,10.718-11.395A51.311,51.311,0,0,1,286.415,15.2a41.933,41.933,0,0,1,13.345-2.557c.285-.005.568-.007.844-.007,6.158,0,11.429,1.231,15.668,3.66a24.268,24.268,0,0,1,9.878,11c2.343,4.992,3.531,11.218,3.531,18.507a55.1,55.1,0,0,1-.468,7.6,21.73,21.73,0,0,1,2.665-.163c.371,0,.749.009,1.124.028.292-.005.586-.008.873-.008a31.1,31.1,0,0,1,14.932,3.346,23.964,23.964,0,0,1,9.77,10.056,37.478,37.478,0,0,1,3.738,11.661A17.6,17.6,0,0,1,372.6,75.272c.174,0,.352-.006.525-.006,6.567,0,11.042,2.862,13.3,8.506A33.039,33.039,0,0,1,388.7,93.893l.111.005c.173-.067.81-.339,3.117-1.41a6.6,6.6,0,0,1,2.765-.5c2.6,0,6.4.919,11.309,2.732,3.492,1.254,5.709,3.079,6.584,5.423.911,2.442.371,5.464-1.606,8.985l-.141.25-.287,0c-23.235.382-49.629.8-78.449,1.235-11.768.179-25.416.269-40.563.269-22.775,0-49.724-.2-80.1-.608-23.812-.279-46.145-.42-66.379-.42-22.851,0-43.709.18-61.994.536-34.6.745-62.548,1.2-83.058,1.344ZM28.511,94.33c-3.738,0-9.046,1.128-15.777,3.352-4.2,1.387-7.353,3.236-9.379,5.5a11.049,11.049,0,0,0-2.216,3.684A11.585,11.585,0,0,0,.5,110.731c20.459-.151,48.229-.6,82.549-1.34,18.292-.356,39.156-.536,62.014-.536,20.238,0,42.575.141,66.391.421,30.37.4,57.314.608,80.085.608,15.143,0,28.785-.091,40.548-.269,28.7-.436,54.994-.849,78.159-1.23,1.714-3.142,2.185-5.8,1.4-7.9-.767-2.056-2.782-3.682-5.989-4.833-4.8-1.773-8.488-2.672-10.966-2.672a5.635,5.635,0,0,0-2.343.41c-3.242,1.5-3.312,1.5-3.466,1.5a2.03,2.03,0,0,1-.893-.161l-.279-.137v-.517a32.158,32.158,0,0,0-2.207-9.927l0-.008a12.108,12.108,0,0,0-4.654-5.912,14.462,14.462,0,0,0-8.225-1.964,19.95,19.95,0,0,0-5.834.9,13.614,13.614,0,0,0-4.522,2.461l-.688.573-.126-.887a37.086,37.086,0,0,0-3.76-12.182,24.836,24.836,0,0,0-4.06-5.632,21.964,21.964,0,0,0-5.3-4.014,30.123,30.123,0,0,0-14.456-3.225c-.287,0-.58,0-.871.008h-.035c-.364-.018-.731-.028-1.091-.028a20.566,20.566,0,0,0-3.182.245l-.681.107.11-.68a51.931,51.931,0,0,0,.556-8.114c0-7.141-1.156-13.224-3.435-18.08a25.6,25.6,0,0,0-4.039-6.168,21.934,21.934,0,0,0-5.431-4.392c-4.086-2.341-9.19-3.527-15.171-3.527-.271,0-.548,0-.823.007a40.929,40.929,0,0,0-13.023,2.5,50.325,50.325,0,0,0-12.5,6.835A36.21,36.21,0,0,0,263.513,34.6l-.311.564-.469-.442a23.369,23.369,0,0,0-8.365-5.037A32.967,32.967,0,0,0,243.482,28c-.38,0-.769.005-1.156.015h-.007a34.142,34.142,0,0,0-9.568,1.606,57.3,57.3,0,0,0-10.611,4.61c-.633.4-1.171.758-1.646,1.1l-.6.431-.177-.717a51.921,51.921,0,0,0-6.67-15.45,40.434,40.434,0,0,0-7.3-8.344,39.924,39.924,0,0,0-9.294-5.962A49.248,49.248,0,0,0,185.141,1.7,70.388,70.388,0,0,0,171.792.5c-.538,0-1.088.005-1.634.015A63.8,63.8,0,0,0,151.537,3.8a79.147,79.147,0,0,0-18.262,8.979,64.773,64.773,0,0,0-9.076,7.1,43.475,43.475,0,0,0-6.491,7.682,33.029,33.029,0,0,0-3.925,8.264,31.226,31.226,0,0,0-1.381,8.865l-.009.772-.7-.324a25.244,25.244,0,0,0-10.573-1.98c-.216,0-.436,0-.655.005a30.675,30.675,0,0,0-13.555,3.451,39.4,39.4,0,0,0-11.773,9.728A74.442,74.442,0,0,0,64.542,72.394l-.428.892-.464-.874a17.243,17.243,0,0,0-5.211-6.243,11.6,11.6,0,0,0-6.729-2.051c-.308,0-.624.01-.941.031h-.006A13.679,13.679,0,0,0,43.1,67.078a26.63,26.63,0,0,0-6.631,8.043,37.4,37.4,0,0,0-4.073,9.666,26.077,26.077,0,0,0-.688,9.223l.074.676-.668-.131A13.647,13.647,0,0,0,28.511,94.33Zm398.328,14.948-.1-.018a5.835,5.835,0,0,1-3.215-1.458,4.023,4.023,0,0,1-1.128-2.962c0-1.452,1.7-2.847,5.355-4.39a46.387,46.387,0,0,1,11.345-3.066,45.038,45.038,0,0,1,6.356-.516c3.414,0,6.028.591,7.769,1.755a6.125,6.125,0,0,1,2.72,5.428,4.075,4.075,0,0,1-1.251,3.084,6.8,6.8,0,0,1-3.539,1.561l-.044.008H429.124Zm18.61-11.409a44.052,44.052,0,0,0-6.213.505,45.39,45.39,0,0,0-11.1,3c-4.128,1.743-4.744,2.921-4.744,3.468a3.022,3.022,0,0,0,.835,2.255,4.794,4.794,0,0,0,2.574,1.161l2.2-.552h22.013c2.639-.484,3.923-1.679,3.923-3.652a5.116,5.116,0,0,0-2.276-4.6C451.088,98.4,448.661,97.869,445.449,97.869Zm28.169,11.4c-3.255,0-5.364-.648-6.449-1.981l-.019-.025a4.091,4.091,0,0,1-.654-2.421,4.428,4.428,0,0,1,1.512-3.631,6.706,6.706,0,0,1,4.3-1.194c.425,0,.88.02,1.353.061,4.7.4,7.079,2,7.079,4.764a3.865,3.865,0,0,1-.931,2.819C478.731,108.742,476.707,109.267,473.618,109.267Zm-5.663-2.6c.875,1.062,2.78,1.6,5.663,1.6,2.77,0,4.614-.442,5.481-1.313a2.937,2.937,0,0,0,.64-2.114,2.813,2.813,0,0,0-1.425-2.5,10.665,10.665,0,0,0-4.739-1.269c-.445-.038-.872-.057-1.268-.057a5.774,5.774,0,0,0-3.667.969,3.438,3.438,0,0,0-1.143,2.856A3.153,3.153,0,0,0,467.955,106.667Z" transform="translate(407.883 0)" fill="rgba(0,0,0,0)"/><path d="M485.064,98.8h-84.22c.1-.905.194-2.1.286-3.561a6.677,6.677,0,0,1,1.052-3.582,11.283,11.283,0,0,1,3.159-3.159,18.619,18.619,0,0,1,6.744-3.793,20.48,20.48,0,0,1,5.478-1.688c.557,0,1.975,1.276,4.214,3.793a14.254,14.254,0,0,0,3.266,2.529,6.508,6.508,0,0,0,3.054.843,3.048,3.048,0,0,0,2.107-1.054,12.341,12.341,0,0,0,2.107-3.161,11.257,11.257,0,0,1,2.633-3.161,4.63,4.63,0,0,1,2.845-1.054c1.676,0,4.371.71,8.008,2.109h4.212a23.945,23.945,0,0,1-1.158-6.111,11.792,11.792,0,0,1,.737-4.847,9.243,9.243,0,0,1,2.634-3.5,15.075,15.075,0,0,1,4.531-2.5,31.1,31.1,0,0,1,6.427-1.5,62.658,62.658,0,0,1,8.323-.5,27.439,27.439,0,0,1,5.161.448,15.98,15.98,0,0,1,4.109,1.343,10.8,10.8,0,0,1,3.056,2.238,10.224,10.224,0,0,1,2,3.134c.559,1.683.842,6.078.842,13.065,0,5.748-.542,10.348-1.611,13.674Zm-111.939,0H0a17.3,17.3,0,0,1,4.165-3.561,23.187,23.187,0,0,1,6.113-3.161,20.608,20.608,0,0,1,6.531-1.054,21.622,21.622,0,0,1,6.321.843,12.368,12.368,0,0,1,4.635,2.529c.837,0,3.673-1.985,8.429-5.9a49.629,49.629,0,0,1,5.688-4.427,7.653,7.653,0,0,1,3.584-1.475,9.129,9.129,0,0,1,3.265.527A5.145,5.145,0,0,1,50.943,84.7a5.263,5.263,0,0,0,2.318,1.264,13.258,13.258,0,0,0,3.581.421,6.75,6.75,0,0,0,2.845-.632,10.089,10.089,0,0,0,4.53-4.53,6.736,6.736,0,0,0,.633-2.844,61.209,61.209,0,0,1-1.266-10.538,13.321,13.321,0,0,1,.579-3.9A14.737,14.737,0,0,1,65.9,60.26a24.693,24.693,0,0,1,6.954-6.741,35.24,35.24,0,0,1,9.06-4.742A29.321,29.321,0,0,1,91.4,47.2a10.43,10.43,0,0,1,3.818.711,11.861,11.861,0,0,1,3.45,2.134,18.414,18.414,0,0,1,3.081,3.556,32.11,32.11,0,0,1,2.712,4.979,5.591,5.591,0,0,1,.424,1.685c.468-.3.893-.58,1.263-.842a35.213,35.213,0,0,1,9.06-4.74,29.341,29.341,0,0,1,9.483-1.58,11.6,11.6,0,0,1,4.213.737,9.732,9.732,0,0,1,3.37,2.212,28.2,28.2,0,0,1,2.53,4.214h.421a90.561,90.561,0,0,1-1.688-16.855,42.838,42.838,0,0,1,.975-9.246,36.954,36.954,0,0,1,2.924-8.35,37.689,37.689,0,0,1,4.872-7.454,45.19,45.19,0,0,1,6.82-6.558,53.306,53.306,0,0,1,7.744-5.162,52.3,52.3,0,0,1,8.481-3.687A56.316,56.316,0,0,1,174.571.737,65.716,65.716,0,0,1,184.526,0,48.012,48.012,0,0,1,194.8,1.054a36.835,36.835,0,0,1,8.9,3.161,33.962,33.962,0,0,1,7.533,5.267,38.781,38.781,0,0,1,6.163,7.373,48.718,48.718,0,0,1,5.783,12.2,50.776,50.776,0,0,1,2.225,13.506h1.263a17.036,17.036,0,0,1,7.585,1.475,9.063,9.063,0,0,1,2.528,1.844,8.681,8.681,0,0,1,1.685,2.583c.559,1.392.842,4.227.842,8.426,0,.819-1.985,5.781-5.9,14.749a8.455,8.455,0,0,0-1.263,1.688l1.263-.845a1.205,1.205,0,0,0,0-.842,16.5,16.5,0,0,1,7.166-1.263,6.491,6.491,0,0,1,4.213,1.37,8.281,8.281,0,0,1,2.529,4.108,11.806,11.806,0,0,0,2.318,3.793,3.841,3.841,0,0,0,2.739,1.264c1.119,0,3.529-.85,7.163-2.527,3.358-1.958,5.485-2.951,6.323-2.951a21.37,21.37,0,0,1,3.79,1.685,17.289,17.289,0,0,0,5.9,1.266,1.945,1.945,0,0,0,1.448-.9,10.446,10.446,0,0,0,1.4-2.687,63.1,63.1,0,0,0,2.634-10.745,16.585,16.585,0,0,1,2.475-6.454,15.313,15.313,0,0,1,4.9-4.609,23.946,23.946,0,0,1,7.322-2.765,46.643,46.643,0,0,1,9.746-.922,22.647,22.647,0,0,1,7.743,1.212,13.78,13.78,0,0,1,5.531,3.635,15.615,15.615,0,0,1,3.318,6.058,29.36,29.36,0,0,1,1.106,8.48,13.225,13.225,0,0,1-.421,4.212,1.91,1.91,0,0,0,.431.051,1.663,1.663,0,0,0,.411-.051,9.62,9.62,0,0,1,2.951-.842,2.562,2.562,0,0,1,2.013.728,3.3,3.3,0,0,1,.514,2.644v5.057a14.986,14.986,0,0,1,4.109-1.264,33.08,33.08,0,0,1,5.584-.421,11.925,11.925,0,0,1,4.952.842,3.769,3.769,0,0,1,2.214,2.528,7.753,7.753,0,0,1-.421,4.215h2.948a13.027,13.027,0,0,1,4.636-2,37.875,37.875,0,0,1,7.162-.947,18.755,18.755,0,0,1,5.716.79,10.366,10.366,0,0,1,4.083,2.37,9.9,9.9,0,0,1,2.449,3.95,17.067,17.067,0,0,1,.816,5.531,17.352,17.352,0,0,1-.192,2.718Zm134.62-.188h0a19.694,19.694,0,0,1,1.35-8.081,16.6,16.6,0,0,1,4.549-6.246,17.782,17.782,0,0,1,4.741-2.845,13.545,13.545,0,0,1,4.952-.948,2.992,2.992,0,0,1,2,.843,8.409,8.409,0,0,1,1.791,2.529,7.636,7.636,0,0,0,2.317,2.212,5.373,5.373,0,0,0,2.74.737c.287,0,4.366-.728,11.8-2.106a11.724,11.724,0,0,1,3.5.474,6.386,6.386,0,0,1,2.5,1.422,5.927,5.927,0,0,1,1.5,2.37,10.042,10.042,0,0,1,.5,3.318,17.774,17.774,0,0,1-1.266,5.057C535.553,97.828,521.092,98.253,507.744,98.61Z" transform="translate(0 12.635)" fill="#CAE7F1"/><path d="M485.064,99.3H400.287l.059-.553c.1-.9.192-2.084.284-3.524a7.171,7.171,0,0,1,1.128-3.831,11.739,11.739,0,0,1,3.261-3.279,19.181,19.181,0,0,1,6.887-3.876c2.894-1.158,4.744-1.721,5.658-1.721.552,0,1.489.479,4.578,3.95A13.742,13.742,0,0,0,425.28,88.9a6.017,6.017,0,0,0,2.819.784,2.58,2.58,0,0,0,1.753-.907,11.865,11.865,0,0,0,2.014-3.031l.018-.033a11.744,11.744,0,0,1,2.757-3.3,5.117,5.117,0,0,1,3.15-1.158c1.724,0,4.45.709,8.1,2.109h3.446a23.586,23.586,0,0,1-.985-5.592,12.285,12.285,0,0,1,.772-5.052l0-.008a9.738,9.738,0,0,1,2.774-3.691,15.568,15.568,0,0,1,4.68-2.588,31.6,31.6,0,0,1,6.531-1.527A63.15,63.15,0,0,1,471.5,64.4a27.931,27.931,0,0,1,5.256.457A16.476,16.476,0,0,1,481,66.24a11.292,11.292,0,0,1,3.2,2.343,10.721,10.721,0,0,1,2.1,3.286l.012.033c.576,1.733.868,6.182.868,13.222,0,5.8-.55,10.452-1.635,13.827l-.018.055-.175.292Zm-83.667-1h83.3a47.307,47.307,0,0,0,1.479-13.174c0-6.911-.273-11.247-.812-12.891a9.724,9.724,0,0,0-1.9-2.965,10.3,10.3,0,0,0-2.915-2.134,15.478,15.478,0,0,0-3.98-1.3A26.939,26.939,0,0,0,471.5,65.4a62.167,62.167,0,0,0-8.256.5,30.613,30.613,0,0,0-6.322,1.475,14.58,14.58,0,0,0-4.381,2.415,8.748,8.748,0,0,0-2.493,3.308,11.3,11.3,0,0,0-.7,4.639,23.448,23.448,0,0,0,1.136,5.982l.2.649h-4.984l-.087-.033c-3.579-1.377-6.213-2.075-7.828-2.075a4.144,4.144,0,0,0-2.54.95,10.749,10.749,0,0,0-2.5,3.005,12.785,12.785,0,0,1-2.192,3.273,3.52,3.52,0,0,1-2.461,1.2,7,7,0,0,1-3.29-.9,14.749,14.749,0,0,1-3.384-2.617l-.02-.021c-2.961-3.328-3.718-3.605-3.847-3.626-.536,0-1.889.292-5.286,1.652l-.015.006A18.153,18.153,0,0,0,405.7,88.85l-.031.031-.036.025a10.793,10.793,0,0,0-3.022,3.015,6.184,6.184,0,0,0-.976,3.317v.032C401.554,96.452,401.476,97.468,401.4,98.3Zm-28.272,1H-1.042l.652-.813a17.779,17.779,0,0,1,4.275-3.662A23.681,23.681,0,0,1,10.12,91.6a21.109,21.109,0,0,1,6.689-1.08,22.114,22.114,0,0,1,6.468.865,12.964,12.964,0,0,1,4.639,2.476,10.174,10.174,0,0,0,2.307-1.36c1.393-.975,3.293-2.451,5.647-4.389a50.069,50.069,0,0,1,5.743-4.468,7.954,7.954,0,0,1,3.852-1.553,9.622,9.622,0,0,1,3.444.561,5.643,5.643,0,0,1,2.405,1.713A4.8,4.8,0,0,0,53.4,85.486a12.773,12.773,0,0,0,3.444.4,6.253,6.253,0,0,0,2.635-.586,9.595,9.595,0,0,0,4.285-4.285,6.242,6.242,0,0,0,.587-2.588,61.491,61.491,0,0,1-1.266-10.583,13.821,13.821,0,0,1,.6-4.043,15.238,15.238,0,0,1,1.8-3.813,25.177,25.177,0,0,1,7.087-6.879A35.734,35.734,0,0,1,81.754,48.3,29.819,29.819,0,0,1,91.4,46.7a10.926,10.926,0,0,1,4,.746,12.354,12.354,0,0,1,3.6,2.222,18.914,18.914,0,0,1,3.167,3.652,32.608,32.608,0,0,1,2.755,5.056l0,.006a5.963,5.963,0,0,1,.337,1.044q.322-.214.6-.413a35.708,35.708,0,0,1,9.188-4.806A29.838,29.838,0,0,1,124.69,52.6a12.091,12.091,0,0,1,4.394.771,10.229,10.229,0,0,1,3.543,2.324l.025.025.021.028A24.675,24.675,0,0,1,134.38,58.4a89.321,89.321,0,0,1-1.343-14.993,43.334,43.334,0,0,1,.987-9.354,37.456,37.456,0,0,1,2.964-8.463,38.193,38.193,0,0,1,4.937-7.553,45.692,45.692,0,0,1,6.9-6.631A53.789,53.789,0,0,1,156.633,6.2,52.8,52.8,0,0,1,165.2,2.475,56.819,56.819,0,0,1,174.5.243,66.221,66.221,0,0,1,184.526-.5,48.514,48.514,0,0,1,194.906.565a37.33,37.33,0,0,1,9.023,3.2,34.465,34.465,0,0,1,7.644,5.345,39.283,39.283,0,0,1,6.243,7.468,49.216,49.216,0,0,1,5.842,12.323,51.144,51.144,0,0,1,2.23,13.155h.781a17.52,17.52,0,0,1,7.809,1.528,9.561,9.561,0,0,1,2.667,1.947,9.178,9.178,0,0,1,1.783,2.731l0,.01c.583,1.451.878,4.349.878,8.613,0,.355,0,1.283-5.448,13.818a19.707,19.707,0,0,1,6.215-.832,6.976,6.976,0,0,1,4.528,1.482,8.749,8.749,0,0,1,2.684,4.325,11.3,11.3,0,0,0,2.2,3.61,3.362,3.362,0,0,0,2.385,1.118c.718,0,2.5-.429,6.931-2.471,4.624-2.7,5.955-3.007,6.554-3.007.2,0,.534,0,3.99,1.726a16.77,16.77,0,0,0,5.7,1.226,1.588,1.588,0,0,0,1.056-.707,9.98,9.98,0,0,0,1.32-2.555,62.651,62.651,0,0,0,2.609-10.654,17.079,17.079,0,0,1,2.552-6.644,15.809,15.809,0,0,1,5.057-4.76,24.441,24.441,0,0,1,7.475-2.826,47.138,47.138,0,0,1,9.851-.933,23.141,23.141,0,0,1,7.914,1.242,14.274,14.274,0,0,1,5.728,3.767,16.109,16.109,0,0,1,3.427,6.25,29.852,29.852,0,0,1,1.128,8.626,19.347,19.347,0,0,1-.262,3.741l.031-.007a9.723,9.723,0,0,1,3.1-.865,3.032,3.032,0,0,1,2.388.9,3.734,3.734,0,0,1,.639,3.006v4.249a16.728,16.728,0,0,1,3.523-.98,33.576,33.576,0,0,1,5.669-.428,12.4,12.4,0,0,1,5.164.889,4.246,4.246,0,0,1,2.486,2.859,7.606,7.606,0,0,1-.23,3.836h2.108a13.793,13.793,0,0,1,4.678-1.986,38.357,38.357,0,0,1,7.259-.961h.025a19.249,19.249,0,0,1,5.87.814,10.861,10.861,0,0,1,4.277,2.486,10.4,10.4,0,0,1,2.574,4.147,17.56,17.56,0,0,1,.844,5.694,17.946,17.946,0,0,1-.192,2.757V99.3ZM1.112,98.3H372.691a17.978,17.978,0,0,0,.126-2.218,16.573,16.573,0,0,0-.789-5.368,9.411,9.411,0,0,0-2.324-3.754,9.872,9.872,0,0,0-3.889-2.253,18.249,18.249,0,0,0-5.551-.766,37.358,37.358,0,0,0-7.053.932,12.546,12.546,0,0,0-4.457,1.916l-.133.1h-3.808l.219-.658a7.282,7.282,0,0,0,.41-3.936,3.291,3.291,0,0,0-1.941-2.2,11.454,11.454,0,0,0-4.739-.794,32.579,32.579,0,0,0-5.5.413,14.5,14.5,0,0,0-3.971,1.218l-.724.362V75.4l0-.031a2.852,2.852,0,0,0-.393-2.251,2.1,2.1,0,0,0-1.638-.559,9.454,9.454,0,0,0-2.765.807l-.03.012-.031.008a2.267,2.267,0,0,1-1.079,0l-.579-.135.232-.547a12.179,12.179,0,0,0,.381-4.016,28.864,28.864,0,0,0-1.085-8.335,15.121,15.121,0,0,0-3.209-5.866,13.285,13.285,0,0,0-5.333-3.5,22.156,22.156,0,0,0-7.571-1.181,46.149,46.149,0,0,0-9.64.91,23.452,23.452,0,0,0-7.17,2.7,14.817,14.817,0,0,0-4.741,4.458,16.091,16.091,0,0,0-2.4,6.261,63.567,63.567,0,0,1-2.66,10.84,10.923,10.923,0,0,1-1.471,2.819,2.406,2.406,0,0,1-1.84,1.085,17.774,17.774,0,0,1-6.078-1.3l-.025-.009-.023-.012a23.605,23.605,0,0,0-3.583-1.632c-.439.009-1.807.405-6.055,2.883l-.042.022c-3.753,1.731-6.164,2.573-7.372,2.573A4.321,4.321,0,0,1,249.281,80a12.287,12.287,0,0,1-2.426-3.954L246.839,76a7.8,7.8,0,0,0-2.366-3.867,6,6,0,0,0-3.9-1.258,16.927,16.927,0,0,0-6.6,1.05,1.532,1.532,0,0,1-.107.749l-.058.138-3.148,2.106,1.048-1.841a8.954,8.954,0,0,1,1.133-1.568l-.041-.13.22-.109c1.91-4.379,3.37-7.827,4.339-10.25a20.714,20.714,0,0,0,1.446-4.133c0-4.131-.271-6.9-.8-8.236a8.179,8.179,0,0,0-1.585-2.429,8.565,8.565,0,0,0-2.389-1.742,16.553,16.553,0,0,0-7.361-1.423h-1.748l-.015-.484A50.277,50.277,0,0,0,222.7,29.2a48.22,48.22,0,0,0-5.724-12.073,38.289,38.289,0,0,0-6.084-7.28,33.46,33.46,0,0,0-7.422-5.19,36.33,36.33,0,0,0-8.782-3.117A47.512,47.512,0,0,0,184.526.5a65.211,65.211,0,0,0-9.879.732,55.808,55.808,0,0,0-9.136,2.192,51.8,51.8,0,0,0-8.4,3.652,52.8,52.8,0,0,0-7.672,5.113,44.708,44.708,0,0,0-6.749,6.488,37.19,37.19,0,0,0-4.808,7.355A36.453,36.453,0,0,0,135,34.268a42.339,42.339,0,0,0-.963,9.138,90.068,90.068,0,0,0,1.679,16.762l.113.594h-1.334l-.138-.276a27.819,27.819,0,0,0-2.462-4.11,9.231,9.231,0,0,0-3.173-2.074,11.1,11.1,0,0,0-4.032-.7,28.841,28.841,0,0,0-9.321,1.553,34.713,34.713,0,0,0-8.931,4.674c-.377.267-.809.555-1.286.858l-.689.437-.076-.812A5.093,5.093,0,0,0,104,58.773h0a31.61,31.61,0,0,0-2.666-4.895,17.919,17.919,0,0,0-3-3.46,11.361,11.361,0,0,0-3.3-2.045A9.931,9.931,0,0,0,91.4,47.7a28.821,28.821,0,0,0-9.321,1.554,34.743,34.743,0,0,0-8.931,4.676l-.009.006a24.2,24.2,0,0,0-6.815,6.6,14.239,14.239,0,0,0-1.68,3.562,12.822,12.822,0,0,0-.558,3.751A60.751,60.751,0,0,0,65.341,78.29l.009.046v.047a7.231,7.231,0,0,1-.679,3.053A10.585,10.585,0,0,1,59.9,86.21a7.246,7.246,0,0,1-3.054.678,13.748,13.748,0,0,1-3.719-.44,5.752,5.752,0,0,1-2.534-1.391l-.02-.02-.017-.022a4.651,4.651,0,0,0-2-1.427,8.637,8.637,0,0,0-3.085-.494,6.948,6.948,0,0,0-3.315,1.4,49.153,49.153,0,0,0-5.627,4.381l-.012.01c-6.475,5.329-8.076,6.013-8.746,6.013h-.19l-.142-.126a11.875,11.875,0,0,0-4.45-2.425,21.128,21.128,0,0,0-6.174-.821,20.109,20.109,0,0,0-6.373,1.028,22.685,22.685,0,0,0-5.98,3.093l-.02.014A18.862,18.862,0,0,0,1.112,98.3Zm506.639.812h-1.074l.564-.676a20.09,20.09,0,0,1,1.392-8.1,17.089,17.089,0,0,1,4.684-6.434l.011-.009A18.281,18.281,0,0,1,518.2,80.97a14.043,14.043,0,0,1,5.134-.982,3.475,3.475,0,0,1,2.334.969,8.841,8.841,0,0,1,1.888,2.643,7.115,7.115,0,0,0,2.14,2.039,4.878,4.878,0,0,0,2.481.669c.2-.014,1.747-.25,11.714-2.1l.045-.008h.046a12.216,12.216,0,0,1,3.654.5,6.879,6.879,0,0,1,2.7,1.535,6.422,6.422,0,0,1,1.63,2.567,10.537,10.537,0,0,1,.529,3.484,18.155,18.155,0,0,1-1.3,5.225l-.115.321-.34.011c-15.144.483-29.606.91-42.984,1.267Zm6.214-14.445a16.1,16.1,0,0,0-4.408,6.053,18.934,18.934,0,0,0-1.322,7.378c13.135-.351,27.305-.769,42.133-1.242a15.665,15.665,0,0,0,1.124-4.568,9.548,9.548,0,0,0-.472-3.152,5.433,5.433,0,0,0-1.374-2.173,5.891,5.891,0,0,0-2.309-1.308,11.18,11.18,0,0,0-3.307-.451c-11.36,2.106-11.711,2.106-11.844,2.106a5.867,5.867,0,0,1-2.992-.8,8.129,8.129,0,0,1-2.472-2.353l-.023-.032-.017-.035a7.929,7.929,0,0,0-1.676-2.379,2.51,2.51,0,0,0-1.67-.717,13.046,13.046,0,0,0-4.77.914A17.28,17.28,0,0,0,513.965,84.665Z" transform="translate(0 12.635)" fill="rgba(0,0,0,0)"/></g></g></svg>
