<svg xmlns="http://www.w3.org/2000/svg" width="1126.348" height="261.087" viewBox="0 0 1126.348 261.087"><g transform="translate(422.332 -340)"><path d="M673.566,212.465A48.247,48.247,0,0,0,615.723,165.2c.067-1.079.164-2.149.164-3.244a52.431,52.431,0,0,0-93.6-32.5,52.171,52.171,0,0,0-31.854-10.844c-1.031,0-2.036.095-3.05.154A79.66,79.66,0,0,0,387.5,62.648a111.777,111.777,0,0,0-202.556,3.758A77.519,77.519,0,0,0,70.486,132.619c-2.07-.2-4.167-.317-6.29-.317a64.2,64.2,0,1,0,0,128.392c.55,0,1.082-.068,1.628-.082v.082H626.967v-.082a48.192,48.192,0,0,0,46.6-48.146M194.8,196.278c.028.181.053.364.083.545h-.814c.245-.181.489-.362.73-.545" transform="translate(-422.332 340)" fill="#fafafa"/><g transform="translate(-296.918 475)"><path d="M476.609,118.157q0,3.666,4.426,4.426l2.529-.634h24.79q4.933-.886,4.934-4.68,0-9.615-18.339-6.957a51.472,51.472,0,0,0-12.648,3.417q-5.691,2.4-5.691,4.428M370.993,51.623q0-12.268-3.925-20.616-7.84-16.569-29.219-16.193-15.176.385-29.09,10.628a41.163,41.163,0,0,0-12.268,13.28q-8.6-8.094-23.4-7.714-10.373.127-23.022,7.083c-.673.423-1.307.842-1.9,1.266a58.8,58.8,0,0,0-7.591-17.584Q225.788-.613,191.761.017q-21.375.5-41.867,13.914-23.527,15.43-23.779,36.427a29.539,29.539,0,0,0-12.9-2.277q-16.573.381-28.967,15.053A84.051,84.051,0,0,0,72.232,81.345Q66.8,71.106,57.181,71.734q-9.615.508-16.571,12.648-6.577,11.256-5.437,21.63-6.45-1.267-21,3.543T.01,125.363q34.91-.25,93.6-1.515,58.561-1.14,144.7-.131,86.008,1.143,135.971.382t88.413-1.391q6.323-11.259-5.314-15.433-11.633-4.3-15.428-2.529-3.543,1.644-3.668,1.643a1.783,1.783,0,0,1-.757-.123v-.254a36.647,36.647,0,0,0-2.531-11.385Q431.2,85.14,419.943,85.4q-7.466.127-12.019,3.92a42.167,42.167,0,0,0-4.3-13.914q-8.094-15.176-28.335-14.8a23.959,23.959,0,0,0-4.931.252,58.821,58.821,0,0,0,.634-9.234m169.362,69.314a3.811,3.811,0,0,0,.886-2.78q0-4.178-7.463-4.808t-7.463,4.808a4.058,4.058,0,0,0,.632,2.4q1.648,2.025,6.831,2.025c3.286,0,5.483-.547,6.577-1.645" transform="translate(459.693 0)" fill="#fafafa"/><path d="M546.677,111.347H451.76c.11-1.02.218-2.37.323-4.013a7.526,7.526,0,0,1,1.186-4.037,12.718,12.718,0,0,1,3.561-3.561,20.983,20.983,0,0,1,7.6-4.275c3.153-1.262,5.231-1.9,6.174-1.9.628,0,2.226,1.438,4.75,4.275a16.065,16.065,0,0,0,3.68,2.85,7.335,7.335,0,0,0,3.442.95,3.435,3.435,0,0,0,2.375-1.188,13.912,13.912,0,0,0,2.375-3.562,12.686,12.686,0,0,1,2.968-3.562,5.218,5.218,0,0,1,3.206-1.188c1.889,0,4.926.8,9.025,2.377h4.747a26.984,26.984,0,0,1-1.305-6.888,13.292,13.292,0,0,1,.831-5.463,10.418,10.418,0,0,1,2.969-3.947,16.99,16.99,0,0,1,5.106-2.819,35.056,35.056,0,0,1,7.243-1.692,70.614,70.614,0,0,1,9.381-.564,30.927,30.927,0,0,1,5.817.5,18.01,18.01,0,0,1,4.631,1.514,12.168,12.168,0,0,1,3.444,2.523,11.523,11.523,0,0,1,2.256,3.532c.63,1.9.949,6.85.949,14.724,0,6.478-.611,11.663-1.816,15.411Zm-126.158,0H0a19.5,19.5,0,0,1,4.694-4.013,26.133,26.133,0,0,1,6.889-3.562,23.227,23.227,0,0,1,7.36-1.188,24.369,24.369,0,0,1,7.124.95,13.939,13.939,0,0,1,5.224,2.85c.943,0,4.139-2.237,9.5-6.648a55.934,55.934,0,0,1,6.41-4.989,8.625,8.625,0,0,1,4.039-1.663,10.289,10.289,0,0,1,3.68.594,5.8,5.8,0,0,1,2.494,1.782,5.931,5.931,0,0,0,2.612,1.424,14.943,14.943,0,0,0,4.036.474,7.608,7.608,0,0,0,3.206-.712,11.371,11.371,0,0,0,5.105-5.105,7.592,7.592,0,0,0,.714-3.2A68.983,68.983,0,0,1,71.66,76.462a15.013,15.013,0,0,1,.653-4.392,16.608,16.608,0,0,1,1.959-4.155,27.829,27.829,0,0,1,7.837-7.6A39.717,39.717,0,0,1,92.32,54.973a33.046,33.046,0,0,1,10.687-1.782,11.754,11.754,0,0,1,4.3.8,13.367,13.367,0,0,1,3.888,2.4,20.754,20.754,0,0,1,3.473,4.008,36.191,36.191,0,0,1,3.057,5.611,6.3,6.3,0,0,1,.478,1.9c.527-.334,1.006-.653,1.424-.949a39.686,39.686,0,0,1,10.211-5.343,33.068,33.068,0,0,1,10.687-1.78,13.068,13.068,0,0,1,4.749.83,10.968,10.968,0,0,1,3.8,2.492,31.782,31.782,0,0,1,2.851,4.75h.475a102.063,102.063,0,0,1-1.9-19,48.279,48.279,0,0,1,1.1-10.42,41.646,41.646,0,0,1,3.3-9.41,42.476,42.476,0,0,1,5.491-8.4,50.924,50.924,0,0,1,7.687-7.391A60.074,60.074,0,0,1,176.8,7.479a58.939,58.939,0,0,1,9.558-4.155A63.469,63.469,0,0,1,196.746.831,74.064,74.064,0,0,1,207.965,0a54.11,54.11,0,0,1,11.577,1.188A41.513,41.513,0,0,1,229.575,4.75a38.276,38.276,0,0,1,8.49,5.936A43.706,43.706,0,0,1,245.011,19a54.908,54.908,0,0,1,6.518,13.748,57.229,57.229,0,0,1,2.507,15.222h1.424a19.2,19.2,0,0,1,8.549,1.663,10.215,10.215,0,0,1,2.849,2.079,9.783,9.783,0,0,1,1.9,2.911c.63,1.568.949,4.763.949,9.5,0,.923-2.237,6.515-6.649,16.623a9.529,9.529,0,0,0-1.424,1.9l1.424-.953a1.358,1.358,0,0,0,0-.949,18.6,18.6,0,0,1,8.076-1.424,7.315,7.315,0,0,1,4.748,1.544,9.333,9.333,0,0,1,2.85,4.63,13.3,13.3,0,0,0,2.613,4.275,4.329,4.329,0,0,0,3.086,1.424c1.261,0,3.977-.958,8.073-2.848,3.784-2.207,6.182-3.326,7.126-3.326a24.088,24.088,0,0,1,4.272,1.9,19.485,19.485,0,0,0,6.652,1.427,2.192,2.192,0,0,0,1.632-1.01,11.773,11.773,0,0,0,1.572-3.028,71.114,71.114,0,0,0,2.969-12.11,18.693,18.693,0,0,1,2.79-7.273,17.259,17.259,0,0,1,5.521-5.195,26.988,26.988,0,0,1,8.252-3.116,52.568,52.568,0,0,1,10.984-1.039A25.524,25.524,0,0,1,353,56.933a15.53,15.53,0,0,1,6.233,4.1,17.6,17.6,0,0,1,3.74,6.827,33.092,33.092,0,0,1,1.247,9.558,14.9,14.9,0,0,1-.475,4.747,2.153,2.153,0,0,0,.486.058,1.875,1.875,0,0,0,.464-.058,10.841,10.841,0,0,1,3.325-.949,2.887,2.887,0,0,1,2.269.82,3.717,3.717,0,0,1,.579,2.98v5.7a16.889,16.889,0,0,1,4.631-1.424,37.285,37.285,0,0,1,6.293-.474,13.44,13.44,0,0,1,5.581.948,4.248,4.248,0,0,1,2.495,2.849,8.739,8.739,0,0,1-.475,4.75h3.323a14.682,14.682,0,0,1,5.225-2.256,42.687,42.687,0,0,1,8.072-1.067,21.138,21.138,0,0,1,6.442.89,11.683,11.683,0,0,1,4.6,2.671,11.163,11.163,0,0,1,2.761,4.452,19.234,19.234,0,0,1,.92,6.234,19.564,19.564,0,0,1-.216,3.063Zm151.72-.212h0a22.2,22.2,0,0,1,1.522-9.108,18.7,18.7,0,0,1,5.127-7.04,20.037,20.037,0,0,1,5.343-3.207,15.265,15.265,0,0,1,5.581-1.068,3.372,3.372,0,0,1,2.257.95,9.477,9.477,0,0,1,2.018,2.85A8.6,8.6,0,0,0,596.7,97a6.055,6.055,0,0,0,3.088.83c.323,0,4.921-.821,13.3-2.373a13.213,13.213,0,0,1,3.948.534,7.2,7.2,0,0,1,2.82,1.6,6.678,6.678,0,0,1,1.692,2.671,11.314,11.314,0,0,1,.564,3.74,20.026,20.026,0,0,1-1.427,5.7C603.58,110.254,587.282,110.734,572.239,111.135Z" transform="translate(0 14.24)" fill="#fafafa"/><path d="M546.677,111.847H451.2l.059-.553c.109-1.016.217-2.353.32-3.976a8.02,8.02,0,0,1,1.262-4.286,13.175,13.175,0,0,1,3.662-3.68,21.542,21.542,0,0,1,7.743-4.357c3.254-1.3,5.333-1.935,6.354-1.935.578,0,1.639.527,5.113,4.432a15.556,15.556,0,0,0,3.552,2.753,6.844,6.844,0,0,0,3.207.891,2.967,2.967,0,0,0,2.021-1.041,13.435,13.435,0,0,0,2.282-3.432l.018-.033a13.17,13.17,0,0,1,3.092-3.7,5.7,5.7,0,0,1,3.511-1.292c1.938,0,5,.8,9.117,2.377H506.5a26.624,26.624,0,0,1-1.131-6.368,13.784,13.784,0,0,1,.866-5.668l0-.008a10.913,10.913,0,0,1,3.109-4.136,17.485,17.485,0,0,1,5.256-2.906,35.551,35.551,0,0,1,7.348-1.718,71.119,71.119,0,0,1,9.448-.569,31.423,31.423,0,0,1,5.912.514,18.5,18.5,0,0,1,4.76,1.557,12.666,12.666,0,0,1,3.584,2.627,12.019,12.019,0,0,1,2.354,3.684l.012.033c.647,1.947.975,6.954.975,14.882,0,6.53-.619,11.766-1.84,15.563l-.012.033-.126.314Zm-94.364-1h94c1.117-3.67,1.683-8.684,1.683-14.911,0-7.8-.309-12.692-.918-14.55a11.021,11.021,0,0,0-2.151-3.363,11.671,11.671,0,0,0-3.3-2.418,17.512,17.512,0,0,0-4.5-1.47,30.429,30.429,0,0,0-5.722-.5,70.119,70.119,0,0,0-9.313.559,34.563,34.563,0,0,0-7.139,1.666,16.5,16.5,0,0,0-4.956,2.733,9.924,9.924,0,0,0-2.828,3.754,12.8,12.8,0,0,0-.793,5.253,26.49,26.49,0,0,0,1.283,6.758l.2.649h-5.519l-.087-.033c-4.041-1.555-7.017-2.343-8.845-2.343a4.732,4.732,0,0,0-2.9,1.084,12.179,12.179,0,0,0-2.835,3.407,14.353,14.353,0,0,1-2.46,3.674,3.907,3.907,0,0,1-2.729,1.334,7.827,7.827,0,0,1-3.678-1.009,16.556,16.556,0,0,1-3.8-2.938l-.02-.021c-3.42-3.844-4.249-4.1-4.381-4.108-.6,0-2.13.324-5.984,1.866l-.015.006a20.517,20.517,0,0,0-7.418,4.159l-.031.031-.036.025a12.228,12.228,0,0,0-3.423,3.416,7.034,7.034,0,0,0-1.11,3.772v.032C452.495,108.731,452.4,109.9,452.313,110.847Zm-31.794,1H-1.042l.652-.813a19.977,19.977,0,0,1,4.8-4.114,26.627,26.627,0,0,1,7.012-3.623,23.727,23.727,0,0,1,7.518-1.214,24.863,24.863,0,0,1,7.271.972,14.53,14.53,0,0,1,5.232,2.8,10.942,10.942,0,0,0,2.651-1.552c1.571-1.1,3.714-2.765,6.369-4.95a56.364,56.364,0,0,1,6.465-5.03,8.911,8.911,0,0,1,4.307-1.741,10.781,10.781,0,0,1,3.859.628,6.3,6.3,0,0,1,2.687,1.914,5.47,5.47,0,0,0,2.377,1.278,14.456,14.456,0,0,0,3.9.455,7.11,7.11,0,0,0,3-.666,10.875,10.875,0,0,0,4.861-4.861,7.1,7.1,0,0,0,.667-2.949A69.255,69.255,0,0,1,71.16,76.462a15.51,15.51,0,0,1,.675-4.538,17.105,17.105,0,0,1,2.018-4.281,28.318,28.318,0,0,1,7.972-7.737A40.211,40.211,0,0,1,92.159,54.5a33.542,33.542,0,0,1,10.849-1.809,12.252,12.252,0,0,1,4.485.836,13.865,13.865,0,0,1,4.035,2.494,21.251,21.251,0,0,1,3.558,4.1,36.7,36.7,0,0,1,3.1,5.689l0,.006a6.666,6.666,0,0,1,.4,1.256c.272-.18.525-.353.757-.517A40.184,40.184,0,0,1,129.68,61.15a33.567,33.567,0,0,1,10.849-1.807,13.565,13.565,0,0,1,4.93.864,11.465,11.465,0,0,1,3.971,2.6l.025.025.021.028a28.566,28.566,0,0,1,2.1,3.306A100.932,100.932,0,0,1,150,48.919a48.781,48.781,0,0,1,1.11-10.528,42.148,42.148,0,0,1,3.335-9.523,42.977,42.977,0,0,1,5.556-8.5,51.425,51.425,0,0,1,7.762-7.464,60.55,60.55,0,0,1,8.8-5.863A59.444,59.444,0,0,1,186.2,2.85,63.958,63.958,0,0,1,196.67.337a74.569,74.569,0,0,1,11.3-.837A54.608,54.608,0,0,1,219.649.7,42.013,42.013,0,0,1,229.8,4.3a38.778,38.778,0,0,1,8.6,6.014,44.207,44.207,0,0,1,7.026,8.4A55.406,55.406,0,0,1,252.007,32.6a57.6,57.6,0,0,1,2.512,14.871h.941a19.683,19.683,0,0,1,8.772,1.715,10.71,10.71,0,0,1,2.988,2.181,10.281,10.281,0,0,1,2,3.059l0,.01c.654,1.627.985,4.885.985,9.683,0,.623-.655,2.947-6.193,15.681a21.83,21.83,0,0,1,7.12-.982,7.8,7.8,0,0,1,5.063,1.656,9.8,9.8,0,0,1,3.005,4.847,12.8,12.8,0,0,0,2.5,4.091,3.849,3.849,0,0,0,2.733,1.278c.816,0,2.838-.485,7.841-2.792,5.2-3.031,6.689-3.382,7.358-3.382.2,0,.586,0,4.471,1.939a18.966,18.966,0,0,0,6.452,1.387,1.745,1.745,0,0,0,1.24-.82,11.305,11.305,0,0,0,1.5-2.9A70.655,70.655,0,0,0,316.234,72.1,19.184,19.184,0,0,1,319.1,64.64a17.752,17.752,0,0,1,5.679-5.345,27.478,27.478,0,0,1,8.405-3.177,53.061,53.061,0,0,1,11.089-1.05,26.019,26.019,0,0,1,8.9,1.4,16.025,16.025,0,0,1,6.431,4.229,18.091,18.091,0,0,1,3.849,7.019,33.583,33.583,0,0,1,1.268,9.7,20.949,20.949,0,0,1-.313,4.293,1.353,1.353,0,0,0,.135-.024,10.924,10.924,0,0,1,3.478-.972,3.357,3.357,0,0,1,2.644.99,4.151,4.151,0,0,1,.7,3.341v4.889a18.638,18.638,0,0,1,4.045-1.137,37.777,37.777,0,0,1,6.379-.482,13.915,13.915,0,0,1,5.793,1,4.726,4.726,0,0,1,2.767,3.18,8.586,8.586,0,0,1-.281,4.372h2.481a15.45,15.45,0,0,1,5.267-2.241,43.178,43.178,0,0,1,8.169-1.081h.025a21.633,21.633,0,0,1,6.6.914,12.18,12.18,0,0,1,4.8,2.787,11.658,11.658,0,0,1,2.886,4.648,19.73,19.73,0,0,1,.947,6.4,20.158,20.158,0,0,1-.216,3.1v.46Zm-419.416-1H420.086a20.164,20.164,0,0,0,.149-2.563,18.74,18.74,0,0,0-.893-6.071,10.669,10.669,0,0,0-2.635-4.255A11.192,11.192,0,0,0,412.3,95.4a20.631,20.631,0,0,0-6.277-.866,42.172,42.172,0,0,0-7.963,1.052,14.2,14.2,0,0,0-5.046,2.171l-.133.1H388.7l.219-.658a8.269,8.269,0,0,0,.464-4.472,3.771,3.771,0,0,0-2.222-2.517,12.971,12.971,0,0,0-5.368-.9,36.793,36.793,0,0,0-6.208.467,16.393,16.393,0,0,0-4.493,1.379l-.724.362v-6.54l0-.031a3.27,3.27,0,0,0-.458-2.587,2.423,2.423,0,0,0-1.894-.651,10.691,10.691,0,0,0-3.14.914l-.03.012-.031.008a2.488,2.488,0,0,1-1.186,0l-.58-.135.232-.548a13.764,13.764,0,0,0,.435-4.551A32.6,32.6,0,0,0,362.494,68a17.1,17.1,0,0,0-3.631-6.636,15.036,15.036,0,0,0-6.035-3.964,25.03,25.03,0,0,0-8.555-1.335A52.068,52.068,0,0,0,333.4,57.095a26.491,26.491,0,0,0-8.1,3.056,16.762,16.762,0,0,0-5.363,5.044,18.2,18.2,0,0,0-2.713,7.08,71.574,71.574,0,0,1-2.995,12.2,12.244,12.244,0,0,1-1.648,3.16,2.652,2.652,0,0,1-2.024,1.2,19.971,19.971,0,0,1-6.827-1.459l-.024-.009-.023-.012a25.676,25.676,0,0,0-4.062-1.846c-.5.008-2.044.448-6.861,3.258l-.042.022c-4.22,1.947-6.93,2.894-8.282,2.894a4.809,4.809,0,0,1-3.44-1.571,13.784,13.784,0,0,1-2.721-4.436l-.016-.045a8.849,8.849,0,0,0-2.687-4.389,6.829,6.829,0,0,0-4.432-1.432,19.031,19.031,0,0,0-7.5,1.208,1.678,1.678,0,0,1-.111.86l-.058.138-3.309,2.214,1.048-1.841a10.031,10.031,0,0,1,1.294-1.783l-.041-.129.22-.109c2.158-4.946,3.806-8.84,4.9-11.575,1.475-3.688,1.634-4.5,1.634-4.681,0-4.661-.306-7.791-.91-9.3a9.281,9.281,0,0,0-1.8-2.76,9.714,9.714,0,0,0-2.711-1.976,18.716,18.716,0,0,0-8.325-1.61h-1.908l-.015-.484a56.726,56.726,0,0,0-2.485-15.089,54.41,54.41,0,0,0-6.459-13.623,43.214,43.214,0,0,0-6.867-8.216,37.777,37.777,0,0,0-8.379-5.859,41.014,41.014,0,0,0-9.912-3.519A53.614,53.614,0,0,0,207.965.5a73.574,73.574,0,0,0-11.143.825A62.975,62.975,0,0,0,186.515,3.8a58.441,58.441,0,0,0-9.477,4.12,59.573,59.573,0,0,0-8.655,5.769,50.437,50.437,0,0,0-7.615,7.321,41.975,41.975,0,0,0-5.427,8.3,41.145,41.145,0,0,0-3.256,9.3A47.78,47.78,0,0,0,151,48.919a101.561,101.561,0,0,0,1.893,18.9l.113.594h-1.388l-.138-.276a31.4,31.4,0,0,0-2.783-4.646,10.468,10.468,0,0,0-3.6-2.355,12.573,12.573,0,0,0-4.567-.8A32.567,32.567,0,0,0,130,62.1a39.188,39.188,0,0,0-10.082,5.276c-.423.3-.91.624-1.447.965l-.689.437-.076-.812a5.8,5.8,0,0,0-.44-1.748,35.69,35.69,0,0,0-3.011-5.527,20.26,20.26,0,0,0-3.388-3.912,12.87,12.87,0,0,0-3.742-2.316,11.256,11.256,0,0,0-4.121-.767,32.546,32.546,0,0,0-10.526,1.755A39.221,39.221,0,0,0,82.4,60.724l-.009.006a27.34,27.34,0,0,0-7.7,7.456,16.111,16.111,0,0,0-1.9,4.03,14.511,14.511,0,0,0-.631,4.246,68.514,68.514,0,0,0,1.419,11.784l.009.046v.047a8.088,8.088,0,0,1-.76,3.415,11.866,11.866,0,0,1-5.35,5.349,8.1,8.1,0,0,1-3.416.758,15.434,15.434,0,0,1-4.174-.494,6.419,6.419,0,0,1-2.829-1.552l-.02-.02-.017-.022a5.305,5.305,0,0,0-2.283-1.628,9.8,9.8,0,0,0-3.5-.561c-.585,0-1.713.275-3.77,1.584a55.462,55.462,0,0,0-6.349,4.944l-.012.01c-7.283,5.993-9.072,6.762-9.817,6.762H31.1l-.142-.126a13.444,13.444,0,0,0-5.039-2.746,23.875,23.875,0,0,0-6.977-.928,22.728,22.728,0,0,0-7.2,1.162,25.634,25.634,0,0,0-6.757,3.495l-.02.014A21.045,21.045,0,0,0,1.1,110.847Zm571.142.788h-1.075l.563-.676a22.6,22.6,0,0,1,1.564-9.122,19.2,19.2,0,0,1,5.261-7.227l.011-.009a20.536,20.536,0,0,1,5.477-3.286,15.765,15.765,0,0,1,5.763-1.1,3.855,3.855,0,0,1,2.589,1.076,9.909,9.909,0,0,1,2.115,2.965,8.082,8.082,0,0,0,2.434,2.32,5.561,5.561,0,0,0,2.829.762c.205-.012,1.915-.27,13.213-2.365l.045-.008h.046a13.709,13.709,0,0,1,4.1.557,7.694,7.694,0,0,1,3.014,1.716,7.175,7.175,0,0,1,1.82,2.868,11.811,11.811,0,0,1,.592,3.906,20.407,20.407,0,0,1-1.457,5.868l-.115.32-.34.011c-17.09.546-33.389,1.026-48.444,1.427Zm6.964-16.265a18.2,18.2,0,0,0-4.986,6.848,21.436,21.436,0,0,0-1.494,8.4c14.812-.4,30.82-.868,47.594-1.4a18.631,18.631,0,0,0,1.285-5.21,10.823,10.823,0,0,0-.536-3.574,6.185,6.185,0,0,0-1.565-2.474,6.7,6.7,0,0,0-2.627-1.489,12.67,12.67,0,0,0-3.752-.511c-12.8,2.373-13.195,2.373-13.342,2.373a6.549,6.549,0,0,1-3.339-.9,9.1,9.1,0,0,1-2.767-2.634l-.023-.032-.017-.035a9,9,0,0,0-1.9-2.7,2.89,2.89,0,0,0-1.924-.824,14.768,14.768,0,0,0-5.4,1.034A19.537,19.537,0,0,0,579.209,95.37Z" transform="translate(0 14.24)" fill="rgba(0,0,0,0)"/></g></g></svg>