<svg width="11" height="20" viewBox="0 0 11 20" fill="none" xmlns="http://www.w3.org/2000/svg">
<path fill-rule="evenodd" clip-rule="evenodd" d="M10.4631 0.489653C11.0728 1.12664 11.0552 2.14155 10.4236 2.75653L4.84908 8.18508C4.09803 8.91646 3.65277 9.35484 3.37545 9.70874C3.25243 9.86572 3.20284 9.95681 3.18421 10C3.20284 10.0432 3.25243 10.1343 3.37545 10.2913C3.65277 10.6452 4.09803 11.0835 4.84908 11.8149L10.4236 17.2435C11.0552 17.8584 11.0728 18.8734 10.4631 19.5103C9.85342 20.1473 8.8472 20.1652 8.21568 19.5502L2.64112 14.1216C2.61813 14.0992 2.5952 14.0769 2.57233 14.0547C1.91321 13.413 1.30805 12.8238 0.881522 12.2795C0.413329 11.682 0 10.9439 0 10C0 9.05611 0.413329 8.318 0.881521 7.72052C1.30805 7.17621 1.91322 6.58703 2.57235 5.94532C2.59521 5.92307 2.61814 5.90075 2.64112 5.87836L8.21568 0.449818C8.8472 -0.165164 9.85342 -0.147329 10.4631 0.489653ZM3.17424 9.96891C3.17493 9.9692 3.17687 9.97465 3.17801 9.98439C3.17412 9.97348 3.17356 9.96862 3.17424 9.96891ZM3.17801 10.0156C3.17687 10.0254 3.17493 10.0308 3.17424 10.0311C3.17356 10.0314 3.17413 10.0265 3.17801 10.0156Z" fill="black"/>
</svg>
