<svg xmlns="http://www.w3.org/2000/svg" width="70" height="70" viewBox="0 0 70 70"><g transform="translate(-20 -3508)"><path d="M35,2A33.009,33.009,0,0,0,22.156,65.408,33.009,33.009,0,0,0,47.844,4.592,32.792,32.792,0,0,0,35,2m0-2A35,35,0,1,1,0,35,35,35,0,0,1,35,0Z" transform="translate(20 3508)" fill="#fafafa"/><path d="M21.552,32.66c-4.4,0-11.325-1.455-13.029-2.663a1.431,1.431,0,0,1-.6-1.172V14.945a1.434,1.434,0,0,1,.533-1.1,48.832,48.832,0,0,1,5.183-3.479c3.23-1.775,5.467-4.26,6-5.822C20.274,2.627,21.2,0,24.108,0a3.356,3.356,0,0,1,3.124,2.13c1.207,2.769-.071,6.6-2.2,9.62,1.42.32,3.195.781,4.26,1.1a4.8,4.8,0,0,1,3.514,3.763c.249,1.775-.639,3.585-2.52,4.97-1.385,3.727-3.763,9.62-5.5,10.579a7.68,7.68,0,0,1-3.23.5ZM10.759,27.974c2.7,1.136,11.005,2.307,12.567,1.7.817-.745,2.911-5.5,4.367-9.514a1.512,1.512,0,0,1,.532-.71c1.172-.781,1.775-1.7,1.668-2.485a2.049,2.049,0,0,0-1.527-1.455c-1.775-.568-6.177-1.526-6.248-1.526a1.452,1.452,0,0,1-1.065-.958,1.325,1.325,0,0,1,.319-1.385c3.195-3.443,3.763-6.958,3.16-8.378-.142-.426-.319-.426-.426-.426-.71,0-1.03.5-1.775,2.627-.852,2.485-3.8,5.467-7.313,7.384a36.925,36.925,0,0,0-4.26,2.8V27.974Zm-5.609.994v-14.2a2.3,2.3,0,0,0-2.308-2.307A2.333,2.333,0,0,0,.5,14.768V28.932A2.3,2.3,0,0,0,2.807,31.24,2.327,2.327,0,0,0,5.15,28.968Z" transform="translate(38.174 3526.67)" fill="#fafafa"/></g></svg>