<svg width="11" height="20" viewBox="0 0 11 20" fill="none" xmlns="http://www.w3.org/2000/svg">
<path fill-rule="evenodd" clip-rule="evenodd" d="M0.445963 0.489653C1.05567 -0.147329 2.06189 -0.165164 2.69341 0.449818L8.26797 5.87836C8.29096 5.90075 8.31389 5.92307 8.33675 5.94533C8.99587 6.58704 9.60104 7.17621 10.0276 7.72052C10.4958 8.318 10.9091 9.05611 10.9091 10C10.9091 10.9439 10.4958 11.682 10.0276 12.2795C9.60104 12.8238 8.99588 13.413 8.33677 14.0547C8.3139 14.0769 8.29096 14.0992 8.26797 14.1216L2.69341 19.5502C2.06189 20.1652 1.05567 20.1473 0.445963 19.5103C-0.163748 18.8734 -0.146066 17.8584 0.485456 17.2435L6.06001 11.8149C6.81106 11.0835 7.25632 10.6452 7.53364 10.2913C7.65666 10.1343 7.70625 10.0432 7.72488 10C7.70625 9.95681 7.65666 9.86572 7.53364 9.70874C7.25632 9.35484 6.81106 8.91646 6.06001 8.18508L0.485456 2.75653C-0.146066 2.14155 -0.163748 1.12664 0.445963 0.489653ZM7.73485 10.0311C7.73416 10.0308 7.73222 10.0253 7.73108 10.0156C7.73497 10.0265 7.73553 10.0314 7.73485 10.0311ZM7.73108 9.98439C7.73222 9.97465 7.73416 9.9692 7.73485 9.96891C7.73553 9.96862 7.73497 9.97348 7.73108 9.98439Z" fill="black"/>
</svg>
