<?xml version="1.0" encoding="UTF-8"?><svg id="search_icon" width="29.99" height="30" xmlns="http://www.w3.org/2000/svg" viewBox="0 0 59.02 59.03"><defs><style>.cls-1{fill:#000000;}</style></defs><g id="Object"><path class="cls-1" d="m58.33,55.04l-17.62-17.62c7.34-9,6.81-22.31-1.57-30.7C34.81,2.38,29.05,0,22.92,0S11.04,2.38,6.71,6.72C-2.24,15.66-2.24,30.21,6.71,39.15c4.33,4.33,10.09,6.72,16.22,6.72,5.34,0,10.4-1.81,14.48-5.15l17.62,17.62c.46.46,1.06.69,1.65.69s1.2-.23,1.65-.69c.91-.91.91-2.4,0-3.31ZM10.02,35.84c-7.12-7.12-7.12-18.7,0-25.81,3.45-3.45,8.03-5.35,12.91-5.35s9.46,1.9,12.91,5.35c7.12,7.12,7.12,18.7,0,25.81-3.45,3.45-8.03,5.35-12.91,5.35s-9.46-1.9-12.91-5.35Z"/><path class="cls-1" d="m14.66,10.22c-1.17.54-1.69,1.93-1.14,3.11.54,1.17,1.93,1.68,3.11,1.14.07-.03,7.27-3.25,13.99,2.91.45.41,1.02.62,1.58.62.63,0,1.26-.26,1.73-.76.87-.95.81-2.43-.14-3.31-8.99-8.24-18.7-3.9-19.11-3.71Z"/></g></svg>
