<?xml version="1.0" encoding="UTF-8"?><svg id="shopping_bag_icon" width="24" height="30" xmlns="http://www.w3.org/2000/svg" viewBox="0 0 93.93 126.26"><defs><style>.cls-1{fill:#000000;}</style></defs><g id="Layer_2-2"><path class="cls-1" d="m72.24,31.12c.05-3.79-.4-16.19-7.93-24.21C60.01,2.32,54.17,0,46.96,0s-12.97,2.33-17.12,6.91c-7.23,7.98-7.26,20.32-7.07,24.2H0v81.14c0,7.73,6.27,14,14,14h65.98c7.7,0,13.95-6.25,13.95-13.95V31.12h-21.69ZM32.82,9.58c3.36-3.71,8.12-5.58,14.14-5.58s10.9,1.9,14.42,5.63c6.51,6.91,6.88,18.27,6.85,21.48H26.78c-.15-3.11-.26-14.59,6.04-21.53Z"/></g></svg>
