<svg xmlns="http://www.w3.org/2000/svg" width="262.8" height="116.818" viewBox="0 0 262.8 116.818"><path d="M237.591,73.051A42.155,42.155,0,0,0,191.1,22.465a44.514,44.514,0,0,0-83.183,21.985A33.033,33.033,0,0,0,77.067,54.991,27.314,27.314,0,0,0,28.311,69.977a23.387,23.387,0,1,0-7.068,46.152v.108h213.53v-.1c.665.061,1.336.1,2.018.1a21.6,21.6,0,0,0,.8-43.186" transform="translate(0 0)" fill="#eff0f2"/><path d="M237.591,73.051A42.155,42.155,0,0,0,191.1,22.465a44.514,44.514,0,0,0-83.183,21.985A33.033,33.033,0,0,0,77.067,54.991,27.315,27.315,0,0,0,28.311,69.977a23.387,23.387,0,1,0-7.068,46.152v.108h213.53v-.1c.665.061,1.336.1,2.018.1a21.6,21.6,0,0,0,.8-43.186" transform="translate(4.396 0.58)" fill="#fafafa"/></svg>